solid case.1.0
facet normal -1.0 -0.0 -0.0
  outer loop
    vertex 66.97304106681653 32.357034405346326 9.899998922405766
    vertex 66.97304106681653 30.357034405346326 1.4999989224057646
    vertex 66.97304106681653 30.357034405346326 9.899998922405766
  endloop
endfacet
facet normal -1.0 -0.0 -0.0
  outer loop
    vertex 66.97304106681653 30.357034405346326 1.4999989224057646
    vertex 66.97304106681653 32.357034405346326 9.899998922405766
    vertex 66.97304106681653 32.357034405346326 1.4999989224057646
  endloop
endfacet
facet normal 1.0 0.0 0.0
  outer loop
    vertex 49.183241066816514 32.35703440534634 1.4999989224057646
    vertex 49.183241066816514 30.357034405346326 9.899998922405766
    vertex 49.183241066816514 30.357034405346326 1.4999989224057646
  endloop
endfacet
facet normal 1.0 0.0 0.0
  outer loop
    vertex 49.183241066816514 30.357034405346326 9.899998922405766
    vertex 49.183241066816514 32.35703440534634 1.4999989224057646
    vertex 49.183241066816514 32.35703440534634 9.899998922405766
  endloop
endfacet
facet normal 1.0 0.0 0.0
  outer loop
    vertex 77.91183059515643 32.357034405346326 -2.000001077594235
    vertex 77.91183059515643 -1.9999999999999991 9.899998922405766
    vertex 77.91183059515643 -1.9999999999999991 -2.000001077594235
  endloop
endfacet
facet normal 1.0 0.0 0.0
  outer loop
    vertex 77.91183059515643 -1.9999999999999991 9.899998922405766
    vertex 77.91183059515643 32.357034405346326 -2.000001077594235
    vertex 77.91183059515643 32.357034405346326 9.899998922405766
  endloop
endfacet
facet normal 7.165180571793073e-17 -1.0 0.0
  outer loop
    vertex 77.91183059515643 -1.9999999999999991 9.899998922405766
    vertex 38.55530001937213 -2.0000000000000018 -2.000001077594235
    vertex 77.91183059515643 -1.9999999999999991 -2.000001077594235
  endloop
endfacet
facet normal 7.165180571793073e-17 -1.0 0.0
  outer loop
    vertex 38.55530001937213 -2.0000000000000018 -2.000001077594235
    vertex 77.91183059515643 -1.9999999999999991 9.899998922405766
    vertex 38.55530001937213 -2.0000000000000018 9.899998922405766
  endloop
endfacet
facet normal -1.0 0.0 0.0
  outer loop
    vertex 38.55530001937213 32.357034405346326 9.899998922405766
    vertex 38.55530001937213 -2.0000000000000018 -2.000001077594235
    vertex 38.55530001937213 -2.0000000000000018 9.899998922405766
  endloop
endfacet
facet normal -1.0 0.0 0.0
  outer loop
    vertex 38.55530001937213 -2.0000000000000018 -2.000001077594235
    vertex 38.55530001937213 32.357034405346326 9.899998922405766
    vertex 38.55530001937213 32.357034405346326 -2.000001077594235
  endloop
endfacet
facet normal 0.0 -1.0 0.0
  outer loop
    vertex 75.91183059515643 30.357034405346326 -1.0775942354157575e-06
    vertex 66.97304106681653 30.357034405346326 1.4999989224057646
    vertex 40.555300019372126 30.357034405346326 -1.0775942354157575e-06
  endloop
endfacet
facet normal 0.0 -1.0 0.0
  outer loop
    vertex 66.97304106681653 30.357034405346326 1.4999989224057646
    vertex 75.91183059515643 30.357034405346326 -1.0775942354157575e-06
    vertex 75.91183059515643 30.357034405346326 7.899998922405766
  endloop
endfacet
facet normal 0.0 -1.0 0.0
  outer loop
    vertex 66.97304106681653 30.357034405346326 1.4999989224057646
    vertex 75.91183059515643 30.357034405346326 7.899998922405766
    vertex 66.97304106681653 30.357034405346326 9.899998922405766
  endloop
endfacet
facet normal 0.0 -1.0 0.0
  outer loop
    vertex 66.97304106681653 30.357034405346326 9.899998922405766
    vertex 75.91183059515643 30.357034405346326 7.899998922405766
    vertex 75.91183059515643 30.357034405346326 9.899998922405766
  endloop
endfacet
facet normal 0.0 -1.0 0.0
  outer loop
    vertex 40.555300019372126 30.357034405346326 -1.0775942354157575e-06
    vertex 49.183241066816514 30.357034405346326 1.4999989224057646
    vertex 40.555300019372126 30.357034405346326 7.899998922405766
  endloop
endfacet
facet normal 0.0 -1.0 0.0
  outer loop
    vertex 49.183241066816514 30.357034405346326 1.4999989224057646
    vertex 40.555300019372126 30.357034405346326 -1.0775942354157575e-06
    vertex 66.97304106681653 30.357034405346326 1.4999989224057646
  endloop
endfacet
facet normal 0.0 -1.0 0.0
  outer loop
    vertex 40.555300019372126 30.357034405346326 7.899998922405766
    vertex 49.183241066816514 30.357034405346326 1.4999989224057646
    vertex 49.183241066816514 30.357034405346326 9.899998922405766
  endloop
endfacet
facet normal 0.0 -1.0 0.0
  outer loop
    vertex 40.555300019372126 30.357034405346326 7.899998922405766
    vertex 49.183241066816514 30.357034405346326 9.899998922405766
    vertex 40.555300019372126 30.357034405346326 9.899998922405766
  endloop
endfacet
facet normal 1.0 0.0 0.0
  outer loop
    vertex 40.555300019372126 30.357034405346326 -1.0775942354157575e-06
    vertex 40.555300019372126 -2.114974861910923e-15 7.899998922405766
    vertex 40.555300019372126 -2.114974861910923e-15 -1.0775942354157575e-06
  endloop
endfacet
facet normal 1.0 0.0 0.0
  outer loop
    vertex 40.555300019372126 -2.114974861910923e-15 7.899998922405766
    vertex 40.555300019372126 30.357034405346326 -1.0775942354157575e-06
    vertex 40.555300019372126 30.357034405346326 7.899998922405766
  endloop
endfacet
facet normal -7.975800896254489e-17 1.0 0.0
  outer loop
    vertex 40.555300019372126 -2.114974861910923e-15 7.899998922405766
    vertex 75.91183059515643 7.049916206369744e-16 -1.0775942354157575e-06
    vertex 40.555300019372126 -2.114974861910923e-15 -1.0775942354157575e-06
  endloop
endfacet
facet normal -7.975800896254489e-17 1.0 0.0
  outer loop
    vertex 75.91183059515643 7.049916206369744e-16 -1.0775942354157575e-06
    vertex 40.555300019372126 -2.114974861910923e-15 7.899998922405766
    vertex 75.91183059515643 7.049916206369744e-16 7.899998922405766
  endloop
endfacet
facet normal -7.975800896254489e-17 1.0 0.0
  outer loop
    vertex 75.91183059515643 7.049916206369744e-16 7.899998922405766
    vertex 40.555300019372126 -2.114974861910923e-15 7.899998922405766
    vertex 40.555300019372126 -2.114974861910923e-15 9.899998922405766
  endloop
endfacet
facet normal -7.975800896254489e-17 1.0 0.0
  outer loop
    vertex 75.91183059515643 7.049916206369744e-16 7.899998922405766
    vertex 40.555300019372126 -2.114974861910923e-15 9.899998922405766
    vertex 75.91183059515643 7.049916206369744e-16 9.899998922405766
  endloop
endfacet
facet normal 0.0 0.0 -1.0
  outer loop
    vertex 77.91183059515643 32.357034405346326 -2.000001077594235
    vertex 38.55530001937213 -2.0000000000000018 -2.000001077594235
    vertex 38.55530001937213 32.357034405346326 -2.000001077594235
  endloop
endfacet
facet normal 0.0 0.0 -1.0
  outer loop
    vertex 38.55530001937213 -2.0000000000000018 -2.000001077594235
    vertex 77.91183059515643 32.357034405346326 -2.000001077594235
    vertex 77.91183059515643 -1.9999999999999991 -2.000001077594235
  endloop
endfacet
facet normal 5.425458830382125e-17 1.0 -8.057047092993993e-16
  outer loop
    vertex 38.55530001937213 32.357034405346326 -2.000001077594235
    vertex 49.183241066816514 32.35703440534634 1.4999989224057646
    vertex 77.91183059515643 32.357034405346326 -2.000001077594235
  endloop
endfacet
facet normal 5.425458830382125e-17 1.0 -8.057047092993993e-16
  outer loop
    vertex 49.183241066816514 32.35703440534634 1.4999989224057646
    vertex 38.55530001937213 32.357034405346326 -2.000001077594235
    vertex 38.55530001937213 32.357034405346326 9.899998922405766
  endloop
endfacet
facet normal 5.425458830382125e-17 1.0 -8.057047092993993e-16
  outer loop
    vertex 49.183241066816514 32.35703440534634 1.4999989224057646
    vertex 38.55530001937213 32.357034405346326 9.899998922405766
    vertex 49.183241066816514 32.35703440534634 9.899998922405766
  endloop
endfacet
facet normal 5.425458830382125e-17 1.0 -8.057047092993993e-16
  outer loop
    vertex 77.91183059515643 32.357034405346326 -2.000001077594235
    vertex 66.97304106681653 32.357034405346326 1.4999989224057646
    vertex 77.91183059515643 32.357034405346326 9.899998922405766
  endloop
endfacet
facet normal 5.425458830382125e-17 1.0 -8.057047092993993e-16
  outer loop
    vertex 66.97304106681653 32.357034405346326 1.4999989224057646
    vertex 77.91183059515643 32.357034405346326 -2.000001077594235
    vertex 49.183241066816514 32.35703440534634 1.4999989224057646
  endloop
endfacet
facet normal 5.425458830382125e-17 1.0 -8.057047092993993e-16
  outer loop
    vertex 77.91183059515643 32.357034405346326 9.899998922405766
    vertex 66.97304106681653 32.357034405346326 1.4999989224057646
    vertex 66.97304106681653 32.357034405346326 9.899998922405766
  endloop
endfacet
facet normal 1.0 0.0 0.0
  outer loop
    vertex 71.56854933543262 28.325777485853077 -1.0000010775942354
    vertex 71.56854933543262 12.459077485853076 -1.0775942354157575e-06
    vertex 71.56854933543262 12.459077485853076 -1.0000010775942354
  endloop
endfacet
facet normal 1.0 0.0 0.0
  outer loop
    vertex 71.56854933543262 12.459077485853076 -1.0775942354157575e-06
    vertex 71.56854933543262 28.325777485853077 -1.0000010775942354
    vertex 71.56854933543262 28.325777485853077 -1.0775942354157575e-06
  endloop
endfacet
facet normal 0.0 -1.0 0.0
  outer loop
    vertex 74.77724933543266 28.325777485853077 -1.0775942354157575e-06
    vertex 71.56854933543262 28.325777485853077 -1.0000010775942354
    vertex 74.77724933543266 28.325777485853077 -1.0000010775942354
  endloop
endfacet
facet normal 0.0 -1.0 0.0
  outer loop
    vertex 71.56854933543262 28.325777485853077 -1.0000010775942354
    vertex 74.77724933543266 28.325777485853077 -1.0775942354157575e-06
    vertex 71.56854933543262 28.325777485853077 -1.0775942354157575e-06
  endloop
endfacet
facet normal 1.0 0.0 0.0
  outer loop
    vertex 43.276902038264026 4.863803672588526 -1.0000010775942354
    vertex 43.276902038264026 1.8440036725885258 -1.0775942354157575e-06
    vertex 43.276902038264026 1.8440036725885258 -1.0000010775942354
  endloop
endfacet
facet normal 1.0 0.0 0.0
  outer loop
    vertex 43.276902038264026 1.8440036725885258 -1.0775942354157575e-06
    vertex 43.276902038264026 4.863803672588526 -1.0000010775942354
    vertex 43.276902038264026 4.863803672588526 -1.0775942354157575e-06
  endloop
endfacet
facet normal 0.0 1.0 0.0
  outer loop
    vertex 71.56854933543262 12.459077485853076 -1.0775942354157575e-06
    vertex 74.77724933543266 12.459077485853076 -1.0000010775942354
    vertex 71.56854933543262 12.459077485853076 -1.0000010775942354
  endloop
endfacet
facet normal 0.0 1.0 0.0
  outer loop
    vertex 74.77724933543266 12.459077485853076 -1.0000010775942354
    vertex 71.56854933543262 12.459077485853076 -1.0775942354157575e-06
    vertex 74.77724933543266 12.459077485853076 -1.0775942354157575e-06
  endloop
endfacet
facet normal -1.0 0.0 0.0
  outer loop
    vertex 74.77724933543266 28.325777485853077 -1.0775942354157575e-06
    vertex 74.77724933543266 12.459077485853076 -1.0000010775942354
    vertex 74.77724933543266 12.459077485853076 -1.0775942354157575e-06
  endloop
endfacet
facet normal -1.0 0.0 0.0
  outer loop
    vertex 74.77724933543266 12.459077485853076 -1.0000010775942354
    vertex 74.77724933543266 28.325777485853077 -1.0775942354157575e-06
    vertex 74.77724933543266 28.325777485853077 -1.0000010775942354
  endloop
endfacet
facet normal -1.0 0.0 0.0
  outer loop
    vertex 56.42230203826404 4.863803672588526 -1.0775942354157575e-06
    vertex 56.42230203826404 1.8440036725885258 -1.0000010775942354
    vertex 56.42230203826404 1.8440036725885258 -1.0775942354157575e-06
  endloop
endfacet
facet normal -1.0 0.0 0.0
  outer loop
    vertex 56.42230203826404 1.8440036725885258 -1.0000010775942354
    vertex 56.42230203826404 4.863803672588526 -1.0775942354157575e-06
    vertex 56.42230203826404 4.863803672588526 -1.0000010775942354
  endloop
endfacet
facet normal 0.0 1.0 0.0
  outer loop
    vertex 43.276902038264026 1.8440036725885258 -1.0775942354157575e-06
    vertex 56.42230203826404 1.8440036725885258 -1.0000010775942354
    vertex 43.276902038264026 1.8440036725885258 -1.0000010775942354
  endloop
endfacet
facet normal 0.0 1.0 0.0
  outer loop
    vertex 56.42230203826404 1.8440036725885258 -1.0000010775942354
    vertex 43.276902038264026 1.8440036725885258 -1.0775942354157575e-06
    vertex 56.42230203826404 1.8440036725885258 -1.0775942354157575e-06
  endloop
endfacet
facet normal 0.0 0.0 1.0
  outer loop
    vertex 74.77724933543266 12.459077485853076 -1.0000010775942354
    vertex 71.56854933543262 28.325777485853077 -1.0000010775942354
    vertex 71.56854933543262 12.459077485853076 -1.0000010775942354
  endloop
endfacet
facet normal 0.0 0.0 1.0
  outer loop
    vertex 71.56854933543262 28.325777485853077 -1.0000010775942354
    vertex 74.77724933543266 12.459077485853076 -1.0000010775942354
    vertex 74.77724933543266 28.325777485853077 -1.0000010775942354
  endloop
endfacet
facet normal 0.0 -1.0 0.0
  outer loop
    vertex 56.42230203826404 4.863803672588526 -1.0775942354157575e-06
    vertex 43.276902038264026 4.863803672588526 -1.0000010775942354
    vertex 56.42230203826404 4.863803672588526 -1.0000010775942354
  endloop
endfacet
facet normal 0.0 -1.0 0.0
  outer loop
    vertex 43.276902038264026 4.863803672588526 -1.0000010775942354
    vertex 56.42230203826404 4.863803672588526 -1.0775942354157575e-06
    vertex 43.276902038264026 4.863803672588526 -1.0775942354157575e-06
  endloop
endfacet
facet normal -1.0 0.0 0.0
  outer loop
    vertex 74.84530001937212 11.305000000000007 -1.0775942354157575e-06
    vertex 74.84530001937212 1.1449999999999991 -1.0000010775942354
    vertex 74.84530001937212 1.1449999999999991 -1.0775942354157575e-06
  endloop
endfacet
facet normal -1.0 0.0 0.0
  outer loop
    vertex 74.84530001937212 1.1449999999999991 -1.0000010775942354
    vertex 74.84530001937212 11.305000000000007 -1.0775942354157575e-06
    vertex 74.84530001937212 11.305000000000007 -1.0000010775942354
  endloop
endfacet
facet normal 0.0 0.0 1.0
  outer loop
    vertex 74.84530001937212 1.1449999999999991 -1.0000010775942354
    vertex 58.33530001937206 11.305000000000007 -1.0000010775942354
    vertex 58.33530001937206 1.1449999999999991 -1.0000010775942354
  endloop
endfacet
facet normal 0.0 0.0 1.0
  outer loop
    vertex 58.33530001937206 11.305000000000007 -1.0000010775942354
    vertex 74.84530001937212 1.1449999999999991 -1.0000010775942354
    vertex 74.84530001937212 11.305000000000007 -1.0000010775942354
  endloop
endfacet
facet normal 1.0 0.0 0.0
  outer loop
    vertex 58.33530001937206 11.305000000000007 -1.0000010775942354
    vertex 58.33530001937206 1.1449999999999991 -1.0775942354157575e-06
    vertex 58.33530001937206 1.1449999999999991 -1.0000010775942354
  endloop
endfacet
facet normal 1.0 0.0 0.0
  outer loop
    vertex 58.33530001937206 1.1449999999999991 -1.0775942354157575e-06
    vertex 58.33530001937206 11.305000000000007 -1.0000010775942354
    vertex 58.33530001937206 11.305000000000007 -1.0775942354157575e-06
  endloop
endfacet
facet normal 0.0 -1.0 0.0
  outer loop
    vertex 74.84530001937212 11.305000000000007 -1.0775942354157575e-06
    vertex 58.33530001937206 11.305000000000007 -1.0000010775942354
    vertex 74.84530001937212 11.305000000000007 -1.0000010775942354
  endloop
endfacet
facet normal 0.0 -1.0 0.0
  outer loop
    vertex 58.33530001937206 11.305000000000007 -1.0000010775942354
    vertex 74.84530001937212 11.305000000000007 -1.0775942354157575e-06
    vertex 58.33530001937206 11.305000000000007 -1.0775942354157575e-06
  endloop
endfacet
facet normal 0.0 1.0 0.0
  outer loop
    vertex 58.33530001937206 1.1449999999999991 -1.0775942354157575e-06
    vertex 74.84530001937212 1.1449999999999991 -1.0000010775942354
    vertex 58.33530001937206 1.1449999999999991 -1.0000010775942354
  endloop
endfacet
facet normal 0.0 1.0 0.0
  outer loop
    vertex 74.84530001937212 1.1449999999999991 -1.0000010775942354
    vertex 58.33530001937206 1.1449999999999991 -1.0775942354157575e-06
    vertex 74.84530001937212 1.1449999999999991 -1.0775942354157575e-06
  endloop
endfacet
facet normal 0.0 0.0 1.0
  outer loop
    vertex 56.42230203826404 1.8440036725885258 -1.0000010775942354
    vertex 43.276902038264026 4.863803672588526 -1.0000010775942354
    vertex 43.276902038264026 1.8440036725885258 -1.0000010775942354
  endloop
endfacet
facet normal 0.0 0.0 1.0
  outer loop
    vertex 43.276902038264026 4.863803672588526 -1.0000010775942354
    vertex 56.42230203826404 1.8440036725885258 -1.0000010775942354
    vertex 56.42230203826404 4.863803672588526 -1.0000010775942354
  endloop
endfacet
facet normal 0.0 0.0 1.0
  outer loop
    vertex 38.55530001937213 -2.0000000000000018 9.899998922405766
    vertex 40.055300019372105 -2.114974861910923e-15 9.899998922405766
    vertex 38.55530001937213 32.357034405346326 9.899998922405766
  endloop
endfacet
facet normal 0.0 0.0 1.0
  outer loop
    vertex 40.055300019372105 -2.114974861910923e-15 9.899998922405766
    vertex 38.55530001937213 -2.0000000000000018 9.899998922405766
    vertex 77.91183059515643 -1.9999999999999991 9.899998922405766
  endloop
endfacet
facet normal 0.0 0.0 1.0
  outer loop
    vertex 40.055300019372105 -2.114974861910923e-15 9.899998922405766
    vertex 77.91183059515643 -1.9999999999999991 9.899998922405766
    vertex 40.555300019372126 -2.114974861910923e-15 9.899998922405766
  endloop
endfacet
facet normal 0.0 0.0 1.0
  outer loop
    vertex 40.555300019372126 -2.114974861910923e-15 9.899998922405766
    vertex 77.91183059515643 -1.9999999999999991 9.899998922405766
    vertex 75.91183059515643 7.049916206369744e-16 9.899998922405766
  endloop
endfacet
facet normal 0.0 0.0 1.0
  outer loop
    vertex 75.91183059515643 7.049916206369744e-16 9.899998922405766
    vertex 77.91183059515643 -1.9999999999999991 9.899998922405766
    vertex 76.41183059515642 7.049916206369744e-16 9.899998922405766
  endloop
endfacet
facet normal 0.0 0.0 1.0
  outer loop
    vertex 76.41183059515642 7.049916206369744e-16 9.899998922405766
    vertex 77.91183059515643 -1.9999999999999991 9.899998922405766
    vertex 76.41183059515642 30.357034405346326 9.899998922405766
  endloop
endfacet
facet normal 0.0 0.0 1.0
  outer loop
    vertex 75.91183059515643 30.357034405346326 9.899998922405766
    vertex 66.97304106681653 32.357034405346326 9.899998922405766
    vertex 66.97304106681653 30.357034405346326 9.899998922405766
  endloop
endfacet
facet normal 0.0 0.0 1.0
  outer loop
    vertex 66.97304106681653 32.357034405346326 9.899998922405766
    vertex 75.91183059515643 30.357034405346326 9.899998922405766
    vertex 77.91183059515643 32.357034405346326 9.899998922405766
  endloop
endfacet
facet normal 0.0 0.0 1.0
  outer loop
    vertex 77.91183059515643 32.357034405346326 9.899998922405766
    vertex 75.91183059515643 30.357034405346326 9.899998922405766
    vertex 76.41183059515642 30.357034405346326 9.899998922405766
  endloop
endfacet
facet normal 0.0 0.0 1.0
  outer loop
    vertex 77.91183059515643 32.357034405346326 9.899998922405766
    vertex 76.41183059515642 30.357034405346326 9.899998922405766
    vertex 77.91183059515643 -1.9999999999999991 9.899998922405766
  endloop
endfacet
facet normal 0.0 0.0 1.0
  outer loop
    vertex 38.55530001937213 32.357034405346326 9.899998922405766
    vertex 40.055300019372105 30.357034405346326 9.899998922405766
    vertex 49.183241066816514 32.35703440534634 9.899998922405766
  endloop
endfacet
facet normal 0.0 0.0 1.0
  outer loop
    vertex 40.055300019372105 30.357034405346326 9.899998922405766
    vertex 38.55530001937213 32.357034405346326 9.899998922405766
    vertex 40.055300019372105 -2.114974861910923e-15 9.899998922405766
  endloop
endfacet
facet normal 0.0 0.0 1.0
  outer loop
    vertex 49.183241066816514 32.35703440534634 9.899998922405766
    vertex 40.055300019372105 30.357034405346326 9.899998922405766
    vertex 40.555300019372126 30.357034405346326 9.899998922405766
  endloop
endfacet
facet normal 0.0 0.0 1.0
  outer loop
    vertex 49.183241066816514 32.35703440534634 9.899998922405766
    vertex 40.555300019372126 30.357034405346326 9.899998922405766
    vertex 49.183241066816514 30.357034405346326 9.899998922405766
  endloop
endfacet
facet normal -0.0 -1.0 -0.0
  outer loop
    vertex 76.41183059515642 30.357034405346326 9.899998922405766
    vertex 75.91183059515643 30.357034405346326 7.899998922405766
    vertex 76.41183059515642 30.357034405346326 7.899998922405766
  endloop
endfacet
facet normal -0.0 -1.0 -0.0
  outer loop
    vertex 75.91183059515643 30.357034405346326 7.899998922405766
    vertex 76.41183059515642 30.357034405346326 9.899998922405766
    vertex 75.91183059515643 30.357034405346326 9.899998922405766
  endloop
endfacet
facet normal -3.9879004481271546e-17 1.0 0.0
  outer loop
    vertex 75.91183059515643 7.049916206369744e-16 9.899998922405766
    vertex 76.41183059515642 7.049916206369744e-16 7.899998922405766
    vertex 75.91183059515643 7.049916206369744e-16 7.899998922405766
  endloop
endfacet
facet normal -3.9879004481271546e-17 1.0 0.0
  outer loop
    vertex 76.41183059515642 7.049916206369744e-16 7.899998922405766
    vertex 75.91183059515643 7.049916206369744e-16 9.899998922405766
    vertex 76.41183059515642 7.049916206369744e-16 9.899998922405766
  endloop
endfacet
facet normal 0.0 0.0 1.0
  outer loop
    vertex 76.41183059515642 7.049916206369744e-16 7.899998922405766
    vertex 75.91183059515643 30.357034405346326 7.899998922405766
    vertex 75.91183059515643 7.049916206369744e-16 7.899998922405766
  endloop
endfacet
facet normal 0.0 0.0 1.0
  outer loop
    vertex 75.91183059515643 30.357034405346326 7.899998922405766
    vertex 76.41183059515642 7.049916206369744e-16 7.899998922405766
    vertex 76.41183059515642 30.357034405346326 7.899998922405766
  endloop
endfacet
facet normal -1.0 0.0 0.0
  outer loop
    vertex 76.41183059515642 30.357034405346326 9.899998922405766
    vertex 76.41183059515642 7.049916206369744e-16 7.899998922405766
    vertex 76.41183059515642 7.049916206369744e-16 9.899998922405766
  endloop
endfacet
facet normal -1.0 0.0 0.0
  outer loop
    vertex 76.41183059515642 7.049916206369744e-16 7.899998922405766
    vertex 76.41183059515642 30.357034405346326 9.899998922405766
    vertex 76.41183059515642 30.357034405346326 7.899998922405766
  endloop
endfacet
facet normal -1.0 -0.0 -0.0
  outer loop
    vertex 75.91183059515643 30.357034405346326 7.899998922405766
    vertex 75.91183059515643 7.049916206369744e-16 -1.0775942354157575e-06
    vertex 75.91183059515643 7.049916206369744e-16 7.899998922405766
  endloop
endfacet
facet normal -1.0 -0.0 -0.0
  outer loop
    vertex 75.91183059515643 7.049916206369744e-16 -1.0775942354157575e-06
    vertex 75.91183059515643 30.357034405346326 7.899998922405766
    vertex 75.91183059515643 30.357034405346326 -1.0775942354157575e-06
  endloop
endfacet
facet normal 0.0 0.0 1.0
  outer loop
    vertex 74.84530001937212 11.305000000000007 -1.0775942354157575e-06
    vertex 71.56854933543262 12.459077485853076 -1.0775942354157575e-06
    vertex 58.33530001937206 11.305000000000007 -1.0775942354157575e-06
  endloop
endfacet
facet normal 0.0 0.0 1.0
  outer loop
    vertex 71.56854933543262 12.459077485853076 -1.0775942354157575e-06
    vertex 74.84530001937212 11.305000000000007 -1.0775942354157575e-06
    vertex 74.77724933543266 12.459077485853076 -1.0775942354157575e-06
  endloop
endfacet
facet normal 0.0 0.0 1.0
  outer loop
    vertex 74.77724933543266 12.459077485853076 -1.0775942354157575e-06
    vertex 74.84530001937212 11.305000000000007 -1.0775942354157575e-06
    vertex 74.77724933543266 28.325777485853077 -1.0775942354157575e-06
  endloop
endfacet
facet normal 0.0 0.0 1.0
  outer loop
    vertex 40.555300019372126 -2.114974861910923e-15 -1.0775942354157575e-06
    vertex 43.276902038264026 1.8440036725885258 -1.0775942354157575e-06
    vertex 40.555300019372126 30.357034405346326 -1.0775942354157575e-06
  endloop
endfacet
facet normal 0.0 0.0 1.0
  outer loop
    vertex 43.276902038264026 1.8440036725885258 -1.0775942354157575e-06
    vertex 40.555300019372126 -2.114974861910923e-15 -1.0775942354157575e-06
    vertex 75.91183059515643 7.049916206369744e-16 -1.0775942354157575e-06
  endloop
endfacet
facet normal 0.0 0.0 1.0
  outer loop
    vertex 43.276902038264026 1.8440036725885258 -1.0775942354157575e-06
    vertex 75.91183059515643 7.049916206369744e-16 -1.0775942354157575e-06
    vertex 58.33530001937206 1.1449999999999991 -1.0775942354157575e-06
  endloop
endfacet
facet normal 0.0 0.0 1.0
  outer loop
    vertex 43.276902038264026 1.8440036725885258 -1.0775942354157575e-06
    vertex 58.33530001937206 1.1449999999999991 -1.0775942354157575e-06
    vertex 56.42230203826404 1.8440036725885258 -1.0775942354157575e-06
  endloop
endfacet
facet normal 0.0 0.0 1.0
  outer loop
    vertex 56.42230203826404 1.8440036725885258 -1.0775942354157575e-06
    vertex 58.33530001937206 1.1449999999999991 -1.0775942354157575e-06
    vertex 56.42230203826404 4.863803672588526 -1.0775942354157575e-06
  endloop
endfacet
facet normal 0.0 0.0 1.0
  outer loop
    vertex 58.33530001937206 1.1449999999999991 -1.0775942354157575e-06
    vertex 75.91183059515643 7.049916206369744e-16 -1.0775942354157575e-06
    vertex 74.84530001937212 1.1449999999999991 -1.0775942354157575e-06
  endloop
endfacet
facet normal 0.0 0.0 1.0
  outer loop
    vertex 74.84530001937212 1.1449999999999991 -1.0775942354157575e-06
    vertex 75.91183059515643 7.049916206369744e-16 -1.0775942354157575e-06
    vertex 74.84530001937212 11.305000000000007 -1.0775942354157575e-06
  endloop
endfacet
facet normal 0.0 0.0 1.0
  outer loop
    vertex 40.555300019372126 30.357034405346326 -1.0775942354157575e-06
    vertex 71.56854933543262 28.325777485853077 -1.0775942354157575e-06
    vertex 75.91183059515643 30.357034405346326 -1.0775942354157575e-06
  endloop
endfacet
facet normal 0.0 0.0 1.0
  outer loop
    vertex 71.56854933543262 28.325777485853077 -1.0775942354157575e-06
    vertex 40.555300019372126 30.357034405346326 -1.0775942354157575e-06
    vertex 43.276902038264026 4.863803672588526 -1.0775942354157575e-06
  endloop
endfacet
facet normal 0.0 0.0 1.0
  outer loop
    vertex 43.276902038264026 4.863803672588526 -1.0775942354157575e-06
    vertex 40.555300019372126 30.357034405346326 -1.0775942354157575e-06
    vertex 43.276902038264026 1.8440036725885258 -1.0775942354157575e-06
  endloop
endfacet
facet normal 0.0 0.0 1.0
  outer loop
    vertex 71.56854933543262 28.325777485853077 -1.0775942354157575e-06
    vertex 43.276902038264026 4.863803672588526 -1.0775942354157575e-06
    vertex 58.33530001937206 11.305000000000007 -1.0775942354157575e-06
  endloop
endfacet
facet normal 0.0 0.0 1.0
  outer loop
    vertex 58.33530001937206 11.305000000000007 -1.0775942354157575e-06
    vertex 43.276902038264026 4.863803672588526 -1.0775942354157575e-06
    vertex 56.42230203826404 4.863803672588526 -1.0775942354157575e-06
  endloop
endfacet
facet normal 0.0 0.0 1.0
  outer loop
    vertex 58.33530001937206 11.305000000000007 -1.0775942354157575e-06
    vertex 56.42230203826404 4.863803672588526 -1.0775942354157575e-06
    vertex 58.33530001937206 1.1449999999999991 -1.0775942354157575e-06
  endloop
endfacet
facet normal 0.0 0.0 1.0
  outer loop
    vertex 71.56854933543262 28.325777485853077 -1.0775942354157575e-06
    vertex 58.33530001937206 11.305000000000007 -1.0775942354157575e-06
    vertex 71.56854933543262 12.459077485853076 -1.0775942354157575e-06
  endloop
endfacet
facet normal 0.0 0.0 1.0
  outer loop
    vertex 75.91183059515643 30.357034405346326 -1.0775942354157575e-06
    vertex 71.56854933543262 28.325777485853077 -1.0775942354157575e-06
    vertex 74.77724933543266 28.325777485853077 -1.0775942354157575e-06
  endloop
endfacet
facet normal 0.0 0.0 1.0
  outer loop
    vertex 75.91183059515643 30.357034405346326 -1.0775942354157575e-06
    vertex 74.77724933543266 28.325777485853077 -1.0775942354157575e-06
    vertex 74.84530001937212 11.305000000000007 -1.0775942354157575e-06
  endloop
endfacet
facet normal 0.0 0.0 1.0
  outer loop
    vertex 75.91183059515643 30.357034405346326 -1.0775942354157575e-06
    vertex 74.84530001937212 11.305000000000007 -1.0775942354157575e-06
    vertex 75.91183059515643 7.049916206369744e-16 -1.0775942354157575e-06
  endloop
endfacet
facet normal 0.0 0.0 1.0
  outer loop
    vertex 66.97304106681653 30.357034405346326 1.4999989224057646
    vertex 49.183241066816514 32.35703440534634 1.4999989224057646
    vertex 49.183241066816514 30.357034405346326 1.4999989224057646
  endloop
endfacet
facet normal 0.0 0.0 1.0
  outer loop
    vertex 49.183241066816514 32.35703440534634 1.4999989224057646
    vertex 66.97304106681653 30.357034405346326 1.4999989224057646
    vertex 66.97304106681653 32.357034405346326 1.4999989224057646
  endloop
endfacet
facet normal -0.0 -1.0 -0.0
  outer loop
    vertex 40.555300019372126 30.357034405346326 9.899998922405766
    vertex 40.055300019372105 30.357034405346326 7.899998922405766
    vertex 40.555300019372126 30.357034405346326 7.899998922405766
  endloop
endfacet
facet normal -0.0 -1.0 -0.0
  outer loop
    vertex 40.055300019372105 30.357034405346326 7.899998922405766
    vertex 40.555300019372126 30.357034405346326 9.899998922405766
    vertex 40.055300019372105 30.357034405346326 9.899998922405766
  endloop
endfacet
facet normal 0.0 0.0 1.0
  outer loop
    vertex 40.555300019372126 -2.114974861910923e-15 7.899998922405766
    vertex 40.055300019372105 30.357034405346326 7.899998922405766
    vertex 40.055300019372105 -2.114974861910923e-15 7.899998922405766
  endloop
endfacet
facet normal 0.0 0.0 1.0
  outer loop
    vertex 40.055300019372105 30.357034405346326 7.899998922405766
    vertex 40.555300019372126 -2.114974861910923e-15 7.899998922405766
    vertex 40.555300019372126 30.357034405346326 7.899998922405766
  endloop
endfacet
facet normal 1.0 0.0 0.0
  outer loop
    vertex 40.055300019372105 30.357034405346326 7.899998922405766
    vertex 40.055300019372105 -2.114974861910923e-15 9.899998922405766
    vertex 40.055300019372105 -2.114974861910923e-15 7.899998922405766
  endloop
endfacet
facet normal 1.0 0.0 0.0
  outer loop
    vertex 40.055300019372105 -2.114974861910923e-15 9.899998922405766
    vertex 40.055300019372105 30.357034405346326 7.899998922405766
    vertex 40.055300019372105 30.357034405346326 9.899998922405766
  endloop
endfacet
facet normal -3.987900448127264e-17 1.0 0.0
  outer loop
    vertex 40.055300019372105 -2.114974861910923e-15 9.899998922405766
    vertex 40.555300019372126 -2.114974861910923e-15 7.899998922405766
    vertex 40.055300019372105 -2.114974861910923e-15 7.899998922405766
  endloop
endfacet
facet normal -3.987900448127264e-17 1.0 0.0
  outer loop
    vertex 40.555300019372126 -2.114974861910923e-15 7.899998922405766
    vertex 40.055300019372105 -2.114974861910923e-15 9.899998922405766
    vertex 40.555300019372126 -2.114974861910923e-15 9.899998922405766
  endloop
endfacet
endsolid case.1.0
