  0
SECTION
  2
HEADER
  9
$ANGBASE
  50
0.0
  9
$ANGDIR
  70
1
  9
$MEASUREMENT
  70
1
  0
ENDSEC
  0
SECTION
  2
TABLES
  0
TABLE
  2
LTYPE
  70
4
  0
LTYPE
  5
40F
  2
CONTINUOUS
  70
0
  3
Solid line
  72
65
  73
0
  40
0.0
  0
LTYPE
  5
410
  2
DASHDOT
 70
0
  3
Dash Dot ____ _ ____ _
 72
65
 73
4
 40
2.0
 49
1.25
 49
-0.25
 49
0.25
 49
-0.25
  0
LTYPE
  5
411
  2
DASHED
 70
0
  3
Dashed __ __ __ __ __
 72
65
 73
2
 40
0.75
 49
0.5
 49
-0.25
  0
LTYPE
  5
43B
  2
DOTTED
 70
0
  3
Dotted .  .  .  .
 72
65
 73
2
 40
0.2
 49
0.0
 49
-0.2
  0
ENDTAB
  0
TABLE
  2
STYLE
  70
4
  0
STYLE
  2
KICAD
  70
0
  40
0
  41
1
  42
1
  50
0
  71
0
  3
isocp.shx
  0
STYLE
  2
KICADB
  70
0
  40
0
  41
1
  42
1
  50
0
  71
0
  3
isocp.shx
  0
STYLE
  2
KICADI
  70
0
  40
0
  41
1
  42
1
  50
15
  71
0
  3
isocp.shx
  0
STYLE
  2
KICADBI
  70
0
  40
0
  41
1
  42
1
  50
15
  71
0
  3
isocp.shx
  0
ENDTAB
  0
TABLE
  2
LAYER
  70
1
  0
LAYER
  2
BLACK
  70
0
  62
7
  6
CONTINUOUS
  0
ENDTAB
  0
ENDSEC
  0
SECTION
  2
ENTITIES
0
LINE
8
BLACK
6
CONTINUOUS
10
124.840999999999994
20
-70.2049999999999983
11
159.8409999999999798
21
-70.2049999999999983
0
LINE
8
BLACK
6
CONTINUOUS
10
159.8409999999999798
20
-70.2049999999999983
11
159.8409999999999798
21
-100.2049999999999983
0
LINE
8
BLACK
6
CONTINUOUS
10
159.8409999999999798
20
-100.2049999999999983
11
124.840999999999994
21
-100.2049999999999983
0
LINE
8
BLACK
6
CONTINUOUS
10
124.840999999999994
20
-100.2049999999999983
11
124.840999999999994
21
-70.2049999999999983
0
LINE
8
BLACK
6
CONTINUOUS
10
126.9476659999999981
20
-72.0710329999999999
11
126.5476659999999924
21
-72.0710329999999999
0
LINE
8
BLACK
6
CONTINUOUS
10
126.7476659999999953
20
-72.0710329999999999
11
126.7476659999999953
21
-71.3710329999999971
0
LINE
8
BLACK
6
CONTINUOUS
10
126.7476659999999953
20
-71.3710329999999971
11
126.6809989999999999
21
-71.4710329999999914
0
LINE
8
BLACK
6
CONTINUOUS
10
126.6809989999999999
20
-71.4710329999999914
11
126.6143329999999878
21
-71.537700000000001
0
LINE
8
BLACK
6
CONTINUOUS
10
126.6143329999999878
20
-71.537700000000001
11
126.5476659999999924
21
-71.5710329999999999
0
LINE
8
BLACK
6
CONTINUOUS
10
127.3810000000000002
20
-71.3710329999999971
11
127.4476659999999981
21
-71.3710329999999971
0
LINE
8
BLACK
6
CONTINUOUS
10
127.4476659999999981
20
-71.3710329999999971
11
127.5143329999999935
21
-71.404365999999996
0
LINE
8
BLACK
6
CONTINUOUS
10
127.5143329999999935
20
-71.404365999999996
11
127.5476659999999924
21
-71.4376999999999924
0
LINE
8
BLACK
6
CONTINUOUS
10
127.5476659999999924
20
-71.4376999999999924
11
127.5809999999999889
21
-71.5043659999999903
0
LINE
8
BLACK
6
CONTINUOUS
10
127.5809999999999889
20
-71.5043659999999903
11
127.6143329999999878
21
-71.6376999999999953
0
LINE
8
BLACK
6
CONTINUOUS
10
127.6143329999999878
20
-71.6376999999999953
11
127.6143329999999878
21
-71.8043660000000017
0
LINE
8
BLACK
6
CONTINUOUS
10
127.6143329999999878
20
-71.8043660000000017
11
127.5809999999999889
21
-71.9376999999999924
0
LINE
8
BLACK
6
CONTINUOUS
10
127.5809999999999889
20
-71.9376999999999924
11
127.5476659999999924
21
-72.0043659999999903
0
LINE
8
BLACK
6
CONTINUOUS
10
127.5476659999999924
20
-72.0043659999999903
11
127.5143329999999935
21
-72.037700000000001
0
LINE
8
BLACK
6
CONTINUOUS
10
127.5143329999999935
20
-72.037700000000001
11
127.4476659999999981
21
-72.0710329999999999
0
LINE
8
BLACK
6
CONTINUOUS
10
127.4476659999999981
20
-72.0710329999999999
11
127.3810000000000002
21
-72.0710329999999999
0
LINE
8
BLACK
6
CONTINUOUS
10
127.3810000000000002
20
-72.0710329999999999
11
127.3143329999999906
21
-72.037700000000001
0
LINE
8
BLACK
6
CONTINUOUS
10
127.3143329999999906
20
-72.037700000000001
11
127.2809999999999917
21
-72.0043659999999903
0
LINE
8
BLACK
6
CONTINUOUS
10
127.2809999999999917
20
-72.0043659999999903
11
127.2476659999999953
21
-71.9376999999999924
0
LINE
8
BLACK
6
CONTINUOUS
10
127.2476659999999953
20
-71.9376999999999924
11
127.2143329999999963
21
-71.8043660000000017
0
LINE
8
BLACK
6
CONTINUOUS
10
127.2143329999999963
20
-71.8043660000000017
11
127.2143329999999963
21
-71.6376999999999953
0
LINE
8
BLACK
6
CONTINUOUS
10
127.2143329999999963
20
-71.6376999999999953
11
127.2476659999999953
21
-71.5043659999999903
0
LINE
8
BLACK
6
CONTINUOUS
10
127.2476659999999953
20
-71.5043659999999903
11
127.2809999999999917
21
-71.4376999999999924
0
LINE
8
BLACK
6
CONTINUOUS
10
127.2809999999999917
20
-71.4376999999999924
11
127.3143329999999906
21
-71.404365999999996
0
LINE
8
BLACK
6
CONTINUOUS
10
127.3143329999999906
20
-71.404365999999996
11
127.3810000000000002
21
-71.3710329999999971
0
LINE
8
BLACK
6
CONTINUOUS
10
127.9143329999999992
20
-72.0710329999999999
11
127.9143329999999992
21
-71.3710329999999971
0
LINE
8
BLACK
6
CONTINUOUS
10
128.3143330000000049
20
-72.0710329999999999
11
128.0143329999999935
21
-71.6710329999999942
0
LINE
8
BLACK
6
CONTINUOUS
10
128.3143330000000049
20
-71.3710329999999971
11
127.9143329999999992
21
-71.7710330000000027
0
LINE
8
BLACK
6
CONTINUOUS
10
126.8873329999999982
20
-78.6750329999999991
11
126.4873329999999925
21
-78.6750329999999991
0
LINE
8
BLACK
6
CONTINUOUS
10
126.6873329999999953
20
-78.6750329999999991
11
126.6873329999999953
21
-77.9750329999999963
0
LINE
8
BLACK
6
CONTINUOUS
10
126.6873329999999953
20
-77.9750329999999963
11
126.6206659999999999
21
-78.0750329999999906
0
LINE
8
BLACK
6
CONTINUOUS
10
126.6206659999999999
20
-78.0750329999999906
11
126.5539999999999878
21
-78.1417000000000002
0
LINE
8
BLACK
6
CONTINUOUS
10
126.5539999999999878
20
-78.1417000000000002
11
126.4873329999999925
21
-78.1750329999999991
0
LINE
8
BLACK
6
CONTINUOUS
10
127.4873329999999925
20
-78.2083659999999981
11
127.4873329999999925
21
-78.6750329999999991
0
LINE
8
BLACK
6
CONTINUOUS
10
127.1873329999999953
20
-78.2083659999999981
11
127.1873329999999953
21
-78.5750329999999906
0
LINE
8
BLACK
6
CONTINUOUS
10
127.1873329999999953
20
-78.5750329999999906
11
127.2206669999999917
21
-78.6417000000000002
0
LINE
8
BLACK
6
CONTINUOUS
10
127.2206669999999917
20
-78.6417000000000002
11
127.2873329999999896
21
-78.6750329999999991
0
LINE
8
BLACK
6
CONTINUOUS
10
127.2873329999999896
20
-78.6750329999999991
11
127.3873329999999982
21
-78.6750329999999991
0
LINE
8
BLACK
6
CONTINUOUS
10
127.3873329999999982
20
-78.6750329999999991
11
127.4539999999999935
21
-78.6417000000000002
0
LINE
8
BLACK
6
CONTINUOUS
10
127.4539999999999935
20
-78.6417000000000002
11
127.4873329999999925
21
-78.6083659999999895
0
LINE
8
BLACK
6
CONTINUOUS
10
128.054000000000002
20
-78.3083659999999924
11
127.8206659999999886
21
-78.3083659999999924
0
LINE
8
BLACK
6
CONTINUOUS
10
127.8206659999999886
20
-78.6750329999999991
11
127.8206659999999886
21
-77.9750329999999963
0
LINE
8
BLACK
6
CONTINUOUS
10
127.8206659999999886
20
-77.9750329999999963
11
128.1539999999999964
21
-77.9750329999999963
0
LINE
8
BLACK
6
CONTINUOUS
10
149.42581899999999
20
-96.4323809999999924
11
149.42581899999999
21
-96.9085709999999949
0
LINE
8
BLACK
6
CONTINUOUS
10
149.42581899999999
20
-96.9085709999999949
11
148.42581899999999
21
-96.9085709999999949
0
LINE
8
BLACK
6
CONTINUOUS
10
148.7591520000000003
20
-96.1942849999999936
11
149.42581899999999
21
-95.9561899999999923
0
LINE
8
BLACK
6
CONTINUOUS
10
149.42581899999999
20
-95.9561899999999923
11
148.7591520000000003
21
-95.718094999999991
0
LINE
8
BLACK
6
CONTINUOUS
10
149.42581899999999
20
-95.1942849999999936
11
149.3781999999999925
21
-95.2895230000000026
0
LINE
8
BLACK
6
CONTINUOUS
10
149.3781999999999925
20
-95.2895230000000026
11
149.2829610000000002
21
-95.3371420000000001
0
LINE
8
BLACK
6
CONTINUOUS
10
149.2829610000000002
20
-95.3371420000000001
11
148.42581899999999
21
-95.3371420000000001
0
LINE
8
BLACK
6
CONTINUOUS
10
149.5210569999999848
20
-95.0514280000000014
11
149.5210569999999848
21
-94.2895230000000026
0
LINE
8
BLACK
6
CONTINUOUS
10
149.3781999999999925
20
-94.0990460000000013
11
149.42581899999999
21
-93.9561889999999948
0
LINE
8
BLACK
6
CONTINUOUS
10
149.42581899999999
20
-93.9561889999999948
11
149.42581899999999
21
-93.7180939999999936
0
LINE
8
BLACK
6
CONTINUOUS
10
149.42581899999999
20
-93.7180939999999936
11
149.3781999999999925
21
-93.6228559999999987
0
LINE
8
BLACK
6
CONTINUOUS
10
149.3781999999999925
20
-93.6228559999999987
11
149.3305799999999977
21
-93.5752370000000013
0
LINE
8
BLACK
6
CONTINUOUS
10
149.3305799999999977
20
-93.5752370000000013
11
149.2353420000000028
21
-93.5276179999999897
0
LINE
8
BLACK
6
CONTINUOUS
10
149.2353420000000028
20
-93.5276179999999897
11
149.1401039999999796
21
-93.5276179999999897
0
LINE
8
BLACK
6
CONTINUOUS
10
149.1401039999999796
20
-93.5276179999999897
11
149.0448659999999848
21
-93.5752370000000013
0
LINE
8
BLACK
6
CONTINUOUS
10
149.0448659999999848
20
-93.5752370000000013
11
148.9972469999999873
21
-93.6228559999999987
0
LINE
8
BLACK
6
CONTINUOUS
10
148.9972469999999873
20
-93.6228559999999987
11
148.9496279999999899
21
-93.7180939999999936
0
LINE
8
BLACK
6
CONTINUOUS
10
148.9496279999999899
20
-93.7180939999999936
11
148.9020089999999925
21
-93.9085699999999974
0
LINE
8
BLACK
6
CONTINUOUS
10
148.9020089999999925
20
-93.9085699999999974
11
148.8543899999999951
21
-94.0038079999999923
0
LINE
8
BLACK
6
CONTINUOUS
10
148.8543899999999951
20
-94.0038079999999923
11
148.8067709999999977
21
-94.0514269999999897
0
LINE
8
BLACK
6
CONTINUOUS
10
148.8067709999999977
20
-94.0514269999999897
11
148.7115330000000029
21
-94.0990460000000013
0
LINE
8
BLACK
6
CONTINUOUS
10
148.7115330000000029
20
-94.0990460000000013
11
148.6162949999999796
21
-94.0990460000000013
0
LINE
8
BLACK
6
CONTINUOUS
10
148.6162949999999796
20
-94.0990460000000013
11
148.5210569999999848
21
-94.0514269999999897
0
LINE
8
BLACK
6
CONTINUOUS
10
148.5210569999999848
20
-94.0514269999999897
11
148.4734379999999874
21
-94.0038079999999923
0
LINE
8
BLACK
6
CONTINUOUS
10
148.4734379999999874
20
-94.0038079999999923
11
148.42581899999999
21
-93.9085699999999974
0
LINE
8
BLACK
6
CONTINUOUS
10
148.42581899999999
20
-93.9085699999999974
11
148.42581899999999
21
-93.6704749999999962
0
LINE
8
BLACK
6
CONTINUOUS
10
148.42581899999999
20
-93.6704749999999962
11
148.4734379999999874
21
-93.5276179999999897
0
LINE
8
BLACK
6
CONTINUOUS
10
149.42581899999999
20
-93.0990460000000013
11
148.42581899999999
21
-93.0990460000000013
0
LINE
8
BLACK
6
CONTINUOUS
10
149.42581899999999
20
-92.6704749999999962
11
148.9020089999999925
21
-92.6704749999999962
0
LINE
8
BLACK
6
CONTINUOUS
10
148.9020089999999925
20
-92.6704749999999962
11
148.8067709999999977
21
-92.7180939999999936
0
LINE
8
BLACK
6
CONTINUOUS
10
148.8067709999999977
20
-92.7180939999999936
11
148.7591520000000003
21
-92.8133320000000026
0
LINE
8
BLACK
6
CONTINUOUS
10
148.7591520000000003
20
-92.8133320000000026
11
148.7591520000000003
21
-92.9561889999999948
0
LINE
8
BLACK
6
CONTINUOUS
10
148.7591520000000003
20
-92.9561889999999948
11
148.8067709999999977
21
-93.0514269999999897
0
LINE
8
BLACK
6
CONTINUOUS
10
148.8067709999999977
20
-93.0514269999999897
11
148.8543899999999951
21
-93.0990460000000013
0
LINE
8
BLACK
6
CONTINUOUS
10
149.42581899999999
20
-92.1942839999999961
11
148.7591520000000003
21
-92.1942839999999961
0
LINE
8
BLACK
6
CONTINUOUS
10
148.42581899999999
20
-92.1942839999999961
11
148.4734379999999874
21
-92.2419029999999935
0
LINE
8
BLACK
6
CONTINUOUS
10
148.4734379999999874
20
-92.2419029999999935
11
148.5210569999999848
21
-92.1942839999999961
0
LINE
8
BLACK
6
CONTINUOUS
10
148.5210569999999848
20
-92.1942839999999961
11
148.4734379999999874
21
-92.1466649999999987
0
LINE
8
BLACK
6
CONTINUOUS
10
148.4734379999999874
20
-92.1466649999999987
11
148.42581899999999
21
-92.1942839999999961
0
LINE
8
BLACK
6
CONTINUOUS
10
148.42581899999999
20
-92.1942839999999961
11
148.5210569999999848
21
-92.1942839999999961
0
LINE
8
BLACK
6
CONTINUOUS
10
148.7591520000000003
20
-91.860951
11
148.7591520000000003
21
-91.4799989999999923
0
LINE
8
BLACK
6
CONTINUOUS
10
149.42581899999999
20
-91.7180939999999936
11
148.5686759999999822
21
-91.7180939999999936
0
LINE
8
BLACK
6
CONTINUOUS
10
148.5686759999999822
20
-91.7180939999999936
11
148.4734379999999874
21
-91.6704749999999962
0
LINE
8
BLACK
6
CONTINUOUS
10
148.4734379999999874
20
-91.6704749999999962
11
148.42581899999999
21
-91.5752370000000013
0
LINE
8
BLACK
6
CONTINUOUS
10
148.42581899999999
20
-91.5752370000000013
11
148.42581899999999
21
-91.4799989999999923
0
LINE
8
BLACK
6
CONTINUOUS
10
148.7591520000000003
20
-91.289521999999991
11
148.7591520000000003
21
-90.9085699999999974
0
LINE
8
BLACK
6
CONTINUOUS
10
148.42581899999999
20
-91.1466649999999987
11
149.2829610000000002
21
-91.1466649999999987
0
LINE
8
BLACK
6
CONTINUOUS
10
149.2829610000000002
20
-91.1466649999999987
11
149.3781999999999925
21
-91.0990460000000013
0
LINE
8
BLACK
6
CONTINUOUS
10
149.3781999999999925
20
-91.0990460000000013
11
149.42581899999999
21
-91.0038079999999923
0
LINE
8
BLACK
6
CONTINUOUS
10
149.42581899999999
20
-91.0038079999999923
11
149.42581899999999
21
-90.9085699999999974
0
LINE
8
BLACK
6
CONTINUOUS
10
145.3934549999999888
20
-90.2219659999999948
11
145.9267889999999852
21
-90.2219659999999948
0
LINE
8
BLACK
6
CONTINUOUS
10
145.6601220000000012
20
-90.488632999999993
11
145.6601220000000012
21
-89.955299999999994
0
LINE
8
BLACK
6
CONTINUOUS
10
146.5934560000000033
20
-89.7886329999999901
11
146.2601219999999955
21
-89.7886329999999901
0
LINE
8
BLACK
6
CONTINUOUS
10
146.2601219999999955
20
-89.7886329999999901
11
146.2267889999999966
21
-90.1219660000000005
0
LINE
8
BLACK
6
CONTINUOUS
10
146.2267889999999966
20
-90.1219660000000005
11
146.2601219999999955
21
-90.0886330000000015
0
LINE
8
BLACK
6
CONTINUOUS
10
146.2601219999999955
20
-90.0886330000000015
11
146.3267889999999909
21
-90.0553000000000026
0
LINE
8
BLACK
6
CONTINUOUS
10
146.3267889999999909
20
-90.0553000000000026
11
146.4934559999999806
21
-90.0553000000000026
0
LINE
8
BLACK
6
CONTINUOUS
10
146.4934559999999806
20
-90.0553000000000026
11
146.5601220000000069
21
-90.0886330000000015
0
LINE
8
BLACK
6
CONTINUOUS
10
146.5601220000000069
20
-90.0886330000000015
11
146.5934560000000033
21
-90.1219660000000005
0
LINE
8
BLACK
6
CONTINUOUS
10
146.5934560000000033
20
-90.1219660000000005
11
146.6267890000000023
21
-90.1886329999999958
0
LINE
8
BLACK
6
CONTINUOUS
10
146.6267890000000023
20
-90.1886329999999958
11
146.6267890000000023
21
-90.3552999999999997
0
LINE
8
BLACK
6
CONTINUOUS
10
146.6267890000000023
20
-90.3552999999999997
11
146.5934560000000033
21
-90.4219659999999976
0
LINE
8
BLACK
6
CONTINUOUS
10
146.5934560000000033
20
-90.4219659999999976
11
146.5601220000000069
21
-90.455299999999994
0
LINE
8
BLACK
6
CONTINUOUS
10
146.5601220000000069
20
-90.455299999999994
11
146.4934559999999806
21
-90.488632999999993
0
LINE
8
BLACK
6
CONTINUOUS
10
146.4934559999999806
20
-90.488632999999993
11
146.3267889999999909
21
-90.488632999999993
0
LINE
8
BLACK
6
CONTINUOUS
10
146.3267889999999909
20
-90.488632999999993
11
146.2601219999999955
21
-90.455299999999994
0
LINE
8
BLACK
6
CONTINUOUS
10
146.2601219999999955
20
-90.455299999999994
11
146.2267889999999966
21
-90.4219659999999976
0
LINE
8
BLACK
6
CONTINUOUS
10
146.8267889999999909
20
-89.7886329999999901
11
147.0601230000000044
21
-90.488632999999993
0
LINE
8
BLACK
6
CONTINUOUS
10
147.0601230000000044
20
-90.488632999999993
11
147.2934559999999919
21
-89.7886329999999901
0
LINE
8
BLACK
6
CONTINUOUS
10
145.7934549999999945
20
-93.0286329999999992
11
145.5601220000000069
21
-92.6952999999999889
0
LINE
8
BLACK
6
CONTINUOUS
10
145.3934549999999888
20
-93.0286329999999992
11
145.3934549999999888
21
-92.3286329999999964
0
LINE
8
BLACK
6
CONTINUOUS
10
145.3934549999999888
20
-92.3286329999999964
11
145.6601220000000012
21
-92.3286329999999964
0
LINE
8
BLACK
6
CONTINUOUS
10
145.6601220000000012
20
-92.3286329999999964
11
145.7267889999999966
21
-92.3619659999999953
0
LINE
8
BLACK
6
CONTINUOUS
10
145.7267889999999966
20
-92.3619659999999953
11
145.7601219999999955
21
-92.3952999999999918
0
LINE
8
BLACK
6
CONTINUOUS
10
145.7601219999999955
20
-92.3952999999999918
11
145.7934549999999945
21
-92.4619659999999897
0
LINE
8
BLACK
6
CONTINUOUS
10
145.7934549999999945
20
-92.4619659999999897
11
145.7934549999999945
21
-92.5619659999999982
0
LINE
8
BLACK
6
CONTINUOUS
10
145.7934549999999945
20
-92.5619659999999982
11
145.7601219999999955
21
-92.6286329999999936
0
LINE
8
BLACK
6
CONTINUOUS
10
145.7601219999999955
20
-92.6286329999999936
11
145.7267889999999966
21
-92.6619659999999925
0
LINE
8
BLACK
6
CONTINUOUS
10
145.7267889999999966
20
-92.6619659999999925
11
145.6601220000000012
21
-92.6952999999999889
0
LINE
8
BLACK
6
CONTINUOUS
10
145.6601220000000012
20
-92.6952999999999889
11
145.3934549999999888
21
-92.6952999999999889
0
LINE
8
BLACK
6
CONTINUOUS
10
146.0267889999999795
20
-92.3286329999999964
11
146.4934549999999831
21
-93.0286329999999992
0
LINE
8
BLACK
6
CONTINUOUS
10
146.4934549999999831
20
-92.3286329999999964
11
146.0267889999999795
21
-93.0286329999999992
0
LINE
8
BLACK
6
CONTINUOUS
10
146.7601219999999955
20
-93.0286329999999992
11
146.7601219999999955
21
-92.3286329999999964
0
LINE
8
BLACK
6
CONTINUOUS
10
146.7601219999999955
20
-92.3286329999999964
11
146.9267889999999852
21
-92.3286329999999964
0
LINE
8
BLACK
6
CONTINUOUS
10
146.9267889999999852
20
-92.3286329999999964
11
147.0267889999999795
21
-92.3619659999999953
0
LINE
8
BLACK
6
CONTINUOUS
10
147.0267889999999795
20
-92.3619659999999953
11
147.0934560000000033
21
-92.4286329999999907
0
LINE
8
BLACK
6
CONTINUOUS
10
147.0934560000000033
20
-92.4286329999999907
11
147.1267890000000023
21
-92.4953000000000003
0
LINE
8
BLACK
6
CONTINUOUS
10
147.1267890000000023
20
-92.4953000000000003
11
147.1601220000000012
21
-92.6286329999999936
0
LINE
8
BLACK
6
CONTINUOUS
10
147.1601220000000012
20
-92.6286329999999936
11
147.1601220000000012
21
-92.7286330000000021
0
LINE
8
BLACK
6
CONTINUOUS
10
147.1601220000000012
20
-92.7286330000000021
11
147.1267890000000023
21
-92.8619659999999953
0
LINE
8
BLACK
6
CONTINUOUS
10
147.1267890000000023
20
-92.8619659999999953
11
147.0934560000000033
21
-92.9286329999999907
0
LINE
8
BLACK
6
CONTINUOUS
10
147.0934560000000033
20
-92.9286329999999907
11
147.0267889999999795
21
-92.9953000000000003
0
LINE
8
BLACK
6
CONTINUOUS
10
147.0267889999999795
20
-92.9953000000000003
11
146.9267889999999852
21
-93.0286329999999992
0
LINE
8
BLACK
6
CONTINUOUS
10
146.9267889999999852
20
-93.0286329999999992
11
146.7601219999999955
21
-93.0286329999999992
0
LINE
8
BLACK
6
CONTINUOUS
10
145.2934549999999945
20
-94.8686330000000027
11
145.6934550000000002
21
-94.8686330000000027
0
LINE
8
BLACK
6
CONTINUOUS
10
145.4934549999999831
20
-95.5686329999999913
11
145.4934549999999831
21
-94.8686330000000027
0
LINE
8
BLACK
6
CONTINUOUS
10
145.8601219999999898
20
-94.8686330000000027
11
146.3267879999999934
21
-95.5686329999999913
0
LINE
8
BLACK
6
CONTINUOUS
10
146.3267879999999934
20
-94.8686330000000027
11
145.8601219999999898
21
-95.5686329999999913
0
LINE
8
BLACK
6
CONTINUOUS
10
146.5934550000000058
20
-95.5686329999999913
11
146.5934550000000058
21
-94.8686330000000027
0
LINE
8
BLACK
6
CONTINUOUS
10
146.5934550000000058
20
-94.8686330000000027
11
146.7601219999999955
21
-94.8686330000000027
0
LINE
8
BLACK
6
CONTINUOUS
10
146.7601219999999955
20
-94.8686330000000027
11
146.8601219999999898
21
-94.9019660000000016
0
LINE
8
BLACK
6
CONTINUOUS
10
146.8601219999999898
20
-94.9019660000000016
11
146.9267889999999852
21
-94.968632999999997
0
LINE
8
BLACK
6
CONTINUOUS
10
146.9267889999999852
20
-94.968632999999997
11
146.9601219999999842
21
-95.0352999999999923
0
LINE
8
BLACK
6
CONTINUOUS
10
146.9601219999999842
20
-95.0352999999999923
11
146.9934549999999831
21
-95.1686329999999998
0
LINE
8
BLACK
6
CONTINUOUS
10
146.9934549999999831
20
-95.1686329999999998
11
146.9934549999999831
21
-95.2686329999999941
0
LINE
8
BLACK
6
CONTINUOUS
10
146.9934549999999831
20
-95.2686329999999941
11
146.9601219999999842
21
-95.4019660000000016
0
LINE
8
BLACK
6
CONTINUOUS
10
146.9601219999999842
20
-95.4019660000000016
11
146.9267889999999852
21
-95.468632999999997
0
LINE
8
BLACK
6
CONTINUOUS
10
146.9267889999999852
20
-95.468632999999997
11
146.8601219999999898
21
-95.5352999999999923
0
LINE
8
BLACK
6
CONTINUOUS
10
146.8601219999999898
20
-95.5352999999999923
11
146.7601219999999955
21
-95.5686329999999913
0
LINE
8
BLACK
6
CONTINUOUS
10
146.7601219999999955
20
-95.5686329999999913
11
146.5934550000000058
21
-95.5686329999999913
0
LINE
8
BLACK
6
CONTINUOUS
10
145.7601219999999955
20
-97.4419659999999936
11
145.6934550000000002
21
-97.4086329999999947
0
LINE
8
BLACK
6
CONTINUOUS
10
145.6934550000000002
20
-97.4086329999999947
11
145.5934550000000058
21
-97.4086329999999947
0
LINE
8
BLACK
6
CONTINUOUS
10
145.5934550000000058
20
-97.4086329999999947
11
145.4934549999999831
21
-97.4419659999999936
0
LINE
8
BLACK
6
CONTINUOUS
10
145.4934549999999831
20
-97.4419659999999936
11
145.4267889999999852
21
-97.508632999999989
0
LINE
8
BLACK
6
CONTINUOUS
10
145.4267889999999852
20
-97.508632999999989
11
145.3934549999999888
21
-97.5752999999999986
0
LINE
8
BLACK
6
CONTINUOUS
10
145.3934549999999888
20
-97.5752999999999986
11
145.3601219999999898
21
-97.7086329999999919
0
LINE
8
BLACK
6
CONTINUOUS
10
145.3601219999999898
20
-97.7086329999999919
11
145.3601219999999898
21
-97.8086330000000004
0
LINE
8
BLACK
6
CONTINUOUS
10
145.3601219999999898
20
-97.8086330000000004
11
145.3934549999999888
21
-97.9419659999999936
0
LINE
8
BLACK
6
CONTINUOUS
10
145.3934549999999888
20
-97.9419659999999936
11
145.4267889999999852
21
-98.008632999999989
0
LINE
8
BLACK
6
CONTINUOUS
10
145.4267889999999852
20
-98.008632999999989
11
145.4934549999999831
21
-98.0752999999999986
0
LINE
8
BLACK
6
CONTINUOUS
10
145.4934549999999831
20
-98.0752999999999986
11
145.5934550000000058
21
-98.1086329999999975
0
LINE
8
BLACK
6
CONTINUOUS
10
145.5934550000000058
20
-98.1086329999999975
11
145.6601220000000012
21
-98.1086329999999975
0
LINE
8
BLACK
6
CONTINUOUS
10
145.6601220000000012
20
-98.1086329999999975
11
145.7601219999999955
21
-98.0752999999999986
0
LINE
8
BLACK
6
CONTINUOUS
10
145.7601219999999955
20
-98.0752999999999986
11
145.7934549999999945
21
-98.0419660000000022
0
LINE
8
BLACK
6
CONTINUOUS
10
145.7934549999999945
20
-98.0419660000000022
11
145.7934549999999945
21
-97.8086330000000004
0
LINE
8
BLACK
6
CONTINUOUS
10
145.7934549999999945
20
-97.8086330000000004
11
145.6601220000000012
21
-97.8086330000000004
0
LINE
8
BLACK
6
CONTINUOUS
10
146.0934550000000058
20
-98.1086329999999975
11
146.0934550000000058
21
-97.4086329999999947
0
LINE
8
BLACK
6
CONTINUOUS
10
146.0934550000000058
20
-97.4086329999999947
11
146.4934549999999831
21
-98.1086329999999975
0
LINE
8
BLACK
6
CONTINUOUS
10
146.4934549999999831
20
-98.1086329999999975
11
146.4934549999999831
21
-97.4086329999999947
0
LINE
8
BLACK
6
CONTINUOUS
10
146.8267879999999934
20
-98.1086329999999975
11
146.8267879999999934
21
-97.4086329999999947
0
LINE
8
BLACK
6
CONTINUOUS
10
146.8267879999999934
20
-97.4086329999999947
11
146.9934549999999831
21
-97.4086329999999947
0
LINE
8
BLACK
6
CONTINUOUS
10
146.9934549999999831
20
-97.4086329999999947
11
147.0934550000000058
21
-97.4419659999999936
0
LINE
8
BLACK
6
CONTINUOUS
10
147.0934550000000058
20
-97.4419659999999936
11
147.1601220000000012
21
-97.508632999999989
0
LINE
8
BLACK
6
CONTINUOUS
10
147.1601220000000012
20
-97.508632999999989
11
147.1934550000000002
21
-97.5752999999999986
0
LINE
8
BLACK
6
CONTINUOUS
10
147.1934550000000002
20
-97.5752999999999986
11
147.2267879999999991
21
-97.7086329999999919
0
LINE
8
BLACK
6
CONTINUOUS
10
147.2267879999999991
20
-97.7086329999999919
11
147.2267879999999991
21
-97.8086330000000004
0
LINE
8
BLACK
6
CONTINUOUS
10
147.2267879999999991
20
-97.8086330000000004
11
147.1934550000000002
21
-97.9419659999999936
0
LINE
8
BLACK
6
CONTINUOUS
10
147.1934550000000002
20
-97.9419659999999936
11
147.1601220000000012
21
-98.008632999999989
0
LINE
8
BLACK
6
CONTINUOUS
10
147.1601220000000012
20
-98.008632999999989
11
147.0934550000000058
21
-98.0752999999999986
0
LINE
8
BLACK
6
CONTINUOUS
10
147.0934550000000058
20
-98.0752999999999986
11
146.9934549999999831
21
-98.1086329999999975
0
LINE
8
BLACK
6
CONTINUOUS
10
146.9934549999999831
20
-98.1086329999999975
11
146.8267879999999934
21
-98.1086329999999975
0
LINE
8
BLACK
6
CONTINUOUS
10
152.6218759999999861
20
-90.2219659999999948
11
153.1552099999999825
21
-90.2219659999999948
0
LINE
8
BLACK
6
CONTINUOUS
10
152.8885429999999985
20
-90.488632999999993
11
152.8885429999999985
21
-89.955299999999994
0
LINE
8
BLACK
6
CONTINUOUS
10
153.421876999999995
20
-89.7886329999999901
11
153.8552099999999996
21
-89.7886329999999901
0
LINE
8
BLACK
6
CONTINUOUS
10
153.8552099999999996
20
-89.7886329999999901
11
153.6218769999999836
21
-90.0553000000000026
0
LINE
8
BLACK
6
CONTINUOUS
10
153.6218769999999836
20
-90.0553000000000026
11
153.7218770000000063
21
-90.0553000000000026
0
LINE
8
BLACK
6
CONTINUOUS
10
153.7218770000000063
20
-90.0553000000000026
11
153.7885430000000042
21
-90.0886330000000015
0
LINE
8
BLACK
6
CONTINUOUS
10
153.7885430000000042
20
-90.0886330000000015
11
153.8218770000000006
21
-90.1219660000000005
0
LINE
8
BLACK
6
CONTINUOUS
10
153.8218770000000006
20
-90.1219660000000005
11
153.8552099999999996
21
-90.1886329999999958
0
LINE
8
BLACK
6
CONTINUOUS
10
153.8552099999999996
20
-90.1886329999999958
11
153.8552099999999996
21
-90.3552999999999997
0
LINE
8
BLACK
6
CONTINUOUS
10
153.8552099999999996
20
-90.3552999999999997
11
153.8218770000000006
21
-90.4219659999999976
0
LINE
8
BLACK
6
CONTINUOUS
10
153.8218770000000006
20
-90.4219659999999976
11
153.7885430000000042
21
-90.455299999999994
0
LINE
8
BLACK
6
CONTINUOUS
10
153.7885430000000042
20
-90.455299999999994
11
153.7218770000000063
21
-90.488632999999993
0
LINE
8
BLACK
6
CONTINUOUS
10
153.7218770000000063
20
-90.488632999999993
11
153.5218769999999893
21
-90.488632999999993
0
LINE
8
BLACK
6
CONTINUOUS
10
153.5218769999999893
20
-90.488632999999993
11
153.4552099999999939
21
-90.455299999999994
0
LINE
8
BLACK
6
CONTINUOUS
10
153.4552099999999939
20
-90.455299999999994
11
153.421876999999995
21
-90.4219659999999976
0
LINE
8
BLACK
6
CONTINUOUS
10
154.0552099999999882
20
-89.7886329999999901
11
154.2885440000000017
21
-90.488632999999993
0
LINE
8
BLACK
6
CONTINUOUS
10
154.2885440000000017
20
-90.488632999999993
11
154.5218769999999893
21
-89.7886329999999901
0
LINE
8
BLACK
6
CONTINUOUS
10
154.688543999999979
20
-89.7886329999999901
11
155.1218769999999836
21
-89.7886329999999901
0
LINE
8
BLACK
6
CONTINUOUS
10
155.1218769999999836
20
-89.7886329999999901
11
154.888543999999996
21
-90.0553000000000026
0
LINE
8
BLACK
6
CONTINUOUS
10
154.888543999999996
20
-90.0553000000000026
11
154.9885439999999903
21
-90.0553000000000026
0
LINE
8
BLACK
6
CONTINUOUS
10
154.9885439999999903
20
-90.0553000000000026
11
155.0552099999999882
21
-90.0886330000000015
0
LINE
8
BLACK
6
CONTINUOUS
10
155.0552099999999882
20
-90.0886330000000015
11
155.0885439999999846
21
-90.1219660000000005
0
LINE
8
BLACK
6
CONTINUOUS
10
155.0885439999999846
20
-90.1219660000000005
11
155.1218769999999836
21
-90.1886329999999958
0
LINE
8
BLACK
6
CONTINUOUS
10
155.1218769999999836
20
-90.1886329999999958
11
155.1218769999999836
21
-90.3552999999999997
0
LINE
8
BLACK
6
CONTINUOUS
10
155.1218769999999836
20
-90.3552999999999997
11
155.0885439999999846
21
-90.4219659999999976
0
LINE
8
BLACK
6
CONTINUOUS
10
155.0885439999999846
20
-90.4219659999999976
11
155.0552099999999882
21
-90.455299999999994
0
LINE
8
BLACK
6
CONTINUOUS
10
155.0552099999999882
20
-90.455299999999994
11
154.9885439999999903
21
-90.488632999999993
0
LINE
8
BLACK
6
CONTINUOUS
10
154.9885439999999903
20
-90.488632999999993
11
154.7885440000000017
21
-90.488632999999993
0
LINE
8
BLACK
6
CONTINUOUS
10
154.7885440000000017
20
-90.488632999999993
11
154.7218770000000063
21
-90.455299999999994
0
LINE
8
BLACK
6
CONTINUOUS
10
154.7218770000000063
20
-90.455299999999994
11
154.688543999999979
21
-90.4219659999999976
0
LINE
8
BLACK
6
CONTINUOUS
10
150.9885439999999903
20
-92.6619659999999925
11
151.2218780000000038
21
-92.6619659999999925
0
LINE
8
BLACK
6
CONTINUOUS
10
151.3218779999999981
20
-93.0286329999999992
11
150.9885439999999903
21
-93.0286329999999992
0
LINE
8
BLACK
6
CONTINUOUS
10
150.9885439999999903
20
-93.0286329999999992
11
150.9885439999999903
21
-92.3286329999999964
0
LINE
8
BLACK
6
CONTINUOUS
10
150.9885439999999903
20
-92.3286329999999964
11
151.3218779999999981
21
-92.3286329999999964
0
LINE
8
BLACK
6
CONTINUOUS
10
151.5885439999999846
20
-92.9953000000000003
11
151.688543999999979
21
-93.0286329999999992
0
LINE
8
BLACK
6
CONTINUOUS
10
151.688543999999979
20
-93.0286329999999992
11
151.8552109999999971
21
-93.0286329999999992
0
LINE
8
BLACK
6
CONTINUOUS
10
151.8552109999999971
20
-93.0286329999999992
11
151.921876999999995
21
-92.9953000000000003
0
LINE
8
BLACK
6
CONTINUOUS
10
151.921876999999995
20
-92.9953000000000003
11
151.9552109999999914
21
-92.9619659999999897
0
LINE
8
BLACK
6
CONTINUOUS
10
151.9552109999999914
20
-92.9619659999999897
11
151.9885439999999903
21
-92.8952999999999918
0
LINE
8
BLACK
6
CONTINUOUS
10
151.9885439999999903
20
-92.8952999999999918
11
151.9885439999999903
21
-92.8286329999999964
0
LINE
8
BLACK
6
CONTINUOUS
10
151.9885439999999903
20
-92.8286329999999964
11
151.9552109999999914
21
-92.761966000000001
0
LINE
8
BLACK
6
CONTINUOUS
10
151.9552109999999914
20
-92.761966000000001
11
151.921876999999995
21
-92.7286330000000021
0
LINE
8
BLACK
6
CONTINUOUS
10
151.921876999999995
20
-92.7286330000000021
11
151.8552109999999971
21
-92.6952999999999889
0
LINE
8
BLACK
6
CONTINUOUS
10
151.8552109999999971
20
-92.6952999999999889
11
151.7218770000000063
21
-92.6619659999999925
0
LINE
8
BLACK
6
CONTINUOUS
10
151.7218770000000063
20
-92.6619659999999925
11
151.65521099999998
21
-92.6286329999999936
0
LINE
8
BLACK
6
CONTINUOUS
10
151.65521099999998
20
-92.6286329999999936
11
151.6218769999999836
21
-92.5952999999999946
0
LINE
8
BLACK
6
CONTINUOUS
10
151.6218769999999836
20
-92.5952999999999946
11
151.5885439999999846
21
-92.5286329999999992
0
LINE
8
BLACK
6
CONTINUOUS
10
151.5885439999999846
20
-92.5286329999999992
11
151.5885439999999846
21
-92.4619659999999897
0
LINE
8
BLACK
6
CONTINUOUS
10
151.5885439999999846
20
-92.4619659999999897
11
151.6218769999999836
21
-92.3952999999999918
0
LINE
8
BLACK
6
CONTINUOUS
10
151.6218769999999836
20
-92.3952999999999918
11
151.65521099999998
21
-92.3619659999999953
0
LINE
8
BLACK
6
CONTINUOUS
10
151.65521099999998
20
-92.3619659999999953
11
151.7218770000000063
21
-92.3286329999999964
0
LINE
8
BLACK
6
CONTINUOUS
10
151.7218770000000063
20
-92.3286329999999964
11
151.888543999999996
21
-92.3286329999999964
0
LINE
8
BLACK
6
CONTINUOUS
10
151.888543999999996
20
-92.3286329999999964
11
151.9885439999999903
21
-92.3619659999999953
0
LINE
8
BLACK
6
CONTINUOUS
10
152.2885440000000017
20
-93.0286329999999992
11
152.2885440000000017
21
-92.3286329999999964
0
LINE
8
BLACK
6
CONTINUOUS
10
152.2885440000000017
20
-92.3286329999999964
11
152.5552109999999857
21
-92.3286329999999964
0
LINE
8
BLACK
6
CONTINUOUS
10
152.5552109999999857
20
-92.3286329999999964
11
152.6218779999999811
21
-92.3619659999999953
0
LINE
8
BLACK
6
CONTINUOUS
10
152.6218779999999811
20
-92.3619659999999953
11
152.65521099999998
21
-92.3952999999999918
0
LINE
8
BLACK
6
CONTINUOUS
10
152.65521099999998
20
-92.3952999999999918
11
152.688543999999979
21
-92.4619659999999897
0
LINE
8
BLACK
6
CONTINUOUS
10
152.688543999999979
20
-92.4619659999999897
11
152.688543999999979
21
-92.5619659999999982
0
LINE
8
BLACK
6
CONTINUOUS
10
152.688543999999979
20
-92.5619659999999982
11
152.65521099999998
21
-92.6286329999999936
0
LINE
8
BLACK
6
CONTINUOUS
10
152.65521099999998
20
-92.6286329999999936
11
152.6218779999999811
21
-92.6619659999999925
0
LINE
8
BLACK
6
CONTINUOUS
10
152.6218779999999811
20
-92.6619659999999925
11
152.5552109999999857
21
-92.6952999999999889
0
LINE
8
BLACK
6
CONTINUOUS
10
152.5552109999999857
20
-92.6952999999999889
11
152.2885440000000017
21
-92.6952999999999889
0
LINE
8
BLACK
6
CONTINUOUS
10
152.8218779999999981
20
-93.0952999999999946
11
153.3552109999999971
21
-93.0952999999999946
0
LINE
8
BLACK
6
CONTINUOUS
10
153.421876999999995
20
-92.3286329999999964
11
153.8218770000000006
21
-92.3286329999999964
0
LINE
8
BLACK
6
CONTINUOUS
10
153.6218769999999836
20
-93.0286329999999992
11
153.6218769999999836
21
-92.3286329999999964
0
LINE
8
BLACK
6
CONTINUOUS
10
153.9885439999999903
20
-92.3286329999999964
11
154.4552099999999939
21
-93.0286329999999992
0
LINE
8
BLACK
6
CONTINUOUS
10
154.4552099999999939
20
-92.3286329999999964
11
153.9885439999999903
21
-93.0286329999999992
0
LINE
8
BLACK
6
CONTINUOUS
10
154.7218770000000063
20
-93.0286329999999992
11
154.7218770000000063
21
-92.3286329999999964
0
LINE
8
BLACK
6
CONTINUOUS
10
154.7218770000000063
20
-92.3286329999999964
11
154.888543999999996
21
-92.3286329999999964
0
LINE
8
BLACK
6
CONTINUOUS
10
154.888543999999996
20
-92.3286329999999964
11
154.9885439999999903
21
-92.3619659999999953
0
LINE
8
BLACK
6
CONTINUOUS
10
154.9885439999999903
20
-92.3619659999999953
11
155.0552109999999857
21
-92.4286329999999907
0
LINE
8
BLACK
6
CONTINUOUS
10
155.0552109999999857
20
-92.4286329999999907
11
155.0885439999999846
21
-92.4953000000000003
0
LINE
8
BLACK
6
CONTINUOUS
10
155.0885439999999846
20
-92.4953000000000003
11
155.1218769999999836
21
-92.6286329999999936
0
LINE
8
BLACK
6
CONTINUOUS
10
155.1218769999999836
20
-92.6286329999999936
11
155.1218769999999836
21
-92.7286330000000021
0
LINE
8
BLACK
6
CONTINUOUS
10
155.1218769999999836
20
-92.7286330000000021
11
155.0885439999999846
21
-92.8619659999999953
0
LINE
8
BLACK
6
CONTINUOUS
10
155.0885439999999846
20
-92.8619659999999953
11
155.0552109999999857
21
-92.9286329999999907
0
LINE
8
BLACK
6
CONTINUOUS
10
155.0552109999999857
20
-92.9286329999999907
11
154.9885439999999903
21
-92.9953000000000003
0
LINE
8
BLACK
6
CONTINUOUS
10
154.9885439999999903
20
-92.9953000000000003
11
154.888543999999996
21
-93.0286329999999992
0
LINE
8
BLACK
6
CONTINUOUS
10
154.888543999999996
20
-93.0286329999999992
11
154.7218770000000063
21
-93.0286329999999992
0
LINE
8
BLACK
6
CONTINUOUS
10
150.8218770000000006
20
-95.2019659999999988
11
151.0552109999999857
21
-95.2019659999999988
0
LINE
8
BLACK
6
CONTINUOUS
10
151.15521099999998
20
-95.5686329999999913
11
150.8218770000000006
21
-95.5686329999999913
0
LINE
8
BLACK
6
CONTINUOUS
10
150.8218770000000006
20
-95.5686329999999913
11
150.8218770000000006
21
-94.8686330000000027
0
LINE
8
BLACK
6
CONTINUOUS
10
150.8218770000000006
20
-94.8686330000000027
11
151.15521099999998
21
-94.8686330000000027
0
LINE
8
BLACK
6
CONTINUOUS
10
151.421876999999995
20
-95.5352999999999923
11
151.5218769999999893
21
-95.5686329999999913
0
LINE
8
BLACK
6
CONTINUOUS
10
151.5218769999999893
20
-95.5686329999999913
11
151.688543999999979
21
-95.5686329999999913
0
LINE
8
BLACK
6
CONTINUOUS
10
151.688543999999979
20
-95.5686329999999913
11
151.7552100000000053
21
-95.5352999999999923
0
LINE
8
BLACK
6
CONTINUOUS
10
151.7552100000000053
20
-95.5352999999999923
11
151.7885440000000017
21
-95.5019659999999959
0
LINE
8
BLACK
6
CONTINUOUS
10
151.7885440000000017
20
-95.5019659999999959
11
151.8218770000000006
21
-95.435299999999998
0
LINE
8
BLACK
6
CONTINUOUS
10
151.8218770000000006
20
-95.435299999999998
11
151.8218770000000006
21
-95.3686330000000027
0
LINE
8
BLACK
6
CONTINUOUS
10
151.8218770000000006
20
-95.3686330000000027
11
151.7885440000000017
21
-95.3019659999999931
0
LINE
8
BLACK
6
CONTINUOUS
10
151.7885440000000017
20
-95.3019659999999931
11
151.7552100000000053
21
-95.2686329999999941
0
LINE
8
BLACK
6
CONTINUOUS
10
151.7552100000000053
20
-95.2686329999999941
11
151.688543999999979
21
-95.2352999999999952
0
LINE
8
BLACK
6
CONTINUOUS
10
151.688543999999979
20
-95.2352999999999952
11
151.5552099999999882
21
-95.2019659999999988
0
LINE
8
BLACK
6
CONTINUOUS
10
151.5552099999999882
20
-95.2019659999999988
11
151.4885439999999903
21
-95.1686329999999998
0
LINE
8
BLACK
6
CONTINUOUS
10
151.4885439999999903
20
-95.1686329999999998
11
151.4552099999999939
21
-95.1353000000000009
0
LINE
8
BLACK
6
CONTINUOUS
10
151.4552099999999939
20
-95.1353000000000009
11
151.421876999999995
21
-95.0686329999999913
0
LINE
8
BLACK
6
CONTINUOUS
10
151.421876999999995
20
-95.0686329999999913
11
151.421876999999995
21
-95.0019659999999959
0
LINE
8
BLACK
6
CONTINUOUS
10
151.421876999999995
20
-95.0019659999999959
11
151.4552099999999939
21
-94.935299999999998
0
LINE
8
BLACK
6
CONTINUOUS
10
151.4552099999999939
20
-94.935299999999998
11
151.4885439999999903
21
-94.9019660000000016
0
LINE
8
BLACK
6
CONTINUOUS
10
151.4885439999999903
20
-94.9019660000000016
11
151.5552099999999882
21
-94.8686330000000027
0
LINE
8
BLACK
6
CONTINUOUS
10
151.5552099999999882
20
-94.8686330000000027
11
151.7218770000000063
21
-94.8686330000000027
0
LINE
8
BLACK
6
CONTINUOUS
10
151.7218770000000063
20
-94.8686330000000027
11
151.8218770000000006
21
-94.9019660000000016
0
LINE
8
BLACK
6
CONTINUOUS
10
152.1218769999999836
20
-95.5686329999999913
11
152.1218769999999836
21
-94.8686330000000027
0
LINE
8
BLACK
6
CONTINUOUS
10
152.1218769999999836
20
-94.8686330000000027
11
152.388543999999996
21
-94.8686330000000027
0
LINE
8
BLACK
6
CONTINUOUS
10
152.388543999999996
20
-94.8686330000000027
11
152.4552109999999914
21
-94.9019660000000016
0
LINE
8
BLACK
6
CONTINUOUS
10
152.4552109999999914
20
-94.9019660000000016
11
152.4885439999999903
21
-94.935299999999998
0
LINE
8
BLACK
6
CONTINUOUS
10
152.4885439999999903
20
-94.935299999999998
11
152.5218769999999893
21
-95.0019659999999959
0
LINE
8
BLACK
6
CONTINUOUS
10
152.5218769999999893
20
-95.0019659999999959
11
152.5218769999999893
21
-95.1019659999999902
0
LINE
8
BLACK
6
CONTINUOUS
10
152.5218769999999893
20
-95.1019659999999902
11
152.4885439999999903
21
-95.1686329999999998
0
LINE
8
BLACK
6
CONTINUOUS
10
152.4885439999999903
20
-95.1686329999999998
11
152.4552109999999914
21
-95.2019659999999988
0
LINE
8
BLACK
6
CONTINUOUS
10
152.4552109999999914
20
-95.2019659999999988
11
152.388543999999996
21
-95.2352999999999952
0
LINE
8
BLACK
6
CONTINUOUS
10
152.388543999999996
20
-95.2352999999999952
11
152.1218769999999836
21
-95.2352999999999952
0
LINE
8
BLACK
6
CONTINUOUS
10
152.65521099999998
20
-95.6353000000000009
11
153.188543999999979
21
-95.6353000000000009
0
LINE
8
BLACK
6
CONTINUOUS
10
153.7552100000000053
20
-95.5686329999999913
11
153.5218769999999893
21
-95.2352999999999952
0
LINE
8
BLACK
6
CONTINUOUS
10
153.3552099999999996
20
-95.5686329999999913
11
153.3552099999999996
21
-94.8686330000000027
0
LINE
8
BLACK
6
CONTINUOUS
10
153.3552099999999996
20
-94.8686330000000027
11
153.6218769999999836
21
-94.8686330000000027
0
LINE
8
BLACK
6
CONTINUOUS
10
153.6218769999999836
20
-94.8686330000000027
11
153.688543999999979
21
-94.9019660000000016
0
LINE
8
BLACK
6
CONTINUOUS
10
153.688543999999979
20
-94.9019660000000016
11
153.7218770000000063
21
-94.935299999999998
0
LINE
8
BLACK
6
CONTINUOUS
10
153.7218770000000063
20
-94.935299999999998
11
153.7552100000000053
21
-95.0019659999999959
0
LINE
8
BLACK
6
CONTINUOUS
10
153.7552100000000053
20
-95.0019659999999959
11
153.7552100000000053
21
-95.1019659999999902
0
LINE
8
BLACK
6
CONTINUOUS
10
153.7552100000000053
20
-95.1019659999999902
11
153.7218770000000063
21
-95.1686329999999998
0
LINE
8
BLACK
6
CONTINUOUS
10
153.7218770000000063
20
-95.1686329999999998
11
153.688543999999979
21
-95.2019659999999988
0
LINE
8
BLACK
6
CONTINUOUS
10
153.688543999999979
20
-95.2019659999999988
11
153.6218769999999836
21
-95.2352999999999952
0
LINE
8
BLACK
6
CONTINUOUS
10
153.6218769999999836
20
-95.2352999999999952
11
153.3552099999999996
21
-95.2352999999999952
0
LINE
8
BLACK
6
CONTINUOUS
10
153.9885439999999903
20
-94.8686330000000027
11
154.4552099999999939
21
-95.5686329999999913
0
LINE
8
BLACK
6
CONTINUOUS
10
154.4552099999999939
20
-94.8686330000000027
11
153.9885439999999903
21
-95.5686329999999913
0
LINE
8
BLACK
6
CONTINUOUS
10
154.7218770000000063
20
-95.5686329999999913
11
154.7218770000000063
21
-94.8686330000000027
0
LINE
8
BLACK
6
CONTINUOUS
10
154.7218770000000063
20
-94.8686330000000027
11
154.888543999999996
21
-94.8686330000000027
0
LINE
8
BLACK
6
CONTINUOUS
10
154.888543999999996
20
-94.8686330000000027
11
154.9885439999999903
21
-94.9019660000000016
0
LINE
8
BLACK
6
CONTINUOUS
10
154.9885439999999903
20
-94.9019660000000016
11
155.0552109999999857
21
-94.968632999999997
0
LINE
8
BLACK
6
CONTINUOUS
10
155.0552109999999857
20
-94.968632999999997
11
155.0885439999999846
21
-95.0352999999999923
0
LINE
8
BLACK
6
CONTINUOUS
10
155.0885439999999846
20
-95.0352999999999923
11
155.1218769999999836
21
-95.1686329999999998
0
LINE
8
BLACK
6
CONTINUOUS
10
155.1218769999999836
20
-95.1686329999999998
11
155.1218769999999836
21
-95.2686329999999941
0
LINE
8
BLACK
6
CONTINUOUS
10
155.1218769999999836
20
-95.2686329999999941
11
155.0885439999999846
21
-95.4019660000000016
0
LINE
8
BLACK
6
CONTINUOUS
10
155.0885439999999846
20
-95.4019660000000016
11
155.0552109999999857
21
-95.468632999999997
0
LINE
8
BLACK
6
CONTINUOUS
10
155.0552109999999857
20
-95.468632999999997
11
154.9885439999999903
21
-95.5352999999999923
0
LINE
8
BLACK
6
CONTINUOUS
10
154.9885439999999903
20
-95.5352999999999923
11
154.888543999999996
21
-95.5686329999999913
0
LINE
8
BLACK
6
CONTINUOUS
10
154.888543999999996
20
-95.5686329999999913
11
154.7218770000000063
21
-95.5686329999999913
0
LINE
8
BLACK
6
CONTINUOUS
10
153.65521099999998
20
-97.4419659999999936
11
153.5885439999999846
21
-97.4086329999999947
0
LINE
8
BLACK
6
CONTINUOUS
10
153.5885439999999846
20
-97.4086329999999947
11
153.4885439999999903
21
-97.4086329999999947
0
LINE
8
BLACK
6
CONTINUOUS
10
153.4885439999999903
20
-97.4086329999999947
11
153.388543999999996
21
-97.4419659999999936
0
LINE
8
BLACK
6
CONTINUOUS
10
153.388543999999996
20
-97.4419659999999936
11
153.3218779999999981
21
-97.508632999999989
0
LINE
8
BLACK
6
CONTINUOUS
10
153.3218779999999981
20
-97.508632999999989
11
153.2885440000000017
21
-97.5752999999999986
0
LINE
8
BLACK
6
CONTINUOUS
10
153.2885440000000017
20
-97.5752999999999986
11
153.2552110000000027
21
-97.7086329999999919
0
LINE
8
BLACK
6
CONTINUOUS
10
153.2552110000000027
20
-97.7086329999999919
11
153.2552110000000027
21
-97.8086330000000004
0
LINE
8
BLACK
6
CONTINUOUS
10
153.2552110000000027
20
-97.8086330000000004
11
153.2885440000000017
21
-97.9419659999999936
0
LINE
8
BLACK
6
CONTINUOUS
10
153.2885440000000017
20
-97.9419659999999936
11
153.3218779999999981
21
-98.008632999999989
0
LINE
8
BLACK
6
CONTINUOUS
10
153.3218779999999981
20
-98.008632999999989
11
153.388543999999996
21
-98.0752999999999986
0
LINE
8
BLACK
6
CONTINUOUS
10
153.388543999999996
20
-98.0752999999999986
11
153.4885439999999903
21
-98.1086329999999975
0
LINE
8
BLACK
6
CONTINUOUS
10
153.4885439999999903
20
-98.1086329999999975
11
153.5552109999999857
21
-98.1086329999999975
0
LINE
8
BLACK
6
CONTINUOUS
10
153.5552109999999857
20
-98.1086329999999975
11
153.65521099999998
21
-98.0752999999999986
0
LINE
8
BLACK
6
CONTINUOUS
10
153.65521099999998
20
-98.0752999999999986
11
153.688543999999979
21
-98.0419660000000022
0
LINE
8
BLACK
6
CONTINUOUS
10
153.688543999999979
20
-98.0419660000000022
11
153.688543999999979
21
-97.8086330000000004
0
LINE
8
BLACK
6
CONTINUOUS
10
153.688543999999979
20
-97.8086330000000004
11
153.5552109999999857
21
-97.8086330000000004
0
LINE
8
BLACK
6
CONTINUOUS
10
153.9885439999999903
20
-98.1086329999999975
11
153.9885439999999903
21
-97.4086329999999947
0
LINE
8
BLACK
6
CONTINUOUS
10
153.9885439999999903
20
-97.4086329999999947
11
154.388543999999996
21
-98.1086329999999975
0
LINE
8
BLACK
6
CONTINUOUS
10
154.388543999999996
20
-98.1086329999999975
11
154.388543999999996
21
-97.4086329999999947
0
LINE
8
BLACK
6
CONTINUOUS
10
154.7218770000000063
20
-98.1086329999999975
11
154.7218770000000063
21
-97.4086329999999947
0
LINE
8
BLACK
6
CONTINUOUS
10
154.7218770000000063
20
-97.4086329999999947
11
154.888543999999996
21
-97.4086329999999947
0
LINE
8
BLACK
6
CONTINUOUS
10
154.888543999999996
20
-97.4086329999999947
11
154.9885439999999903
21
-97.4419659999999936
0
LINE
8
BLACK
6
CONTINUOUS
10
154.9885439999999903
20
-97.4419659999999936
11
155.0552109999999857
21
-97.508632999999989
0
LINE
8
BLACK
6
CONTINUOUS
10
155.0552109999999857
20
-97.508632999999989
11
155.0885439999999846
21
-97.5752999999999986
0
LINE
8
BLACK
6
CONTINUOUS
10
155.0885439999999846
20
-97.5752999999999986
11
155.1218769999999836
21
-97.7086329999999919
0
LINE
8
BLACK
6
CONTINUOUS
10
155.1218769999999836
20
-97.7086329999999919
11
155.1218769999999836
21
-97.8086330000000004
0
LINE
8
BLACK
6
CONTINUOUS
10
155.1218769999999836
20
-97.8086330000000004
11
155.0885439999999846
21
-97.9419659999999936
0
LINE
8
BLACK
6
CONTINUOUS
10
155.0885439999999846
20
-97.9419659999999936
11
155.0552109999999857
21
-98.008632999999989
0
LINE
8
BLACK
6
CONTINUOUS
10
155.0552109999999857
20
-98.008632999999989
11
154.9885439999999903
21
-98.0752999999999986
0
LINE
8
BLACK
6
CONTINUOUS
10
154.9885439999999903
20
-98.0752999999999986
11
154.888543999999996
21
-98.1086329999999975
0
LINE
8
BLACK
6
CONTINUOUS
10
154.888543999999996
20
-98.1086329999999975
11
154.7218770000000063
21
-98.1086329999999975
0
LINE
8
BLACK
6
CONTINUOUS
10
125.7759999999999962
20
-75.9430329999999998
11
125.8426659999999941
21
-75.9430329999999998
0
LINE
8
BLACK
6
CONTINUOUS
10
125.8426659999999941
20
-75.9430329999999998
11
125.9093329999999895
21
-75.9763659999999987
0
LINE
8
BLACK
6
CONTINUOUS
10
125.9093329999999895
20
-75.9763659999999987
11
125.9426659999999885
21
-76.0096999999999952
0
LINE
8
BLACK
6
CONTINUOUS
10
125.9426659999999885
20
-76.0096999999999952
11
125.9759999999999991
21
-76.0763659999999931
0
LINE
8
BLACK
6
CONTINUOUS
10
125.9759999999999991
20
-76.0763659999999931
11
126.009332999999998
21
-76.209699999999998
0
LINE
8
BLACK
6
CONTINUOUS
10
126.009332999999998
20
-76.209699999999998
11
126.009332999999998
21
-76.3763659999999902
0
LINE
8
BLACK
6
CONTINUOUS
10
126.009332999999998
20
-76.3763659999999902
11
125.9759999999999991
21
-76.5096999999999952
0
LINE
8
BLACK
6
CONTINUOUS
10
125.9759999999999991
20
-76.5096999999999952
11
125.9426659999999885
21
-76.5763659999999931
0
LINE
8
BLACK
6
CONTINUOUS
10
125.9426659999999885
20
-76.5763659999999931
11
125.9093329999999895
21
-76.6096999999999895
0
LINE
8
BLACK
6
CONTINUOUS
10
125.9093329999999895
20
-76.6096999999999895
11
125.8426659999999941
21
-76.6430330000000026
0
LINE
8
BLACK
6
CONTINUOUS
10
125.8426659999999941
20
-76.6430330000000026
11
125.7759999999999962
21
-76.6430330000000026
0
LINE
8
BLACK
6
CONTINUOUS
10
125.7759999999999962
20
-76.6430330000000026
11
125.7093330000000009
21
-76.6096999999999895
0
LINE
8
BLACK
6
CONTINUOUS
10
125.7093330000000009
20
-76.6096999999999895
11
125.6759999999999877
21
-76.5763659999999931
0
LINE
8
BLACK
6
CONTINUOUS
10
125.6759999999999877
20
-76.5763659999999931
11
125.6426659999999913
21
-76.5096999999999952
0
LINE
8
BLACK
6
CONTINUOUS
10
125.6426659999999913
20
-76.5096999999999952
11
125.6093329999999924
21
-76.3763659999999902
0
LINE
8
BLACK
6
CONTINUOUS
10
125.6093329999999924
20
-76.3763659999999902
11
125.6093329999999924
21
-76.209699999999998
0
LINE
8
BLACK
6
CONTINUOUS
10
125.6093329999999924
20
-76.209699999999998
11
125.6426659999999913
21
-76.0763659999999931
0
LINE
8
BLACK
6
CONTINUOUS
10
125.6426659999999913
20
-76.0763659999999931
11
125.6759999999999877
21
-76.0096999999999952
0
LINE
8
BLACK
6
CONTINUOUS
10
125.6759999999999877
20
-76.0096999999999952
11
125.7093330000000009
21
-75.9763659999999987
0
LINE
8
BLACK
6
CONTINUOUS
10
125.7093330000000009
20
-75.9763659999999987
11
125.7759999999999962
21
-75.9430329999999998
0
LINE
8
BLACK
6
CONTINUOUS
10
126.3093329999999952
20
-76.5763659999999931
11
126.3426669999999916
21
-76.6096999999999895
0
LINE
8
BLACK
6
CONTINUOUS
10
126.3426669999999916
20
-76.6096999999999895
11
126.3093329999999952
21
-76.6430330000000026
0
LINE
8
BLACK
6
CONTINUOUS
10
126.3093329999999952
20
-76.6430330000000026
11
126.2759999999999962
21
-76.6096999999999895
0
LINE
8
BLACK
6
CONTINUOUS
10
126.2759999999999962
20
-76.6096999999999895
11
126.3093329999999952
21
-76.5763659999999931
0
LINE
8
BLACK
6
CONTINUOUS
10
126.3093329999999952
20
-76.5763659999999931
11
126.3093329999999952
21
-76.6430330000000026
0
LINE
8
BLACK
6
CONTINUOUS
10
127.009332999999998
20
-76.6430330000000026
11
126.6093329999999924
21
-76.6430330000000026
0
LINE
8
BLACK
6
CONTINUOUS
10
126.8093329999999952
20
-76.6430330000000026
11
126.8093329999999952
21
-75.9430329999999998
0
LINE
8
BLACK
6
CONTINUOUS
10
126.8093329999999952
20
-75.9430329999999998
11
126.7426659999999998
21
-76.0430329999999941
0
LINE
8
BLACK
6
CONTINUOUS
10
126.7426659999999998
20
-76.0430329999999941
11
126.6759999999999877
21
-76.1096999999999895
0
LINE
8
BLACK
6
CONTINUOUS
10
126.6759999999999877
20
-76.1096999999999895
11
126.6093329999999924
21
-76.1430330000000026
0
LINE
8
BLACK
6
CONTINUOUS
10
127.6093329999999924
20
-76.1763660000000016
11
127.6093329999999924
21
-76.6430330000000026
0
LINE
8
BLACK
6
CONTINUOUS
10
127.3093329999999952
20
-76.1763660000000016
11
127.3093329999999952
21
-76.5430329999999941
0
LINE
8
BLACK
6
CONTINUOUS
10
127.3093329999999952
20
-76.5430329999999941
11
127.3426669999999916
21
-76.6096999999999895
0
LINE
8
BLACK
6
CONTINUOUS
10
127.3426669999999916
20
-76.6096999999999895
11
127.4093329999999895
21
-76.6430330000000026
0
LINE
8
BLACK
6
CONTINUOUS
10
127.4093329999999895
20
-76.6430330000000026
11
127.509332999999998
21
-76.6430330000000026
0
LINE
8
BLACK
6
CONTINUOUS
10
127.509332999999998
20
-76.6430330000000026
11
127.5759999999999934
21
-76.6096999999999895
0
LINE
8
BLACK
6
CONTINUOUS
10
127.5759999999999934
20
-76.6096999999999895
11
127.6093329999999924
21
-76.5763659999999931
0
LINE
8
BLACK
6
CONTINUOUS
10
128.1759999999999877
20
-76.2763659999999959
11
127.9426659999999885
21
-76.2763659999999959
0
LINE
8
BLACK
6
CONTINUOUS
10
127.9426659999999885
20
-76.6430330000000026
11
127.9426659999999885
21
-75.9430329999999998
0
LINE
8
BLACK
6
CONTINUOUS
10
127.9426659999999885
20
-75.9430329999999998
11
128.275999999999982
21
-75.9430329999999998
0
LINE
8
BLACK
6
CONTINUOUS
10
126.9476659999999981
20
-74.7380330000000015
11
126.5476659999999924
21
-74.7380330000000015
0
LINE
8
BLACK
6
CONTINUOUS
10
126.7476659999999953
20
-74.7380330000000015
11
126.7476659999999953
21
-74.0380329999999987
0
LINE
8
BLACK
6
CONTINUOUS
10
126.7476659999999953
20
-74.0380329999999987
11
126.6809989999999999
21
-74.138032999999993
0
LINE
8
BLACK
6
CONTINUOUS
10
126.6809989999999999
20
-74.138032999999993
11
126.6143329999999878
21
-74.2047000000000025
0
LINE
8
BLACK
6
CONTINUOUS
10
126.6143329999999878
20
-74.2047000000000025
11
126.5476659999999924
21
-74.2380330000000015
0
LINE
8
BLACK
6
CONTINUOUS
10
127.3810000000000002
20
-74.0380329999999987
11
127.4476659999999981
21
-74.0380329999999987
0
LINE
8
BLACK
6
CONTINUOUS
10
127.4476659999999981
20
-74.0380329999999987
11
127.5143329999999935
21
-74.0713659999999976
0
LINE
8
BLACK
6
CONTINUOUS
10
127.5143329999999935
20
-74.0713659999999976
11
127.5476659999999924
21
-74.104699999999994
0
LINE
8
BLACK
6
CONTINUOUS
10
127.5476659999999924
20
-74.104699999999994
11
127.5809999999999889
21
-74.1713659999999919
0
LINE
8
BLACK
6
CONTINUOUS
10
127.5809999999999889
20
-74.1713659999999919
11
127.6143329999999878
21
-74.3046999999999969
0
LINE
8
BLACK
6
CONTINUOUS
10
127.6143329999999878
20
-74.3046999999999969
11
127.6143329999999878
21
-74.4713660000000033
0
LINE
8
BLACK
6
CONTINUOUS
10
127.6143329999999878
20
-74.4713660000000033
11
127.5809999999999889
21
-74.604699999999994
0
LINE
8
BLACK
6
CONTINUOUS
10
127.5809999999999889
20
-74.604699999999994
11
127.5476659999999924
21
-74.6713659999999919
0
LINE
8
BLACK
6
CONTINUOUS
10
127.5476659999999924
20
-74.6713659999999919
11
127.5143329999999935
21
-74.7047000000000025
0
LINE
8
BLACK
6
CONTINUOUS
10
127.5143329999999935
20
-74.7047000000000025
11
127.4476659999999981
21
-74.7380330000000015
0
LINE
8
BLACK
6
CONTINUOUS
10
127.4476659999999981
20
-74.7380330000000015
11
127.3810000000000002
21
-74.7380330000000015
0
LINE
8
BLACK
6
CONTINUOUS
10
127.3810000000000002
20
-74.7380330000000015
11
127.3143329999999906
21
-74.7047000000000025
0
LINE
8
BLACK
6
CONTINUOUS
10
127.3143329999999906
20
-74.7047000000000025
11
127.2809999999999917
21
-74.6713659999999919
0
LINE
8
BLACK
6
CONTINUOUS
10
127.2809999999999917
20
-74.6713659999999919
11
127.2476659999999953
21
-74.604699999999994
0
LINE
8
BLACK
6
CONTINUOUS
10
127.2476659999999953
20
-74.604699999999994
11
127.2143329999999963
21
-74.4713660000000033
0
LINE
8
BLACK
6
CONTINUOUS
10
127.2143329999999963
20
-74.4713660000000033
11
127.2143329999999963
21
-74.3046999999999969
0
LINE
8
BLACK
6
CONTINUOUS
10
127.2143329999999963
20
-74.3046999999999969
11
127.2476659999999953
21
-74.1713659999999919
0
LINE
8
BLACK
6
CONTINUOUS
10
127.2476659999999953
20
-74.1713659999999919
11
127.2809999999999917
21
-74.104699999999994
0
LINE
8
BLACK
6
CONTINUOUS
10
127.2809999999999917
20
-74.104699999999994
11
127.3143329999999906
21
-74.0713659999999976
0
LINE
8
BLACK
6
CONTINUOUS
10
127.3143329999999906
20
-74.0713659999999976
11
127.3810000000000002
21
-74.0380329999999987
0
LINE
8
BLACK
6
CONTINUOUS
10
127.9143329999999992
20
-74.7380330000000015
11
127.9143329999999992
21
-74.0380329999999987
0
LINE
8
BLACK
6
CONTINUOUS
10
128.3143330000000049
20
-74.7380330000000015
11
128.0143329999999935
21
-74.3380329999999958
0
LINE
8
BLACK
6
CONTINUOUS
10
128.3143330000000049
20
-74.0380329999999987
11
127.9143329999999992
21
-74.4380329999999901
0
LINE
8
BLACK
6
CONTINUOUS
10
127.1907609999999949
20
-90.4208189999999945
11
126.7145709999999923
21
-90.4208189999999945
0
LINE
8
BLACK
6
CONTINUOUS
10
126.7145709999999923
20
-90.4208189999999945
11
126.7145709999999923
21
-89.4208189999999945
0
LINE
8
BLACK
6
CONTINUOUS
10
127.5240949999999884
20
-90.4208189999999945
11
127.5240949999999884
21
-89.4208189999999945
0
LINE
8
BLACK
6
CONTINUOUS
10
127.5240949999999884
20
-89.4208189999999945
11
127.7621899999999897
21
-89.4208189999999945
0
LINE
8
BLACK
6
CONTINUOUS
10
127.7621899999999897
20
-89.4208189999999945
11
127.9050469999999962
21
-89.4684379999999919
0
LINE
8
BLACK
6
CONTINUOUS
10
127.9050469999999962
20
-89.4684379999999919
11
128.000284999999991
21
-89.563676000000001
0
LINE
8
BLACK
6
CONTINUOUS
10
128.000284999999991
20
-89.563676000000001
11
128.0479039999999884
21
-89.6589139999999958
0
LINE
8
BLACK
6
CONTINUOUS
10
128.0479039999999884
20
-89.6589139999999958
11
128.0955229999999858
21
-89.8493899999999996
0
LINE
8
BLACK
6
CONTINUOUS
10
128.0955229999999858
20
-89.8493899999999996
11
128.0955229999999858
21
-89.9922469999999919
0
LINE
8
BLACK
6
CONTINUOUS
10
128.0955229999999858
20
-89.9922469999999919
11
128.0479039999999884
21
-90.1827229999999957
0
LINE
8
BLACK
6
CONTINUOUS
10
128.0479039999999884
20
-90.1827229999999957
11
128.000284999999991
21
-90.2779609999999906
0
LINE
8
BLACK
6
CONTINUOUS
10
128.000284999999991
20
-90.2779609999999906
11
127.9050469999999962
21
-90.3731999999999971
0
LINE
8
BLACK
6
CONTINUOUS
10
127.9050469999999962
20
-90.3731999999999971
11
127.7621899999999897
21
-90.4208189999999945
0
LINE
8
BLACK
6
CONTINUOUS
10
127.7621899999999897
20
-90.4208189999999945
11
127.5240949999999884
21
-90.4208189999999945
0
LINE
8
BLACK
6
CONTINUOUS
10
129.0479039999999884
20
-90.4208189999999945
11
128.476475999999991
21
-90.4208189999999945
0
LINE
8
BLACK
6
CONTINUOUS
10
128.7621900000000039
20
-90.4208189999999945
11
128.7621900000000039
21
-89.4208189999999945
0
LINE
8
BLACK
6
CONTINUOUS
10
128.7621900000000039
20
-89.4208189999999945
11
128.6669519999999807
21
-89.563676000000001
0
LINE
8
BLACK
6
CONTINUOUS
10
128.6669519999999807
20
-89.563676000000001
11
128.5717139999999858
21
-89.6589139999999958
0
LINE
8
BLACK
6
CONTINUOUS
10
128.5717139999999858
20
-89.6589139999999958
11
128.476475999999991
21
-89.7065329999999932
0
LINE
8
BLACK
6
CONTINUOUS
10
130.000284999999991
20
-90.4208189999999945
11
129.4288569999999936
21
-90.4208189999999945
0
LINE
8
BLACK
6
CONTINUOUS
10
129.7145710000000065
20
-90.4208189999999945
11
129.7145710000000065
21
-89.4208189999999945
0
LINE
8
BLACK
6
CONTINUOUS
10
129.7145710000000065
20
-89.4208189999999945
11
129.6193329999999833
21
-89.563676000000001
0
LINE
8
BLACK
6
CONTINUOUS
10
129.6193329999999833
20
-89.563676000000001
11
129.5240949999999884
21
-89.6589139999999958
0
LINE
8
BLACK
6
CONTINUOUS
10
129.5240949999999884
20
-89.6589139999999958
11
129.4288569999999936
21
-89.7065329999999932
0
LINE
8
BLACK
6
CONTINUOUS
10
130.9526659999999936
20
-90.4208189999999945
11
130.3812379999999962
21
-90.4208189999999945
0
LINE
8
BLACK
6
CONTINUOUS
10
130.6669519999999807
20
-90.4208189999999945
11
130.6669519999999807
21
-89.4208189999999945
0
LINE
8
BLACK
6
CONTINUOUS
10
130.6669519999999807
20
-89.4208189999999945
11
130.5717139999999858
21
-89.563676000000001
0
LINE
8
BLACK
6
CONTINUOUS
10
130.5717139999999858
20
-89.563676000000001
11
130.476475999999991
21
-89.6589139999999958
0
LINE
8
BLACK
6
CONTINUOUS
10
130.476475999999991
20
-89.6589139999999958
11
130.3812379999999962
21
-89.7065329999999932
0
LINE
8
BLACK
6
CONTINUOUS
10
131.2860000000000014
20
-89.4208189999999945
11
131.9526659999999936
21
-89.4208189999999945
0
LINE
8
BLACK
6
CONTINUOUS
10
131.9526659999999936
20
-89.4208189999999945
11
131.5240949999999884
21
-90.4208189999999945
0
LINE
8
BLACK
6
CONTINUOUS
10
140.6136659999999949
20
-89.7240329999999915
11
140.2136659999999893
21
-89.7240329999999915
0
LINE
8
BLACK
6
CONTINUOUS
10
140.4136660000000063
20
-89.7240329999999915
11
140.4136660000000063
21
-89.0240330000000029
0
LINE
8
BLACK
6
CONTINUOUS
10
140.4136660000000063
20
-89.0240330000000029
11
140.3469989999999825
21
-89.1240329999999972
0
LINE
8
BLACK
6
CONTINUOUS
10
140.3469989999999825
20
-89.1240329999999972
11
140.2803329999999846
21
-89.1906999999999925
0
LINE
8
BLACK
6
CONTINUOUS
10
140.2803329999999846
20
-89.1906999999999925
11
140.2136659999999893
21
-89.2240329999999915
0
LINE
8
BLACK
6
CONTINUOUS
10
141.046999999999997
20
-89.0240330000000029
11
141.1136659999999949
21
-89.0240330000000029
0
LINE
8
BLACK
6
CONTINUOUS
10
141.1136659999999949
20
-89.0240330000000029
11
141.1803329999999903
21
-89.0573660000000018
0
LINE
8
BLACK
6
CONTINUOUS
10
141.1803329999999903
20
-89.0573660000000018
11
141.2136659999999893
21
-89.0906999999999982
0
LINE
8
BLACK
6
CONTINUOUS
10
141.2136659999999893
20
-89.0906999999999982
11
141.2469999999999857
21
-89.1573659999999961
0
LINE
8
BLACK
6
CONTINUOUS
10
141.2469999999999857
20
-89.1573659999999961
11
141.2803329999999846
21
-89.2907000000000011
0
LINE
8
BLACK
6
CONTINUOUS
10
141.2803329999999846
20
-89.2907000000000011
11
141.2803329999999846
21
-89.4573659999999933
0
LINE
8
BLACK
6
CONTINUOUS
10
141.2803329999999846
20
-89.4573659999999933
11
141.2469999999999857
21
-89.5906999999999982
0
LINE
8
BLACK
6
CONTINUOUS
10
141.2469999999999857
20
-89.5906999999999982
11
141.2136659999999893
21
-89.6573659999999961
0
LINE
8
BLACK
6
CONTINUOUS
10
141.2136659999999893
20
-89.6573659999999961
11
141.1803329999999903
21
-89.6906999999999925
0
LINE
8
BLACK
6
CONTINUOUS
10
141.1803329999999903
20
-89.6906999999999925
11
141.1136659999999949
21
-89.7240329999999915
0
LINE
8
BLACK
6
CONTINUOUS
10
141.1136659999999949
20
-89.7240329999999915
11
141.046999999999997
21
-89.7240329999999915
0
LINE
8
BLACK
6
CONTINUOUS
10
141.046999999999997
20
-89.7240329999999915
11
140.9803330000000017
21
-89.6906999999999925
0
LINE
8
BLACK
6
CONTINUOUS
10
140.9803330000000017
20
-89.6906999999999925
11
140.9470000000000027
21
-89.6573659999999961
0
LINE
8
BLACK
6
CONTINUOUS
10
140.9470000000000027
20
-89.6573659999999961
11
140.9136660000000063
21
-89.5906999999999982
0
LINE
8
BLACK
6
CONTINUOUS
10
140.9136660000000063
20
-89.5906999999999982
11
140.8803330000000074
21
-89.4573659999999933
0
LINE
8
BLACK
6
CONTINUOUS
10
140.8803330000000074
20
-89.4573659999999933
11
140.8803330000000074
21
-89.2907000000000011
0
LINE
8
BLACK
6
CONTINUOUS
10
140.8803330000000074
20
-89.2907000000000011
11
140.9136660000000063
21
-89.1573659999999961
0
LINE
8
BLACK
6
CONTINUOUS
10
140.9136660000000063
20
-89.1573659999999961
11
140.9470000000000027
21
-89.0906999999999982
0
LINE
8
BLACK
6
CONTINUOUS
10
140.9470000000000027
20
-89.0906999999999982
11
140.9803330000000017
21
-89.0573660000000018
0
LINE
8
BLACK
6
CONTINUOUS
10
140.9803330000000017
20
-89.0573660000000018
11
141.046999999999997
21
-89.0240330000000029
0
LINE
8
BLACK
6
CONTINUOUS
10
141.580332999999996
20
-89.7240329999999915
11
141.580332999999996
21
-89.0240330000000029
0
LINE
8
BLACK
6
CONTINUOUS
10
141.9803330000000017
20
-89.7240329999999915
11
141.6803329999999903
21
-89.324033
0
LINE
8
BLACK
6
CONTINUOUS
10
141.9803330000000017
20
-89.0240330000000029
11
141.580332999999996
21
-89.4240329999999943
0
LINE
8
BLACK
6
CONTINUOUS
10
127.0615799999999922
20
-98.1628570000000025
11
127.1092000000000013
21
-98.2104759999999999
0
LINE
8
BLACK
6
CONTINUOUS
10
127.1092000000000013
20
-98.2104759999999999
11
127.1568189999999987
21
-98.3533329999999921
0
LINE
8
BLACK
6
CONTINUOUS
10
127.1568189999999987
20
-98.3533329999999921
11
127.1568189999999987
21
-98.4485710000000012
0
LINE
8
BLACK
6
CONTINUOUS
10
127.1568189999999987
20
-98.4485710000000012
11
127.1092000000000013
21
-98.5914279999999934
0
LINE
8
BLACK
6
CONTINUOUS
10
127.1092000000000013
20
-98.5914279999999934
11
127.0139609999999948
21
-98.6866660000000024
0
LINE
8
BLACK
6
CONTINUOUS
10
127.0139609999999948
20
-98.6866660000000024
11
126.918723
21
-98.7342849999999999
0
LINE
8
BLACK
6
CONTINUOUS
10
126.918723
20
-98.7342849999999999
11
126.7282469999999961
21
-98.7819039999999973
0
LINE
8
BLACK
6
CONTINUOUS
10
126.7282469999999961
20
-98.7819039999999973
11
126.5853899999999896
21
-98.7819039999999973
0
LINE
8
BLACK
6
CONTINUOUS
10
126.5853899999999896
20
-98.7819039999999973
11
126.394914
21
-98.7342849999999999
0
LINE
8
BLACK
6
CONTINUOUS
10
126.394914
20
-98.7342849999999999
11
126.2996759999999909
21
-98.6866660000000024
0
LINE
8
BLACK
6
CONTINUOUS
10
126.2996759999999909
20
-98.6866660000000024
11
126.2044379999999961
21
-98.5914279999999934
0
LINE
8
BLACK
6
CONTINUOUS
10
126.2044379999999961
20
-98.5914279999999934
11
126.1568189999999987
21
-98.4485710000000012
0
LINE
8
BLACK
6
CONTINUOUS
10
126.1568189999999987
20
-98.4485710000000012
11
126.1568189999999987
21
-98.3533329999999921
0
LINE
8
BLACK
6
CONTINUOUS
10
126.1568189999999987
20
-98.3533329999999921
11
126.2044379999999961
21
-98.2104759999999999
0
LINE
8
BLACK
6
CONTINUOUS
10
126.2044379999999961
20
-98.2104759999999999
11
126.2520569999999935
21
-98.1628570000000025
0
LINE
8
BLACK
6
CONTINUOUS
10
127.1568189999999987
20
-97.7342849999999999
11
126.1568189999999987
21
-97.7342849999999999
0
LINE
8
BLACK
6
CONTINUOUS
10
126.1568189999999987
20
-97.7342849999999999
11
127.1568189999999987
21
-97.1628570000000025
0
LINE
8
BLACK
6
CONTINUOUS
10
127.1568189999999987
20
-97.1628570000000025
11
126.1568189999999987
21
-97.1628570000000025
0
LINE
8
BLACK
6
CONTINUOUS
10
127.1568189999999987
20
-96.1628570000000025
11
127.1568189999999987
21
-96.7342849999999999
0
LINE
8
BLACK
6
CONTINUOUS
10
127.1568189999999987
20
-96.4485710000000012
11
126.1568189999999987
21
-96.4485710000000012
0
LINE
8
BLACK
6
CONTINUOUS
10
126.1568189999999987
20
-96.4485710000000012
11
126.2996759999999909
21
-96.543808999999996
0
LINE
8
BLACK
6
CONTINUOUS
10
126.2996759999999909
20
-96.543808999999996
11
126.394914
21
-96.6390469999999908
0
LINE
8
BLACK
6
CONTINUOUS
10
126.394914
20
-96.6390469999999908
11
126.4425329999999974
21
-96.7342849999999999
0
LINE
8
BLACK
6
CONTINUOUS
10
126.1568189999999987
20
-95.543808999999996
11
126.1568189999999987
21
-95.4485710000000012
0
LINE
8
BLACK
6
CONTINUOUS
10
126.1568189999999987
20
-95.4485710000000012
11
126.2044379999999961
21
-95.3533329999999921
0
LINE
8
BLACK
6
CONTINUOUS
10
126.2044379999999961
20
-95.3533329999999921
11
126.2520569999999935
21
-95.3057139999999947
0
LINE
8
BLACK
6
CONTINUOUS
10
126.2520569999999935
20
-95.3057139999999947
11
126.3472949999999884
21
-95.2580949999999973
0
LINE
8
BLACK
6
CONTINUOUS
10
126.3472949999999884
20
-95.2580949999999973
11
126.5377709999999922
21
-95.2104759999999999
0
LINE
8
BLACK
6
CONTINUOUS
10
126.5377709999999922
20
-95.2104759999999999
11
126.7758659999999935
21
-95.2104759999999999
0
LINE
8
BLACK
6
CONTINUOUS
10
126.7758659999999935
20
-95.2104759999999999
11
126.9663419999999974
21
-95.2580949999999973
0
LINE
8
BLACK
6
CONTINUOUS
10
126.9663419999999974
20
-95.2580949999999973
11
127.0615799999999922
21
-95.3057139999999947
0
LINE
8
BLACK
6
CONTINUOUS
10
127.0615799999999922
20
-95.3057139999999947
11
127.1092000000000013
21
-95.3533329999999921
0
LINE
8
BLACK
6
CONTINUOUS
10
127.1092000000000013
20
-95.3533329999999921
11
127.1568189999999987
21
-95.4485710000000012
0
LINE
8
BLACK
6
CONTINUOUS
10
127.1568189999999987
20
-95.4485710000000012
11
127.1568189999999987
21
-95.543808999999996
0
LINE
8
BLACK
6
CONTINUOUS
10
127.1568189999999987
20
-95.543808999999996
11
127.1092000000000013
21
-95.6390469999999908
0
LINE
8
BLACK
6
CONTINUOUS
10
127.1092000000000013
20
-95.6390469999999908
11
127.0615799999999922
21
-95.6866660000000024
0
LINE
8
BLACK
6
CONTINUOUS
10
127.0615799999999922
20
-95.6866660000000024
11
126.9663419999999974
21
-95.7342849999999999
0
LINE
8
BLACK
6
CONTINUOUS
10
126.9663419999999974
20
-95.7342849999999999
11
126.7758659999999935
21
-95.7819039999999973
0
LINE
8
BLACK
6
CONTINUOUS
10
126.7758659999999935
20
-95.7819039999999973
11
126.5377709999999922
21
-95.7819039999999973
0
LINE
8
BLACK
6
CONTINUOUS
10
126.5377709999999922
20
-95.7819039999999973
11
126.3472949999999884
21
-95.7342849999999999
0
LINE
8
BLACK
6
CONTINUOUS
10
126.3472949999999884
20
-95.7342849999999999
11
126.2520569999999935
21
-95.6866660000000024
0
LINE
8
BLACK
6
CONTINUOUS
10
126.2520569999999935
20
-95.6866660000000024
11
126.2044379999999961
21
-95.6390469999999908
0
LINE
8
BLACK
6
CONTINUOUS
10
126.2044379999999961
20
-95.6390469999999908
11
126.1568189999999987
21
-95.543808999999996
0
LINE
8
BLACK
6
CONTINUOUS
10
126.1568189999999987
20
-94.3057139999999947
11
126.1568189999999987
21
-94.7819039999999973
0
LINE
8
BLACK
6
CONTINUOUS
10
126.1568189999999987
20
-94.7819039999999973
11
126.6330090000000013
21
-94.8295229999999947
0
LINE
8
BLACK
6
CONTINUOUS
10
126.6330090000000013
20
-94.8295229999999947
11
126.5853899999999896
21
-94.7819039999999973
0
LINE
8
BLACK
6
CONTINUOUS
10
126.5853899999999896
20
-94.7819039999999973
11
126.5377709999999922
21
-94.6866660000000024
0
LINE
8
BLACK
6
CONTINUOUS
10
126.5377709999999922
20
-94.6866660000000024
11
126.5377709999999922
21
-94.4485710000000012
0
LINE
8
BLACK
6
CONTINUOUS
10
126.5377709999999922
20
-94.4485710000000012
11
126.5853899999999896
21
-94.3533329999999921
0
LINE
8
BLACK
6
CONTINUOUS
10
126.5853899999999896
20
-94.3533329999999921
11
126.6330090000000013
21
-94.3057139999999947
0
LINE
8
BLACK
6
CONTINUOUS
10
126.6330090000000013
20
-94.3057139999999947
11
126.7282469999999961
21
-94.2580949999999973
0
LINE
8
BLACK
6
CONTINUOUS
10
126.7282469999999961
20
-94.2580949999999973
11
126.9663419999999974
21
-94.2580949999999973
0
LINE
8
BLACK
6
CONTINUOUS
10
126.9663419999999974
20
-94.2580949999999973
11
127.0615799999999922
21
-94.3057139999999947
0
LINE
8
BLACK
6
CONTINUOUS
10
127.0615799999999922
20
-94.3057139999999947
11
127.1092000000000013
21
-94.3533329999999921
0
LINE
8
BLACK
6
CONTINUOUS
10
127.1092000000000013
20
-94.3533329999999921
11
127.1568189999999987
21
-94.4485710000000012
0
LINE
8
BLACK
6
CONTINUOUS
10
127.1568189999999987
20
-94.4485710000000012
11
127.1568189999999987
21
-94.6866660000000024
0
LINE
8
BLACK
6
CONTINUOUS
10
127.1568189999999987
20
-94.6866660000000024
11
127.1092000000000013
21
-94.7819039999999973
0
LINE
8
BLACK
6
CONTINUOUS
10
127.1092000000000013
20
-94.7819039999999973
11
127.0615799999999922
21
-94.8295229999999947
0
LINE
8
BLACK
6
CONTINUOUS
10
139.5080329999999833
20
-94.92133299999999
11
139.5080329999999833
21
-95.3213329999999956
0
LINE
8
BLACK
6
CONTINUOUS
10
139.5080329999999833
20
-95.1213329999999928
11
138.8080329999999947
21
-95.1213329999999928
0
LINE
8
BLACK
6
CONTINUOUS
10
138.8080329999999947
20
-95.1213329999999928
11
138.908032999999989
21
-95.1880000000000024
0
LINE
8
BLACK
6
CONTINUOUS
10
138.908032999999989
20
-95.1880000000000024
11
138.9746999999999844
21
-95.2546669999999978
0
LINE
8
BLACK
6
CONTINUOUS
10
138.9746999999999844
20
-95.2546669999999978
11
139.0080329999999833
21
-95.3213329999999956
0
LINE
8
BLACK
6
CONTINUOUS
10
138.87469999999999
20
-94.6546659999999918
11
138.8413659999999936
21
-94.6213329999999928
0
LINE
8
BLACK
6
CONTINUOUS
10
138.8413659999999936
20
-94.6213329999999928
11
138.8080329999999947
21
-94.5546659999999974
0
LINE
8
BLACK
6
CONTINUOUS
10
138.8080329999999947
20
-94.5546659999999974
11
138.8080329999999947
21
-94.387999999999991
0
LINE
8
BLACK
6
CONTINUOUS
10
138.8080329999999947
20
-94.387999999999991
11
138.8413659999999936
21
-94.3213329999999956
0
LINE
8
BLACK
6
CONTINUOUS
10
138.8413659999999936
20
-94.3213329999999956
11
138.87469999999999
21
-94.2879999999999967
0
LINE
8
BLACK
6
CONTINUOUS
10
138.87469999999999
20
-94.2879999999999967
11
138.9413659999999879
21
-94.2546660000000003
0
LINE
8
BLACK
6
CONTINUOUS
10
138.9413659999999879
20
-94.2546660000000003
11
139.0080329999999833
21
-94.2546660000000003
0
LINE
8
BLACK
6
CONTINUOUS
10
139.0080329999999833
20
-94.2546660000000003
11
139.108033000000006
21
-94.2879999999999967
0
LINE
8
BLACK
6
CONTINUOUS
10
139.108033000000006
20
-94.2879999999999967
11
139.5080329999999833
21
-94.6880000000000024
0
LINE
8
BLACK
6
CONTINUOUS
10
139.5080329999999833
20
-94.6880000000000024
11
139.5080329999999833
21
-94.2546660000000003
0
LINE
8
BLACK
6
CONTINUOUS
10
138.8080329999999947
20
-94.0546659999999974
11
139.5080329999999833
21
-93.8213329999999956
0
LINE
8
BLACK
6
CONTINUOUS
10
139.5080329999999833
20
-93.8213329999999956
11
138.8080329999999947
21
-93.5879989999999964
0
LINE
8
BLACK
6
CONTINUOUS
10
136.3013660000000016
20
-95.021332000000001
11
136.2680330000000026
21
-95.0879989999999964
0
LINE
8
BLACK
6
CONTINUOUS
10
136.2680330000000026
20
-95.0879989999999964
11
136.2680330000000026
21
-95.1879989999999907
0
LINE
8
BLACK
6
CONTINUOUS
10
136.2680330000000026
20
-95.1879989999999907
11
136.3013660000000016
21
-95.2879989999999992
0
LINE
8
BLACK
6
CONTINUOUS
10
136.3013660000000016
20
-95.2879989999999992
11
136.3680329999999969
21
-95.3546659999999946
0
LINE
8
BLACK
6
CONTINUOUS
10
136.3680329999999969
20
-95.3546659999999946
11
136.4346999999999923
21
-95.3879989999999935
0
LINE
8
BLACK
6
CONTINUOUS
10
136.4346999999999923
20
-95.3879989999999935
11
136.5680329999999856
21
-95.4213319999999925
0
LINE
8
BLACK
6
CONTINUOUS
10
136.5680329999999856
20
-95.4213319999999925
11
136.6680329999999799
21
-95.4213319999999925
0
LINE
8
BLACK
6
CONTINUOUS
10
136.6680329999999799
20
-95.4213319999999925
11
136.8013660000000016
21
-95.3879989999999935
0
LINE
8
BLACK
6
CONTINUOUS
10
136.8013660000000016
20
-95.3879989999999935
11
136.8680329999999969
21
-95.3546659999999946
0
LINE
8
BLACK
6
CONTINUOUS
10
136.8680329999999969
20
-95.3546659999999946
11
136.9346999999999923
21
-95.2879989999999992
0
LINE
8
BLACK
6
CONTINUOUS
10
136.9346999999999923
20
-95.2879989999999992
11
136.9680329999999913
21
-95.1879989999999907
0
LINE
8
BLACK
6
CONTINUOUS
10
136.9680329999999913
20
-95.1879989999999907
11
136.9680329999999913
21
-95.1213319999999953
0
LINE
8
BLACK
6
CONTINUOUS
10
136.9680329999999913
20
-95.1213319999999953
11
136.9346999999999923
21
-95.021332000000001
0
LINE
8
BLACK
6
CONTINUOUS
10
136.9346999999999923
20
-95.021332000000001
11
136.9013659999999959
21
-94.9879990000000021
0
LINE
8
BLACK
6
CONTINUOUS
10
136.9013659999999959
20
-94.9879990000000021
11
136.6680329999999799
21
-94.9879990000000021
0
LINE
8
BLACK
6
CONTINUOUS
10
136.6680329999999799
20
-94.9879990000000021
11
136.6680329999999799
21
-95.1213319999999953
0
LINE
8
BLACK
6
CONTINUOUS
10
136.9680329999999913
20
-94.6879989999999907
11
136.2680330000000026
21
-94.6879989999999907
0
LINE
8
BLACK
6
CONTINUOUS
10
136.2680330000000026
20
-94.6879989999999907
11
136.9680329999999913
21
-94.2879989999999992
0
LINE
8
BLACK
6
CONTINUOUS
10
136.9680329999999913
20
-94.2879989999999992
11
136.2680330000000026
21
-94.2879989999999992
0
LINE
8
BLACK
6
CONTINUOUS
10
136.9680329999999913
20
-93.9546659999999889
11
136.2680330000000026
21
-93.9546659999999889
0
LINE
8
BLACK
6
CONTINUOUS
10
136.2680330000000026
20
-93.9546659999999889
11
136.2680330000000026
21
-93.7879989999999992
0
LINE
8
BLACK
6
CONTINUOUS
10
136.2680330000000026
20
-93.7879989999999992
11
136.3013660000000016
21
-93.6879989999999907
0
LINE
8
BLACK
6
CONTINUOUS
10
136.3013660000000016
20
-93.6879989999999907
11
136.3680329999999969
21
-93.6213329999999928
0
LINE
8
BLACK
6
CONTINUOUS
10
136.3680329999999969
20
-93.6213329999999928
11
136.4346999999999923
21
-93.5879989999999964
0
LINE
8
BLACK
6
CONTINUOUS
10
136.4346999999999923
20
-93.5879989999999964
11
136.5680329999999856
21
-93.5546659999999974
0
LINE
8
BLACK
6
CONTINUOUS
10
136.5680329999999856
20
-93.5546659999999974
11
136.6680329999999799
21
-93.5546659999999974
0
LINE
8
BLACK
6
CONTINUOUS
10
136.6680329999999799
20
-93.5546659999999974
11
136.8013660000000016
21
-93.5879989999999964
0
LINE
8
BLACK
6
CONTINUOUS
10
136.8013660000000016
20
-93.5879989999999964
11
136.8680329999999969
21
-93.6213329999999928
0
LINE
8
BLACK
6
CONTINUOUS
10
136.8680329999999969
20
-93.6213329999999928
11
136.9346999999999923
21
-93.6879989999999907
0
LINE
8
BLACK
6
CONTINUOUS
10
136.9346999999999923
20
-93.6879989999999907
11
136.9680329999999913
21
-93.7879989999999992
0
LINE
8
BLACK
6
CONTINUOUS
10
136.9680329999999913
20
-93.7879989999999992
11
136.9680329999999913
21
-93.9546659999999889
0
LINE
8
BLACK
6
CONTINUOUS
10
134.1613659999999868
20
-95.387999999999991
11
134.1613659999999868
21
-94.8546669999999921
0
LINE
8
BLACK
6
CONTINUOUS
10
134.4280329999999992
20
-95.1213329999999928
11
133.8947000000000003
21
-95.1213329999999928
0
LINE
8
BLACK
6
CONTINUOUS
10
133.7280329999999822
20
-94.1880000000000024
11
133.7280329999999822
21
-94.5213329999999985
0
LINE
8
BLACK
6
CONTINUOUS
10
133.7280329999999822
20
-94.5213329999999985
11
134.0613659999999925
21
-94.5546659999999974
0
LINE
8
BLACK
6
CONTINUOUS
10
134.0613659999999925
20
-94.5546659999999974
11
134.0280329999999935
21
-94.5213329999999985
0
LINE
8
BLACK
6
CONTINUOUS
10
134.0280329999999935
20
-94.5213329999999985
11
133.9946999999999946
21
-94.4546659999999889
0
LINE
8
BLACK
6
CONTINUOUS
10
133.9946999999999946
20
-94.4546659999999889
11
133.9946999999999946
21
-94.2879999999999967
0
LINE
8
BLACK
6
CONTINUOUS
10
133.9946999999999946
20
-94.2879999999999967
11
134.0280329999999935
21
-94.2213330000000013
0
LINE
8
BLACK
6
CONTINUOUS
10
134.0280329999999935
20
-94.2213330000000013
11
134.0613659999999925
21
-94.1880000000000024
0
LINE
8
BLACK
6
CONTINUOUS
10
134.0613659999999925
20
-94.1880000000000024
11
134.1280329999999879
21
-94.1546659999999918
0
LINE
8
BLACK
6
CONTINUOUS
10
134.1280329999999879
20
-94.1546659999999918
11
134.294700000000006
21
-94.1546659999999918
0
LINE
8
BLACK
6
CONTINUOUS
10
134.294700000000006
20
-94.1546659999999918
11
134.3613660000000039
21
-94.1880000000000024
0
LINE
8
BLACK
6
CONTINUOUS
10
134.3613660000000039
20
-94.1880000000000024
11
134.3947000000000003
21
-94.2213330000000013
0
LINE
8
BLACK
6
CONTINUOUS
10
134.3947000000000003
20
-94.2213330000000013
11
134.4280329999999992
21
-94.2879999999999967
0
LINE
8
BLACK
6
CONTINUOUS
10
134.4280329999999992
20
-94.2879999999999967
11
134.4280329999999992
21
-94.4546659999999889
0
LINE
8
BLACK
6
CONTINUOUS
10
134.4280329999999992
20
-94.4546659999999889
11
134.3947000000000003
21
-94.5213329999999985
0
LINE
8
BLACK
6
CONTINUOUS
10
134.3947000000000003
20
-94.5213329999999985
11
134.3613660000000039
21
-94.5546659999999974
0
LINE
8
BLACK
6
CONTINUOUS
10
133.7280329999999822
20
-93.9546659999999889
11
134.4280329999999992
21
-93.7213330000000013
0
LINE
8
BLACK
6
CONTINUOUS
10
134.4280329999999992
20
-93.7213330000000013
11
133.7280329999999822
21
-93.4879990000000021
0
LINE
8
BLACK
6
CONTINUOUS
10
131.1880329999999901
20
-95.3713329999999928
11
131.1880329999999901
21
-94.9713330000000013
0
LINE
8
BLACK
6
CONTINUOUS
10
131.8880330000000072
20
-95.17133299999999
11
131.1880329999999901
21
-95.17133299999999
0
LINE
8
BLACK
6
CONTINUOUS
10
131.1880329999999901
20
-94.8046669999999949
11
131.8880330000000072
21
-94.3379999999999939
0
LINE
8
BLACK
6
CONTINUOUS
10
131.1880329999999901
20
-94.3379999999999939
11
131.8880330000000072
21
-94.8046669999999949
0
LINE
8
BLACK
6
CONTINUOUS
10
131.8880330000000072
20
-94.0713329999999956
11
131.1880329999999901
21
-94.0713329999999956
0
LINE
8
BLACK
6
CONTINUOUS
10
131.1880329999999901
20
-94.0713329999999956
11
131.1880329999999901
21
-93.9046659999999918
0
LINE
8
BLACK
6
CONTINUOUS
10
131.1880329999999901
20
-93.9046659999999918
11
131.2213659999999891
21
-93.8046659999999974
0
LINE
8
BLACK
6
CONTINUOUS
10
131.2213659999999891
20
-93.8046659999999974
11
131.2880329999999844
21
-93.7379999999999995
0
LINE
8
BLACK
6
CONTINUOUS
10
131.2880329999999844
20
-93.7379999999999995
11
131.3547000000000082
21
-93.7046659999999889
0
LINE
8
BLACK
6
CONTINUOUS
10
131.3547000000000082
20
-93.7046659999999889
11
131.4880330000000015
21
-93.67133299999999
0
LINE
8
BLACK
6
CONTINUOUS
10
131.4880330000000015
20
-93.67133299999999
11
131.5880329999999958
21
-93.67133299999999
0
LINE
8
BLACK
6
CONTINUOUS
10
131.5880329999999958
20
-93.67133299999999
11
131.7213659999999891
21
-93.7046659999999889
0
LINE
8
BLACK
6
CONTINUOUS
10
131.7213659999999891
20
-93.7046659999999889
11
131.7880329999999844
21
-93.7379999999999995
0
LINE
8
BLACK
6
CONTINUOUS
10
131.7880329999999844
20
-93.7379999999999995
11
131.8547000000000082
21
-93.8046659999999974
0
LINE
8
BLACK
6
CONTINUOUS
10
131.8547000000000082
20
-93.8046659999999974
11
131.8880330000000072
21
-93.9046659999999918
0
LINE
8
BLACK
6
CONTINUOUS
10
131.8880330000000072
20
-93.9046659999999918
11
131.8880330000000072
21
-94.0713329999999956
0
LINE
8
BLACK
6
CONTINUOUS
10
129.3880330000000072
20
-94.9546659999999889
11
129.0546999999999969
21
-95.1879989999999907
0
LINE
8
BLACK
6
CONTINUOUS
10
129.3880330000000072
20
-95.3546659999999946
11
128.6880329999999901
21
-95.3546659999999946
0
LINE
8
BLACK
6
CONTINUOUS
10
128.6880329999999901
20
-95.3546659999999946
11
128.6880329999999901
21
-95.0879989999999964
0
LINE
8
BLACK
6
CONTINUOUS
10
128.6880329999999901
20
-95.0879989999999964
11
128.7213659999999891
21
-95.0213329999999985
0
LINE
8
BLACK
6
CONTINUOUS
10
128.7213659999999891
20
-95.0213329999999985
11
128.7546999999999855
21
-94.9879990000000021
0
LINE
8
BLACK
6
CONTINUOUS
10
128.7546999999999855
20
-94.9879990000000021
11
128.8213659999999834
21
-94.9546659999999889
0
LINE
8
BLACK
6
CONTINUOUS
10
128.8213659999999834
20
-94.9546659999999889
11
128.9213660000000061
21
-94.9546659999999889
0
LINE
8
BLACK
6
CONTINUOUS
10
128.9213660000000061
20
-94.9546659999999889
11
128.9880330000000015
21
-94.9879990000000021
0
LINE
8
BLACK
6
CONTINUOUS
10
128.9880330000000015
20
-94.9879990000000021
11
129.0213660000000004
21
-95.0213329999999985
0
LINE
8
BLACK
6
CONTINUOUS
10
129.0213660000000004
20
-95.0213329999999985
11
129.0546999999999969
21
-95.0879989999999964
0
LINE
8
BLACK
6
CONTINUOUS
10
129.0546999999999969
20
-95.0879989999999964
11
129.0546999999999969
21
-95.3546659999999946
0
LINE
8
BLACK
6
CONTINUOUS
10
128.6880329999999901
20
-94.7213330000000013
11
129.3880330000000072
21
-94.2546660000000003
0
LINE
8
BLACK
6
CONTINUOUS
10
128.6880329999999901
20
-94.2546660000000003
11
129.3880330000000072
21
-94.7213330000000013
0
LINE
8
BLACK
6
CONTINUOUS
10
129.3880330000000072
20
-93.9879990000000021
11
128.6880329999999901
21
-93.9879990000000021
0
LINE
8
BLACK
6
CONTINUOUS
10
128.6880329999999901
20
-93.9879990000000021
11
128.6880329999999901
21
-93.8213319999999982
0
LINE
8
BLACK
6
CONTINUOUS
10
128.6880329999999901
20
-93.8213319999999982
11
128.7213659999999891
21
-93.7213319999999896
0
LINE
8
BLACK
6
CONTINUOUS
10
128.7213659999999891
20
-93.7213319999999896
11
128.7880329999999844
21
-93.6546659999999918
0
LINE
8
BLACK
6
CONTINUOUS
10
128.7880329999999844
20
-93.6546659999999918
11
128.8547000000000082
21
-93.6213319999999953
0
LINE
8
BLACK
6
CONTINUOUS
10
128.8547000000000082
20
-93.6213319999999953
11
128.9880330000000015
21
-93.5879989999999964
0
LINE
8
BLACK
6
CONTINUOUS
10
128.9880330000000015
20
-93.5879989999999964
11
129.0880329999999958
21
-93.5879989999999964
0
LINE
8
BLACK
6
CONTINUOUS
10
129.0880329999999958
20
-93.5879989999999964
11
129.2213659999999891
21
-93.6213319999999953
0
LINE
8
BLACK
6
CONTINUOUS
10
129.2213659999999891
20
-93.6213319999999953
11
129.2880329999999844
21
-93.6546659999999918
0
LINE
8
BLACK
6
CONTINUOUS
10
129.2880329999999844
20
-93.6546659999999918
11
129.3547000000000082
21
-93.7213319999999896
0
LINE
8
BLACK
6
CONTINUOUS
10
129.3547000000000082
20
-93.7213319999999896
11
129.3880330000000072
21
-93.8213319999999982
0
LINE
8
BLACK
6
CONTINUOUS
10
129.3880330000000072
20
-93.8213319999999982
11
129.3880330000000072
21
-93.9879990000000021
0
LINE
8
BLACK
6
CONTINUOUS
10
140.6936660000000074
20
-92.2640329999999977
11
140.2936660000000018
21
-92.2640329999999977
0
LINE
8
BLACK
6
CONTINUOUS
10
140.4936659999999904
20
-92.2640329999999977
11
140.4936659999999904
21
-91.5640329999999949
0
LINE
8
BLACK
6
CONTINUOUS
10
140.4936659999999904
20
-91.5640329999999949
11
140.426998999999995
21
-91.6640329999999892
0
LINE
8
BLACK
6
CONTINUOUS
10
140.426998999999995
20
-91.6640329999999892
11
140.3603329999999971
21
-91.7306999999999988
0
LINE
8
BLACK
6
CONTINUOUS
10
140.3603329999999971
20
-91.7306999999999988
11
140.2936660000000018
21
-91.7640329999999977
0
LINE
8
BLACK
6
CONTINUOUS
10
141.1269999999999811
20
-91.5640329999999949
11
141.1936660000000074
21
-91.5640329999999949
0
LINE
8
BLACK
6
CONTINUOUS
10
141.1936660000000074
20
-91.5640329999999949
11
141.2603330000000028
21
-91.5973659999999938
0
LINE
8
BLACK
6
CONTINUOUS
10
141.2603330000000028
20
-91.5973659999999938
11
141.2936660000000018
21
-91.6306999999999903
0
LINE
8
BLACK
6
CONTINUOUS
10
141.2936660000000018
20
-91.6306999999999903
11
141.3269999999999982
21
-91.6973660000000024
0
LINE
8
BLACK
6
CONTINUOUS
10
141.3269999999999982
20
-91.6973660000000024
11
141.3603329999999971
21
-91.8306999999999931
0
LINE
8
BLACK
6
CONTINUOUS
10
141.3603329999999971
20
-91.8306999999999931
11
141.3603329999999971
21
-91.9973659999999995
0
LINE
8
BLACK
6
CONTINUOUS
10
141.3603329999999971
20
-91.9973659999999995
11
141.3269999999999982
21
-92.1306999999999903
0
LINE
8
BLACK
6
CONTINUOUS
10
141.3269999999999982
20
-92.1306999999999903
11
141.2936660000000018
21
-92.1973660000000024
0
LINE
8
BLACK
6
CONTINUOUS
10
141.2936660000000018
20
-92.1973660000000024
11
141.2603330000000028
21
-92.2306999999999988
0
LINE
8
BLACK
6
CONTINUOUS
10
141.2603330000000028
20
-92.2306999999999988
11
141.1936660000000074
21
-92.2640329999999977
0
LINE
8
BLACK
6
CONTINUOUS
10
141.1936660000000074
20
-92.2640329999999977
11
141.1269999999999811
21
-92.2640329999999977
0
LINE
8
BLACK
6
CONTINUOUS
10
141.1269999999999811
20
-92.2640329999999977
11
141.0603329999999858
21
-92.2306999999999988
0
LINE
8
BLACK
6
CONTINUOUS
10
141.0603329999999858
20
-92.2306999999999988
11
141.0269999999999868
21
-92.1973660000000024
0
LINE
8
BLACK
6
CONTINUOUS
10
141.0269999999999868
20
-92.1973660000000024
11
140.9936659999999904
21
-92.1306999999999903
0
LINE
8
BLACK
6
CONTINUOUS
10
140.9936659999999904
20
-92.1306999999999903
11
140.9603329999999914
21
-91.9973659999999995
0
LINE
8
BLACK
6
CONTINUOUS
10
140.9603329999999914
20
-91.9973659999999995
11
140.9603329999999914
21
-91.8306999999999931
0
LINE
8
BLACK
6
CONTINUOUS
10
140.9603329999999914
20
-91.8306999999999931
11
140.9936659999999904
21
-91.6973660000000024
0
LINE
8
BLACK
6
CONTINUOUS
10
140.9936659999999904
20
-91.6973660000000024
11
141.0269999999999868
21
-91.6306999999999903
0
LINE
8
BLACK
6
CONTINUOUS
10
141.0269999999999868
20
-91.6306999999999903
11
141.0603329999999858
21
-91.5973659999999938
0
LINE
8
BLACK
6
CONTINUOUS
10
141.0603329999999858
20
-91.5973659999999938
11
141.1269999999999811
21
-91.5640329999999949
0
LINE
8
BLACK
6
CONTINUOUS
10
141.6603329999999801
20
-92.2640329999999977
11
141.6603329999999801
21
-91.5640329999999949
0
LINE
8
BLACK
6
CONTINUOUS
10
142.0603329999999858
20
-92.2640329999999977
11
141.7603330000000028
21
-91.8640329999999921
0
LINE
8
BLACK
6
CONTINUOUS
10
142.0603329999999858
20
-91.5640329999999949
11
141.6603329999999801
21
-91.9640330000000006
0
LINE
8
BLACK
6
CONTINUOUS
10
139.1077139999999872
20
-76.3080089999999984
11
139.4410469999999975
21
-76.3080089999999984
0
LINE
8
BLACK
6
CONTINUOUS
10
139.5839039999999898
20
-76.8318189999999959
11
139.1077139999999872
21
-76.8318189999999959
0
LINE
8
BLACK
6
CONTINUOUS
10
139.1077139999999872
20
-76.8318189999999959
11
139.1077139999999872
21
-75.8318189999999959
0
LINE
8
BLACK
6
CONTINUOUS
10
139.1077139999999872
20
-75.8318189999999959
11
139.5839039999999898
21
-75.8318189999999959
0
LINE
8
BLACK
6
CONTINUOUS
10
139.964856999999995
20
-76.7841999999999985
11
140.1077139999999872
21
-76.8318189999999959
0
LINE
8
BLACK
6
CONTINUOUS
10
140.1077139999999872
20
-76.8318189999999959
11
140.3458090000000027
21
-76.8318189999999959
0
LINE
8
BLACK
6
CONTINUOUS
10
140.3458090000000027
20
-76.8318189999999959
11
140.4410469999999975
21
-76.7841999999999985
0
LINE
8
BLACK
6
CONTINUOUS
10
140.4410469999999975
20
-76.7841999999999985
11
140.4886659999999949
21
-76.7365800000000036
0
LINE
8
BLACK
6
CONTINUOUS
10
140.4886659999999949
20
-76.7365800000000036
11
140.5362849999999924
21
-76.6413419999999945
0
LINE
8
BLACK
6
CONTINUOUS
10
140.5362849999999924
20
-76.6413419999999945
11
140.5362849999999924
21
-76.5461039999999997
0
LINE
8
BLACK
6
CONTINUOUS
10
140.5362849999999924
20
-76.5461039999999997
11
140.4886659999999949
21
-76.4508659999999907
0
LINE
8
BLACK
6
CONTINUOUS
10
140.4886659999999949
20
-76.4508659999999907
11
140.4410469999999975
21
-76.4032469999999932
0
LINE
8
BLACK
6
CONTINUOUS
10
140.4410469999999975
20
-76.4032469999999932
11
140.3458090000000027
21
-76.3556279999999958
0
LINE
8
BLACK
6
CONTINUOUS
10
140.3458090000000027
20
-76.3556279999999958
11
140.1553329999999846
21
-76.3080089999999984
0
LINE
8
BLACK
6
CONTINUOUS
10
140.1553329999999846
20
-76.3080089999999984
11
140.0600949999999898
21
-76.260390000000001
0
LINE
8
BLACK
6
CONTINUOUS
10
140.0600949999999898
20
-76.260390000000001
11
140.0124759999999924
21
-76.2127710000000036
0
LINE
8
BLACK
6
CONTINUOUS
10
140.0124759999999924
20
-76.2127710000000036
11
139.964856999999995
21
-76.1175329999999946
0
LINE
8
BLACK
6
CONTINUOUS
10
139.964856999999995
20
-76.1175329999999946
11
139.964856999999995
21
-76.0222949999999997
0
LINE
8
BLACK
6
CONTINUOUS
10
139.964856999999995
20
-76.0222949999999997
11
140.0124759999999924
21
-75.9270569999999907
0
LINE
8
BLACK
6
CONTINUOUS
10
140.0124759999999924
20
-75.9270569999999907
11
140.0600949999999898
21
-75.8794379999999933
0
LINE
8
BLACK
6
CONTINUOUS
10
140.0600949999999898
20
-75.8794379999999933
11
140.1553329999999846
21
-75.8318189999999959
0
LINE
8
BLACK
6
CONTINUOUS
10
140.1553329999999846
20
-75.8318189999999959
11
140.3934280000000001
21
-75.8318189999999959
0
LINE
8
BLACK
6
CONTINUOUS
10
140.3934280000000001
20
-75.8318189999999959
11
140.5362849999999924
21
-75.8794379999999933
0
LINE
8
BLACK
6
CONTINUOUS
10
140.964856999999995
20
-76.8318189999999959
11
140.964856999999995
21
-75.8318189999999959
0
LINE
8
BLACK
6
CONTINUOUS
10
140.964856999999995
20
-75.8318189999999959
11
141.3458090000000027
21
-75.8318189999999959
0
LINE
8
BLACK
6
CONTINUOUS
10
141.3458090000000027
20
-75.8318189999999959
11
141.4410469999999975
21
-75.8794379999999933
0
LINE
8
BLACK
6
CONTINUOUS
10
141.4410469999999975
20
-75.8794379999999933
11
141.4886659999999949
21
-75.9270569999999907
0
LINE
8
BLACK
6
CONTINUOUS
10
141.4886659999999949
20
-75.9270569999999907
11
141.5362849999999924
21
-76.0222949999999997
0
LINE
8
BLACK
6
CONTINUOUS
10
141.5362849999999924
20
-76.0222949999999997
11
141.5362849999999924
21
-76.165151999999992
0
LINE
8
BLACK
6
CONTINUOUS
10
141.5362849999999924
20
-76.165151999999992
11
141.4886659999999949
21
-76.260390000000001
0
LINE
8
BLACK
6
CONTINUOUS
10
141.4886659999999949
20
-76.260390000000001
11
141.4410469999999975
21
-76.3080089999999984
0
LINE
8
BLACK
6
CONTINUOUS
10
141.4410469999999975
20
-76.3080089999999984
11
141.3458090000000027
21
-76.3556279999999958
0
LINE
8
BLACK
6
CONTINUOUS
10
141.3458090000000027
20
-76.3556279999999958
11
140.964856999999995
21
-76.3556279999999958
0
LINE
8
BLACK
6
CONTINUOUS
10
141.964856999999995
20
-76.4508659999999907
11
142.7267619999999795
21
-76.4508659999999907
0
LINE
8
BLACK
6
CONTINUOUS
10
143.726760999999982
20
-76.8318189999999959
11
143.1553329999999846
21
-76.8318189999999959
0
LINE
8
BLACK
6
CONTINUOUS
10
143.4410469999999975
20
-76.8318189999999959
11
143.4410469999999975
21
-75.8318189999999959
0
LINE
8
BLACK
6
CONTINUOUS
10
143.4410469999999975
20
-75.8318189999999959
11
143.3458090000000027
21
-75.9746760000000023
0
LINE
8
BLACK
6
CONTINUOUS
10
143.3458090000000027
20
-75.9746760000000023
11
143.2505709999999794
21
-76.0699139999999971
0
LINE
8
BLACK
6
CONTINUOUS
10
143.2505709999999794
20
-76.0699139999999971
11
143.1553329999999846
21
-76.1175329999999946
0
LINE
8
BLACK
6
CONTINUOUS
10
144.1077139999999872
20
-75.9270569999999907
11
144.1553329999999846
21
-75.8794379999999933
0
LINE
8
BLACK
6
CONTINUOUS
10
144.1553329999999846
20
-75.8794379999999933
11
144.2505709999999794
21
-75.8318189999999959
0
LINE
8
BLACK
6
CONTINUOUS
10
144.2505709999999794
20
-75.8318189999999959
11
144.4886659999999949
21
-75.8318189999999959
0
LINE
8
BLACK
6
CONTINUOUS
10
144.4886659999999949
20
-75.8318189999999959
11
144.5839039999999898
21
-75.8794379999999933
0
LINE
8
BLACK
6
CONTINUOUS
10
144.5839039999999898
20
-75.8794379999999933
11
144.6315229999999872
21
-75.9270569999999907
0
LINE
8
BLACK
6
CONTINUOUS
10
144.6315229999999872
20
-75.9270569999999907
11
144.6791419999999846
21
-76.0222949999999997
0
LINE
8
BLACK
6
CONTINUOUS
10
144.6791419999999846
20
-76.0222949999999997
11
144.6791419999999846
21
-76.1175329999999946
0
LINE
8
BLACK
6
CONTINUOUS
10
144.6791419999999846
20
-76.1175329999999946
11
144.6315229999999872
21
-76.260390000000001
0
LINE
8
BLACK
6
CONTINUOUS
10
144.6315229999999872
20
-76.260390000000001
11
144.0600949999999898
21
-76.8318189999999959
0
LINE
8
BLACK
6
CONTINUOUS
10
144.0600949999999898
20
-76.8318189999999959
11
144.6791419999999846
21
-76.8318189999999959
0
LINE
8
BLACK
6
CONTINUOUS
10
145.1077139999999872
20
-76.3080089999999984
11
145.4410469999999975
21
-76.3080089999999984
0
LINE
8
BLACK
6
CONTINUOUS
10
145.5839039999999898
20
-76.8318189999999959
11
145.1077139999999872
21
-76.8318189999999959
0
LINE
8
BLACK
6
CONTINUOUS
10
145.1077139999999872
20
-76.8318189999999959
11
145.1077139999999872
21
-75.8318189999999959
0
LINE
8
BLACK
6
CONTINUOUS
10
145.1077139999999872
20
-75.8318189999999959
11
145.5839039999999898
21
-75.8318189999999959
0
LINE
8
BLACK
6
CONTINUOUS
10
152.8925229999999829
20
-71.178009000000003
11
153.2258559999999932
21
-71.178009000000003
0
LINE
8
BLACK
6
CONTINUOUS
10
153.3687129999999854
20
-71.7018190000000004
11
152.8925229999999829
21
-71.7018190000000004
0
LINE
8
BLACK
6
CONTINUOUS
10
152.8925229999999829
20
-71.7018190000000004
11
152.8925229999999829
21
-70.7018190000000004
0
LINE
8
BLACK
6
CONTINUOUS
10
152.8925229999999829
20
-70.7018190000000004
11
153.3687129999999854
21
-70.7018190000000004
0
LINE
8
BLACK
6
CONTINUOUS
10
153.7496659999999906
20
-71.654200000000003
11
153.8925229999999829
21
-71.7018190000000004
0
LINE
8
BLACK
6
CONTINUOUS
10
153.8925229999999829
20
-71.7018190000000004
11
154.1306179999999983
21
-71.7018190000000004
0
LINE
8
BLACK
6
CONTINUOUS
10
154.1306179999999983
20
-71.7018190000000004
11
154.2258559999999932
21
-71.654200000000003
0
LINE
8
BLACK
6
CONTINUOUS
10
154.2258559999999932
20
-71.654200000000003
11
154.2734749999999906
21
-71.6065799999999939
0
LINE
8
BLACK
6
CONTINUOUS
10
154.2734749999999906
20
-71.6065799999999939
11
154.321093999999988
21
-71.5113419999999991
0
LINE
8
BLACK
6
CONTINUOUS
10
154.321093999999988
20
-71.5113419999999991
11
154.321093999999988
21
-71.41610399999999
0
LINE
8
BLACK
6
CONTINUOUS
10
154.321093999999988
20
-71.41610399999999
11
154.2734749999999906
21
-71.3208659999999952
0
LINE
8
BLACK
6
CONTINUOUS
10
154.2734749999999906
20
-71.3208659999999952
11
154.2258559999999932
21
-71.2732469999999978
0
LINE
8
BLACK
6
CONTINUOUS
10
154.2258559999999932
20
-71.2732469999999978
11
154.1306179999999983
21
-71.2256280000000004
0
LINE
8
BLACK
6
CONTINUOUS
10
154.1306179999999983
20
-71.2256280000000004
11
153.9401419999999803
21
-71.178009000000003
0
LINE
8
BLACK
6
CONTINUOUS
10
153.9401419999999803
20
-71.178009000000003
11
153.8449039999999854
21
-71.1303899999999913
0
LINE
8
BLACK
6
CONTINUOUS
10
153.8449039999999854
20
-71.1303899999999913
11
153.797284999999988
21
-71.0827709999999939
0
LINE
8
BLACK
6
CONTINUOUS
10
153.797284999999988
20
-71.0827709999999939
11
153.7496659999999906
21
-70.9875329999999991
0
LINE
8
BLACK
6
CONTINUOUS
10
153.7496659999999906
20
-70.9875329999999991
11
153.7496659999999906
21
-70.8922949999999901
0
LINE
8
BLACK
6
CONTINUOUS
10
153.7496659999999906
20
-70.8922949999999901
11
153.797284999999988
21
-70.7970569999999952
0
LINE
8
BLACK
6
CONTINUOUS
10
153.797284999999988
20
-70.7970569999999952
11
153.8449039999999854
21
-70.7494379999999978
0
LINE
8
BLACK
6
CONTINUOUS
10
153.8449039999999854
20
-70.7494379999999978
11
153.9401419999999803
21
-70.7018190000000004
0
LINE
8
BLACK
6
CONTINUOUS
10
153.9401419999999803
20
-70.7018190000000004
11
154.1782369999999958
21
-70.7018190000000004
0
LINE
8
BLACK
6
CONTINUOUS
10
154.1782369999999958
20
-70.7018190000000004
11
154.321093999999988
21
-70.7494379999999978
0
LINE
8
BLACK
6
CONTINUOUS
10
154.7496659999999906
20
-71.7018190000000004
11
154.7496659999999906
21
-70.7018190000000004
0
LINE
8
BLACK
6
CONTINUOUS
10
154.7496659999999906
20
-70.7018190000000004
11
155.1306179999999983
21
-70.7018190000000004
0
LINE
8
BLACK
6
CONTINUOUS
10
155.1306179999999983
20
-70.7018190000000004
11
155.2258559999999932
21
-70.7494379999999978
0
LINE
8
BLACK
6
CONTINUOUS
10
155.2258559999999932
20
-70.7494379999999978
11
155.2734749999999906
21
-70.7970569999999952
0
LINE
8
BLACK
6
CONTINUOUS
10
155.2734749999999906
20
-70.7970569999999952
11
155.321093999999988
21
-70.8922949999999901
0
LINE
8
BLACK
6
CONTINUOUS
10
155.321093999999988
20
-70.8922949999999901
11
155.321093999999988
21
-71.0351519999999965
0
LINE
8
BLACK
6
CONTINUOUS
10
155.321093999999988
20
-71.0351519999999965
11
155.2734749999999906
21
-71.1303899999999913
0
LINE
8
BLACK
6
CONTINUOUS
10
155.2734749999999906
20
-71.1303899999999913
11
155.2258559999999932
21
-71.178009000000003
0
LINE
8
BLACK
6
CONTINUOUS
10
155.2258559999999932
20
-71.178009000000003
11
155.1306179999999983
21
-71.2256280000000004
0
LINE
8
BLACK
6
CONTINUOUS
10
155.1306179999999983
20
-71.2256280000000004
11
154.7496659999999906
21
-71.2256280000000004
0
LINE
8
BLACK
6
CONTINUOUS
10
156.0829990000000009
20
-71.178009000000003
11
155.7496659999999906
21
-71.178009000000003
0
LINE
8
BLACK
6
CONTINUOUS
10
155.7496659999999906
20
-71.7018190000000004
11
155.7496659999999906
21
-70.7018190000000004
0
LINE
8
BLACK
6
CONTINUOUS
10
155.7496659999999906
20
-70.7018190000000004
11
156.2258559999999932
21
-70.7018190000000004
0
LINE
8
BLACK
6
CONTINUOUS
10
156.7496659999999906
20
-71.7018190000000004
11
156.6544279999999958
21
-71.654200000000003
0
LINE
8
BLACK
6
CONTINUOUS
10
156.6544279999999958
20
-71.654200000000003
11
156.6068089999999984
21
-71.5589609999999965
0
LINE
8
BLACK
6
CONTINUOUS
10
156.6068089999999984
20
-71.5589609999999965
11
156.6068089999999984
21
-70.7018190000000004
0
LINE
8
BLACK
6
CONTINUOUS
10
157.559190000000001
20
-71.7018190000000004
11
157.559190000000001
21
-71.178009000000003
0
LINE
8
BLACK
6
CONTINUOUS
10
157.559190000000001
20
-71.178009000000003
11
157.5115710000000036
21
-71.0827709999999939
0
LINE
8
BLACK
6
CONTINUOUS
10
157.5115710000000036
20
-71.0827709999999939
11
157.4163329999999803
21
-71.0351519999999965
0
LINE
8
BLACK
6
CONTINUOUS
10
157.4163329999999803
20
-71.0351519999999965
11
157.2258569999999906
21
-71.0351519999999965
0
LINE
8
BLACK
6
CONTINUOUS
10
157.2258569999999906
20
-71.0351519999999965
11
157.1306189999999958
21
-71.0827709999999939
0
LINE
8
BLACK
6
CONTINUOUS
10
157.559190000000001
20
-71.654200000000003
11
157.4639520000000061
21
-71.7018190000000004
0
LINE
8
BLACK
6
CONTINUOUS
10
157.4639520000000061
20
-71.7018190000000004
11
157.2258569999999906
21
-71.7018190000000004
0
LINE
8
BLACK
6
CONTINUOUS
10
157.2258569999999906
20
-71.7018190000000004
11
157.1306189999999958
21
-71.654200000000003
0
LINE
8
BLACK
6
CONTINUOUS
10
157.1306189999999958
20
-71.654200000000003
11
157.0829999999999984
21
-71.5589609999999965
0
LINE
8
BLACK
6
CONTINUOUS
10
157.0829999999999984
20
-71.5589609999999965
11
157.0829999999999984
21
-71.4637230000000017
0
LINE
8
BLACK
6
CONTINUOUS
10
157.0829999999999984
20
-71.4637230000000017
11
157.1306189999999958
21
-71.3684849999999926
0
LINE
8
BLACK
6
CONTINUOUS
10
157.1306189999999958
20
-71.3684849999999926
11
157.2258569999999906
21
-71.3208659999999952
0
LINE
8
BLACK
6
CONTINUOUS
10
157.2258569999999906
20
-71.3208659999999952
11
157.4639520000000061
21
-71.3208659999999952
0
LINE
8
BLACK
6
CONTINUOUS
10
157.4639520000000061
20
-71.3208659999999952
11
157.559190000000001
21
-71.2732469999999978
0
LINE
8
BLACK
6
CONTINUOUS
10
157.9877620000000036
20
-71.654200000000003
11
158.0829999999999984
21
-71.7018190000000004
0
LINE
8
BLACK
6
CONTINUOUS
10
158.0829999999999984
20
-71.7018190000000004
11
158.2734759999999881
21
-71.7018190000000004
0
LINE
8
BLACK
6
CONTINUOUS
10
158.2734759999999881
20
-71.7018190000000004
11
158.3687139999999829
21
-71.654200000000003
0
LINE
8
BLACK
6
CONTINUOUS
10
158.3687139999999829
20
-71.654200000000003
11
158.4163329999999803
21
-71.5589609999999965
0
LINE
8
BLACK
6
CONTINUOUS
10
158.4163329999999803
20
-71.5589609999999965
11
158.4163329999999803
21
-71.5113419999999991
0
LINE
8
BLACK
6
CONTINUOUS
10
158.4163329999999803
20
-71.5113419999999991
11
158.3687139999999829
21
-71.41610399999999
0
LINE
8
BLACK
6
CONTINUOUS
10
158.3687139999999829
20
-71.41610399999999
11
158.2734759999999881
21
-71.3684849999999926
0
LINE
8
BLACK
6
CONTINUOUS
10
158.2734759999999881
20
-71.3684849999999926
11
158.1306189999999958
21
-71.3684849999999926
0
LINE
8
BLACK
6
CONTINUOUS
10
158.1306189999999958
20
-71.3684849999999926
11
158.035381000000001
21
-71.3208659999999952
0
LINE
8
BLACK
6
CONTINUOUS
10
158.035381000000001
20
-71.3208659999999952
11
157.9877620000000036
21
-71.2256280000000004
0
LINE
8
BLACK
6
CONTINUOUS
10
157.9877620000000036
20
-71.2256280000000004
11
157.9877620000000036
21
-71.178009000000003
0
LINE
8
BLACK
6
CONTINUOUS
10
157.9877620000000036
20
-71.178009000000003
11
158.035381000000001
21
-71.0827709999999939
0
LINE
8
BLACK
6
CONTINUOUS
10
158.035381000000001
20
-71.0827709999999939
11
158.1306189999999958
21
-71.0351519999999965
0
LINE
8
BLACK
6
CONTINUOUS
10
158.1306189999999958
20
-71.0351519999999965
11
158.2734759999999881
21
-71.0351519999999965
0
LINE
8
BLACK
6
CONTINUOUS
10
158.2734759999999881
20
-71.0351519999999965
11
158.3687139999999829
21
-71.0827709999999939
0
LINE
8
BLACK
6
CONTINUOUS
10
158.8449049999999829
20
-71.7018190000000004
11
158.8449049999999829
21
-70.7018190000000004
0
LINE
8
BLACK
6
CONTINUOUS
10
159.2734759999999881
20
-71.7018190000000004
11
159.2734759999999881
21
-71.178009000000003
0
LINE
8
BLACK
6
CONTINUOUS
10
159.2734759999999881
20
-71.178009000000003
11
159.2258569999999906
21
-71.0827709999999939
0
LINE
8
BLACK
6
CONTINUOUS
10
159.2258569999999906
20
-71.0827709999999939
11
159.1306189999999958
21
-71.0351519999999965
0
LINE
8
BLACK
6
CONTINUOUS
10
159.1306189999999958
20
-71.0351519999999965
11
158.9877620000000036
21
-71.0351519999999965
0
LINE
8
BLACK
6
CONTINUOUS
10
158.9877620000000036
20
-71.0351519999999965
11
158.8925239999999803
21
-71.0827709999999939
0
LINE
8
BLACK
6
CONTINUOUS
10
158.8925239999999803
20
-71.0827709999999939
11
158.8449049999999829
21
-71.1303899999999913
0
LINE
8
BLACK
6
CONTINUOUS
10
152.6032209999999907
20
-86.814819
11
152.6032209999999907
21
-85.814819
0
LINE
8
BLACK
6
CONTINUOUS
10
153.2698869999999829
20
-85.814819
11
153.460363000000001
21
-85.814819
0
LINE
8
BLACK
6
CONTINUOUS
10
153.460363000000001
20
-85.814819
11
153.5556009999999958
21
-85.8624379999999974
0
LINE
8
BLACK
6
CONTINUOUS
10
153.5556009999999958
20
-85.8624379999999974
11
153.6508389999999906
21
-85.9576759999999922
0
LINE
8
BLACK
6
CONTINUOUS
10
153.6508389999999906
20
-85.9576759999999922
11
153.698457999999988
21
-86.1481519999999961
0
LINE
8
BLACK
6
CONTINUOUS
10
153.698457999999988
20
-86.1481519999999961
11
153.698457999999988
21
-86.4814849999999922
0
LINE
8
BLACK
6
CONTINUOUS
10
153.698457999999988
20
-86.4814849999999922
11
153.6508389999999906
21
-86.671960999999996
0
LINE
8
BLACK
6
CONTINUOUS
10
153.6508389999999906
20
-86.671960999999996
11
153.5556009999999958
21
-86.7672000000000025
0
LINE
8
BLACK
6
CONTINUOUS
10
153.5556009999999958
20
-86.7672000000000025
11
153.460363000000001
21
-86.814819
0
LINE
8
BLACK
6
CONTINUOUS
10
153.460363000000001
20
-86.814819
11
153.2698869999999829
21
-86.814819
0
LINE
8
BLACK
6
CONTINUOUS
10
153.2698869999999829
20
-86.814819
11
153.1746489999999881
21
-86.7672000000000025
0
LINE
8
BLACK
6
CONTINUOUS
10
153.1746489999999881
20
-86.7672000000000025
11
153.0794109999999932
21
-86.671960999999996
0
LINE
8
BLACK
6
CONTINUOUS
10
153.0794109999999932
20
-86.671960999999996
11
153.0317919999999958
21
-86.4814849999999922
0
LINE
8
BLACK
6
CONTINUOUS
10
153.0317919999999958
20
-86.4814849999999922
11
153.0317919999999958
21
-86.1481519999999961
0
LINE
8
BLACK
6
CONTINUOUS
10
153.0317919999999958
20
-86.1481519999999961
11
153.0794109999999932
21
-85.9576759999999922
0
LINE
8
BLACK
6
CONTINUOUS
10
153.0794109999999932
20
-85.9576759999999922
11
153.1746489999999881
21
-85.8624379999999974
0
LINE
8
BLACK
6
CONTINUOUS
10
153.1746489999999881
20
-85.8624379999999974
11
153.2698869999999829
21
-85.814819
0
LINE
8
BLACK
6
CONTINUOUS
10
154.3175059999999803
20
-85.814819
11
154.4127440000000036
21
-85.814819
0
LINE
8
BLACK
6
CONTINUOUS
10
154.4127440000000036
20
-85.814819
11
154.5079819999999984
21
-85.8624379999999974
0
LINE
8
BLACK
6
CONTINUOUS
10
154.5079819999999984
20
-85.8624379999999974
11
154.5556009999999958
21
-85.9100569999999948
0
LINE
8
BLACK
6
CONTINUOUS
10
154.5556009999999958
20
-85.9100569999999948
11
154.6032199999999932
21
-86.0052949999999896
0
LINE
8
BLACK
6
CONTINUOUS
10
154.6032199999999932
20
-86.0052949999999896
11
154.6508389999999906
21
-86.1957709999999935
0
LINE
8
BLACK
6
CONTINUOUS
10
154.6508389999999906
20
-86.1957709999999935
11
154.6508389999999906
21
-86.4338659999999948
0
LINE
8
BLACK
6
CONTINUOUS
10
154.6508389999999906
20
-86.4338659999999948
11
154.6032199999999932
21
-86.6243419999999986
0
LINE
8
BLACK
6
CONTINUOUS
10
154.6032199999999932
20
-86.6243419999999986
11
154.5556009999999958
21
-86.7195799999999934
0
LINE
8
BLACK
6
CONTINUOUS
10
154.5556009999999958
20
-86.7195799999999934
11
154.5079819999999984
21
-86.7672000000000025
0
LINE
8
BLACK
6
CONTINUOUS
10
154.5079819999999984
20
-86.7672000000000025
11
154.4127440000000036
21
-86.814819
0
LINE
8
BLACK
6
CONTINUOUS
10
154.4127440000000036
20
-86.814819
11
154.3175059999999803
21
-86.814819
0
LINE
8
BLACK
6
CONTINUOUS
10
154.3175059999999803
20
-86.814819
11
154.2222679999999855
21
-86.7672000000000025
0
LINE
8
BLACK
6
CONTINUOUS
10
154.2222679999999855
20
-86.7672000000000025
11
154.1746489999999881
21
-86.7195799999999934
0
LINE
8
BLACK
6
CONTINUOUS
10
154.1746489999999881
20
-86.7195799999999934
11
154.1270299999999907
21
-86.6243419999999986
0
LINE
8
BLACK
6
CONTINUOUS
10
154.1270299999999907
20
-86.6243419999999986
11
154.0794109999999932
21
-86.4338659999999948
0
LINE
8
BLACK
6
CONTINUOUS
10
154.0794109999999932
20
-86.4338659999999948
11
154.0794109999999932
21
-86.1957709999999935
0
LINE
8
BLACK
6
CONTINUOUS
10
154.0794109999999932
20
-86.1957709999999935
11
154.1270299999999907
21
-86.0052949999999896
0
LINE
8
BLACK
6
CONTINUOUS
10
154.1270299999999907
20
-86.0052949999999896
11
154.1746489999999881
21
-85.9100569999999948
0
LINE
8
BLACK
6
CONTINUOUS
10
154.1746489999999881
20
-85.9100569999999948
11
154.2222679999999855
21
-85.8624379999999974
0
LINE
8
BLACK
6
CONTINUOUS
10
154.2222679999999855
20
-85.8624379999999974
11
154.3175059999999803
21
-85.814819
0
LINE
8
BLACK
6
CONTINUOUS
10
152.9365530000000035
20
-84.2748189999999937
11
152.6032199999999932
21
-83.7986279999999937
0
LINE
8
BLACK
6
CONTINUOUS
10
152.3651250000000061
20
-84.2748189999999937
11
152.3651250000000061
21
-83.2748189999999937
0
LINE
8
BLACK
6
CONTINUOUS
10
152.3651250000000061
20
-83.2748189999999937
11
152.7460769999999854
21
-83.2748189999999937
0
LINE
8
BLACK
6
CONTINUOUS
10
152.7460769999999854
20
-83.2748189999999937
11
152.8413149999999803
21
-83.3224379999999911
0
LINE
8
BLACK
6
CONTINUOUS
10
152.8413149999999803
20
-83.3224379999999911
11
152.8889340000000061
21
-83.3700570000000027
0
LINE
8
BLACK
6
CONTINUOUS
10
152.8889340000000061
20
-83.3700570000000027
11
152.9365530000000035
21
-83.4652949999999976
0
LINE
8
BLACK
6
CONTINUOUS
10
152.9365530000000035
20
-83.4652949999999976
11
152.9365530000000035
21
-83.6081519999999898
0
LINE
8
BLACK
6
CONTINUOUS
10
152.9365530000000035
20
-83.6081519999999898
11
152.8889340000000061
21
-83.7033899999999988
0
LINE
8
BLACK
6
CONTINUOUS
10
152.8889340000000061
20
-83.7033899999999988
11
152.8413149999999803
21
-83.7510089999999963
0
LINE
8
BLACK
6
CONTINUOUS
10
152.8413149999999803
20
-83.7510089999999963
11
152.7460769999999854
21
-83.7986279999999937
0
LINE
8
BLACK
6
CONTINUOUS
10
152.7460769999999854
20
-83.7986279999999937
11
152.3651250000000061
21
-83.7986279999999937
0
LINE
8
BLACK
6
CONTINUOUS
10
153.3175059999999803
20
-84.2271999999999963
11
153.460363000000001
21
-84.2748189999999937
0
LINE
8
BLACK
6
CONTINUOUS
10
153.460363000000001
20
-84.2748189999999937
11
153.698457999999988
21
-84.2748189999999937
0
LINE
8
BLACK
6
CONTINUOUS
10
153.698457999999988
20
-84.2748189999999937
11
153.7936959999999829
21
-84.2271999999999963
0
LINE
8
BLACK
6
CONTINUOUS
10
153.7936959999999829
20
-84.2271999999999963
11
153.8413149999999803
21
-84.1795800000000014
0
LINE
8
BLACK
6
CONTINUOUS
10
153.8413149999999803
20
-84.1795800000000014
11
153.8889340000000061
21
-84.0843419999999924
0
LINE
8
BLACK
6
CONTINUOUS
10
153.8889340000000061
20
-84.0843419999999924
11
153.8889340000000061
21
-83.9891039999999975
0
LINE
8
BLACK
6
CONTINUOUS
10
153.8889340000000061
20
-83.9891039999999975
11
153.8413149999999803
21
-83.8938660000000027
0
LINE
8
BLACK
6
CONTINUOUS
10
153.8413149999999803
20
-83.8938660000000027
11
153.7936959999999829
21
-83.8462469999999911
0
LINE
8
BLACK
6
CONTINUOUS
10
153.7936959999999829
20
-83.8462469999999911
11
153.698457999999988
21
-83.7986279999999937
0
LINE
8
BLACK
6
CONTINUOUS
10
153.698457999999988
20
-83.7986279999999937
11
153.5079819999999984
21
-83.7510089999999963
0
LINE
8
BLACK
6
CONTINUOUS
10
153.5079819999999984
20
-83.7510089999999963
11
153.4127440000000036
21
-83.7033899999999988
0
LINE
8
BLACK
6
CONTINUOUS
10
153.4127440000000036
20
-83.7033899999999988
11
153.3651250000000061
21
-83.6557710000000014
0
LINE
8
BLACK
6
CONTINUOUS
10
153.3651250000000061
20
-83.6557710000000014
11
153.3175059999999803
21
-83.5605329999999924
0
LINE
8
BLACK
6
CONTINUOUS
10
153.3175059999999803
20
-83.5605329999999924
11
153.3175059999999803
21
-83.4652949999999976
0
LINE
8
BLACK
6
CONTINUOUS
10
153.3175059999999803
20
-83.4652949999999976
11
153.3651250000000061
21
-83.3700570000000027
0
LINE
8
BLACK
6
CONTINUOUS
10
153.3651250000000061
20
-83.3700570000000027
11
153.4127440000000036
21
-83.3224379999999911
0
LINE
8
BLACK
6
CONTINUOUS
10
153.4127440000000036
20
-83.3224379999999911
11
153.5079819999999984
21
-83.2748189999999937
0
LINE
8
BLACK
6
CONTINUOUS
10
153.5079819999999984
20
-83.2748189999999937
11
153.7460769999999854
21
-83.2748189999999937
0
LINE
8
BLACK
6
CONTINUOUS
10
153.7460769999999854
20
-83.2748189999999937
11
153.8889340000000061
21
-83.3224379999999911
0
LINE
8
BLACK
6
CONTINUOUS
10
154.1746489999999881
20
-83.2748189999999937
11
154.7460769999999854
21
-83.2748189999999937
0
LINE
8
BLACK
6
CONTINUOUS
10
154.460363000000001
20
-84.2748189999999937
11
154.460363000000001
21
-83.2748189999999937
0
LINE
8
BLACK
6
CONTINUOUS
10
152.698457999999988
20
-79.1948189999999954
11
152.3651250000000061
21
-78.7186279999999954
0
LINE
8
BLACK
6
CONTINUOUS
10
152.1270299999999907
20
-79.1948189999999954
11
152.1270299999999907
21
-78.1948189999999954
0
LINE
8
BLACK
6
CONTINUOUS
10
152.1270299999999907
20
-78.1948189999999954
11
152.5079819999999984
21
-78.1948189999999954
0
LINE
8
BLACK
6
CONTINUOUS
10
152.5079819999999984
20
-78.1948189999999954
11
152.6032199999999932
21
-78.2424379999999928
0
LINE
8
BLACK
6
CONTINUOUS
10
152.6032199999999932
20
-78.2424379999999928
11
152.6508389999999906
21
-78.2900569999999902
0
LINE
8
BLACK
6
CONTINUOUS
10
152.6508389999999906
20
-78.2900569999999902
11
152.698457999999988
21
-78.3852949999999993
0
LINE
8
BLACK
6
CONTINUOUS
10
152.698457999999988
20
-78.3852949999999993
11
152.698457999999988
21
-78.5281519999999915
0
LINE
8
BLACK
6
CONTINUOUS
10
152.698457999999988
20
-78.5281519999999915
11
152.6508389999999906
21
-78.6233900000000006
0
LINE
8
BLACK
6
CONTINUOUS
10
152.6508389999999906
20
-78.6233900000000006
11
152.6032199999999932
21
-78.671008999999998
0
LINE
8
BLACK
6
CONTINUOUS
10
152.6032199999999932
20
-78.671008999999998
11
152.5079819999999984
21
-78.7186279999999954
0
LINE
8
BLACK
6
CONTINUOUS
10
152.5079819999999984
20
-78.7186279999999954
11
152.1270299999999907
21
-78.7186279999999954
0
LINE
8
BLACK
6
CONTINUOUS
10
153.0317919999999958
20
-78.1948189999999954
11
153.698457999999988
21
-79.1948189999999954
0
LINE
8
BLACK
6
CONTINUOUS
10
153.698457999999988
20
-78.1948189999999954
11
153.0317919999999958
21
-79.1948189999999954
0
LINE
8
BLACK
6
CONTINUOUS
10
154.0794109999999932
20
-79.1948189999999954
11
154.0794109999999932
21
-78.1948189999999954
0
LINE
8
BLACK
6
CONTINUOUS
10
154.0794109999999932
20
-78.1948189999999954
11
154.3175059999999803
21
-78.1948189999999954
0
LINE
8
BLACK
6
CONTINUOUS
10
154.3175059999999803
20
-78.1948189999999954
11
154.460363000000001
21
-78.2424379999999928
0
LINE
8
BLACK
6
CONTINUOUS
10
154.460363000000001
20
-78.2424379999999928
11
154.5556009999999958
21
-78.3376760000000019
0
LINE
8
BLACK
6
CONTINUOUS
10
154.5556009999999958
20
-78.3376760000000019
11
154.6032199999999932
21
-78.4329139999999967
0
LINE
8
BLACK
6
CONTINUOUS
10
154.6032199999999932
20
-78.4329139999999967
11
154.6508389999999906
21
-78.6233900000000006
0
LINE
8
BLACK
6
CONTINUOUS
10
154.6508389999999906
20
-78.6233900000000006
11
154.6508389999999906
21
-78.7662469999999928
0
LINE
8
BLACK
6
CONTINUOUS
10
154.6508389999999906
20
-78.7662469999999928
11
154.6032199999999932
21
-78.9567229999999967
0
LINE
8
BLACK
6
CONTINUOUS
10
154.6032199999999932
20
-78.9567229999999967
11
154.5556009999999958
21
-79.0519609999999915
0
LINE
8
BLACK
6
CONTINUOUS
10
154.5556009999999958
20
-79.0519609999999915
11
154.460363000000001
21
-79.147199999999998
0
LINE
8
BLACK
6
CONTINUOUS
10
154.460363000000001
20
-79.147199999999998
11
154.3175059999999803
21
-79.1948189999999954
0
LINE
8
BLACK
6
CONTINUOUS
10
154.3175059999999803
20
-79.1948189999999954
11
154.0794109999999932
21
-79.1948189999999954
0
LINE
8
BLACK
6
CONTINUOUS
10
152.2222679999999855
20
-75.6548190000000034
11
152.7936959999999829
21
-75.6548190000000034
0
LINE
8
BLACK
6
CONTINUOUS
10
152.5079819999999984
20
-76.6548190000000034
11
152.5079819999999984
21
-75.6548190000000034
0
LINE
8
BLACK
6
CONTINUOUS
10
153.0317919999999958
20
-75.6548190000000034
11
153.698457999999988
21
-76.6548190000000034
0
LINE
8
BLACK
6
CONTINUOUS
10
153.698457999999988
20
-75.6548190000000034
11
153.0317919999999958
21
-76.6548190000000034
0
LINE
8
BLACK
6
CONTINUOUS
10
154.0794109999999932
20
-76.6548190000000034
11
154.0794109999999932
21
-75.6548190000000034
0
LINE
8
BLACK
6
CONTINUOUS
10
154.0794109999999932
20
-75.6548190000000034
11
154.3175059999999803
21
-75.6548190000000034
0
LINE
8
BLACK
6
CONTINUOUS
10
154.3175059999999803
20
-75.6548190000000034
11
154.460363000000001
21
-75.7024380000000008
0
LINE
8
BLACK
6
CONTINUOUS
10
154.460363000000001
20
-75.7024380000000008
11
154.5556009999999958
21
-75.7976759999999956
0
LINE
8
BLACK
6
CONTINUOUS
10
154.5556009999999958
20
-75.7976759999999956
11
154.6032199999999932
21
-75.8929139999999904
0
LINE
8
BLACK
6
CONTINUOUS
10
154.6032199999999932
20
-75.8929139999999904
11
154.6508389999999906
21
-76.0833899999999943
0
LINE
8
BLACK
6
CONTINUOUS
10
154.6508389999999906
20
-76.0833899999999943
11
154.6508389999999906
21
-76.2262470000000008
0
LINE
8
BLACK
6
CONTINUOUS
10
154.6508389999999906
20
-76.2262470000000008
11
154.6032199999999932
21
-76.4167229999999904
0
LINE
8
BLACK
6
CONTINUOUS
10
154.6032199999999932
20
-76.4167229999999904
11
154.5556009999999958
21
-76.5119609999999994
0
LINE
8
BLACK
6
CONTINUOUS
10
154.5556009999999958
20
-76.5119609999999994
11
154.460363000000001
21
-76.6071999999999917
0
LINE
8
BLACK
6
CONTINUOUS
10
154.460363000000001
20
-76.6071999999999917
11
154.3175059999999803
21
-76.6548190000000034
0
LINE
8
BLACK
6
CONTINUOUS
10
154.3175059999999803
20
-76.6548190000000034
11
154.0794109999999932
21
-76.6548190000000034
0
LINE
8
BLACK
6
CONTINUOUS
10
152.5556009999999958
20
-73.1624379999999945
11
152.460363000000001
21
-73.1148189999999971
0
LINE
8
BLACK
6
CONTINUOUS
10
152.460363000000001
20
-73.1148189999999971
11
152.3175059999999803
21
-73.1148189999999971
0
LINE
8
BLACK
6
CONTINUOUS
10
152.3175059999999803
20
-73.1148189999999971
11
152.1746489999999881
21
-73.1624379999999945
0
LINE
8
BLACK
6
CONTINUOUS
10
152.1746489999999881
20
-73.1624379999999945
11
152.0794109999999932
21
-73.2576760000000036
0
LINE
8
BLACK
6
CONTINUOUS
10
152.0794109999999932
20
-73.2576760000000036
11
152.0317919999999958
21
-73.3529139999999984
0
LINE
8
BLACK
6
CONTINUOUS
10
152.0317919999999958
20
-73.3529139999999984
11
151.9841729999999984
21
-73.5433900000000023
0
LINE
8
BLACK
6
CONTINUOUS
10
151.9841729999999984
20
-73.5433900000000023
11
151.9841729999999984
21
-73.6862469999999945
0
LINE
8
BLACK
6
CONTINUOUS
10
151.9841729999999984
20
-73.6862469999999945
11
152.0317919999999958
21
-73.8767229999999984
0
LINE
8
BLACK
6
CONTINUOUS
10
152.0317919999999958
20
-73.8767229999999984
11
152.0794109999999932
21
-73.9719609999999932
0
LINE
8
BLACK
6
CONTINUOUS
10
152.0794109999999932
20
-73.9719609999999932
11
152.1746489999999881
21
-74.0671999999999997
0
LINE
8
BLACK
6
CONTINUOUS
10
152.1746489999999881
20
-74.0671999999999997
11
152.3175059999999803
21
-74.1148189999999971
0
LINE
8
BLACK
6
CONTINUOUS
10
152.3175059999999803
20
-74.1148189999999971
11
152.4127440000000036
21
-74.1148189999999971
0
LINE
8
BLACK
6
CONTINUOUS
10
152.4127440000000036
20
-74.1148189999999971
11
152.5556009999999958
21
-74.0671999999999997
0
LINE
8
BLACK
6
CONTINUOUS
10
152.5556009999999958
20
-74.0671999999999997
11
152.6032199999999932
21
-74.0195799999999906
0
LINE
8
BLACK
6
CONTINUOUS
10
152.6032199999999932
20
-74.0195799999999906
11
152.6032199999999932
21
-73.6862469999999945
0
LINE
8
BLACK
6
CONTINUOUS
10
152.6032199999999932
20
-73.6862469999999945
11
152.4127440000000036
21
-73.6862469999999945
0
LINE
8
BLACK
6
CONTINUOUS
10
153.0317919999999958
20
-74.1148189999999971
11
153.0317919999999958
21
-73.1148189999999971
0
LINE
8
BLACK
6
CONTINUOUS
10
153.0317919999999958
20
-73.1148189999999971
11
153.6032199999999932
21
-74.1148189999999971
0
LINE
8
BLACK
6
CONTINUOUS
10
153.6032199999999932
20
-74.1148189999999971
11
153.6032199999999932
21
-73.1148189999999971
0
LINE
8
BLACK
6
CONTINUOUS
10
154.0794109999999932
20
-74.1148189999999971
11
154.0794109999999932
21
-73.1148189999999971
0
LINE
8
BLACK
6
CONTINUOUS
10
154.0794109999999932
20
-73.1148189999999971
11
154.3175059999999803
21
-73.1148189999999971
0
LINE
8
BLACK
6
CONTINUOUS
10
154.3175059999999803
20
-73.1148189999999971
11
154.460363000000001
21
-73.1624379999999945
0
LINE
8
BLACK
6
CONTINUOUS
10
154.460363000000001
20
-73.1624379999999945
11
154.5556009999999958
21
-73.2576760000000036
0
LINE
8
BLACK
6
CONTINUOUS
10
154.5556009999999958
20
-73.2576760000000036
11
154.6032199999999932
21
-73.3529139999999984
0
LINE
8
BLACK
6
CONTINUOUS
10
154.6032199999999932
20
-73.3529139999999984
11
154.6508389999999906
21
-73.5433900000000023
0
LINE
8
BLACK
6
CONTINUOUS
10
154.6508389999999906
20
-73.5433900000000023
11
154.6508389999999906
21
-73.6862469999999945
0
LINE
8
BLACK
6
CONTINUOUS
10
154.6508389999999906
20
-73.6862469999999945
11
154.6032199999999932
21
-73.8767229999999984
0
LINE
8
BLACK
6
CONTINUOUS
10
154.6032199999999932
20
-73.8767229999999984
11
154.5556009999999958
21
-73.9719609999999932
0
LINE
8
BLACK
6
CONTINUOUS
10
154.5556009999999958
20
-73.9719609999999932
11
154.460363000000001
21
-74.0671999999999997
0
LINE
8
BLACK
6
CONTINUOUS
10
154.460363000000001
20
-74.0671999999999997
11
154.3175059999999803
21
-74.1148189999999971
0
LINE
8
BLACK
6
CONTINUOUS
10
154.3175059999999803
20
-74.1148189999999971
11
154.0794109999999932
21
-74.1148189999999971
0
LINE
8
BLACK
6
CONTINUOUS
10
152.2222679999999855
20
-80.7348190000000017
11
152.8413149999999803
21
-80.7348190000000017
0
LINE
8
BLACK
6
CONTINUOUS
10
152.8413149999999803
20
-80.7348190000000017
11
152.5079819999999984
21
-81.1157709999999952
0
LINE
8
BLACK
6
CONTINUOUS
10
152.5079819999999984
20
-81.1157709999999952
11
152.6508389999999906
21
-81.1157709999999952
0
LINE
8
BLACK
6
CONTINUOUS
10
152.6508389999999906
20
-81.1157709999999952
11
152.7460769999999854
21
-81.1633899999999926
0
LINE
8
BLACK
6
CONTINUOUS
10
152.7460769999999854
20
-81.1633899999999926
11
152.7936959999999829
21
-81.21100899999999
0
LINE
8
BLACK
6
CONTINUOUS
10
152.7936959999999829
20
-81.21100899999999
11
152.8413149999999803
21
-81.306246999999999
0
LINE
8
BLACK
6
CONTINUOUS
10
152.8413149999999803
20
-81.306246999999999
11
152.8413149999999803
21
-81.5443420000000003
0
LINE
8
BLACK
6
CONTINUOUS
10
152.8413149999999803
20
-81.5443420000000003
11
152.7936959999999829
21
-81.6395799999999952
0
LINE
8
BLACK
6
CONTINUOUS
10
152.7936959999999829
20
-81.6395799999999952
11
152.7460769999999854
21
-81.68719999999999
0
LINE
8
BLACK
6
CONTINUOUS
10
152.7460769999999854
20
-81.68719999999999
11
152.6508389999999906
21
-81.7348190000000017
0
LINE
8
BLACK
6
CONTINUOUS
10
152.6508389999999906
20
-81.7348190000000017
11
152.3651250000000061
21
-81.7348190000000017
0
LINE
8
BLACK
6
CONTINUOUS
10
152.3651250000000061
20
-81.7348190000000017
11
152.2698869999999829
21
-81.68719999999999
0
LINE
8
BLACK
6
CONTINUOUS
10
152.2698869999999829
20
-81.68719999999999
11
152.2222679999999855
21
-81.6395799999999952
0
LINE
8
BLACK
6
CONTINUOUS
10
153.1270299999999907
20
-80.7348190000000017
11
153.460363000000001
21
-81.7348190000000017
0
LINE
8
BLACK
6
CONTINUOUS
10
153.460363000000001
20
-81.7348190000000017
11
153.7936959999999829
21
-80.7348190000000017
0
LINE
8
BLACK
6
CONTINUOUS
10
154.0317919999999958
20
-80.7348190000000017
11
154.6508389999999906
21
-80.7348190000000017
0
LINE
8
BLACK
6
CONTINUOUS
10
154.6508389999999906
20
-80.7348190000000017
11
154.3175059999999803
21
-81.1157709999999952
0
LINE
8
BLACK
6
CONTINUOUS
10
154.3175059999999803
20
-81.1157709999999952
11
154.460363000000001
21
-81.1157709999999952
0
LINE
8
BLACK
6
CONTINUOUS
10
154.460363000000001
20
-81.1157709999999952
11
154.5556009999999958
21
-81.1633899999999926
0
LINE
8
BLACK
6
CONTINUOUS
10
154.5556009999999958
20
-81.1633899999999926
11
154.6032199999999932
21
-81.21100899999999
0
LINE
8
BLACK
6
CONTINUOUS
10
154.6032199999999932
20
-81.21100899999999
11
154.6508389999999906
21
-81.306246999999999
0
LINE
8
BLACK
6
CONTINUOUS
10
154.6508389999999906
20
-81.306246999999999
11
154.6508389999999906
21
-81.5443420000000003
0
LINE
8
BLACK
6
CONTINUOUS
10
154.6508389999999906
20
-81.5443420000000003
11
154.6032199999999932
21
-81.6395799999999952
0
LINE
8
BLACK
6
CONTINUOUS
10
154.6032199999999932
20
-81.6395799999999952
11
154.5556009999999958
21
-81.68719999999999
0
LINE
8
BLACK
6
CONTINUOUS
10
154.5556009999999958
20
-81.68719999999999
11
154.460363000000001
21
-81.7348190000000017
0
LINE
8
BLACK
6
CONTINUOUS
10
154.460363000000001
20
-81.7348190000000017
11
154.1746489999999881
21
-81.7348190000000017
0
LINE
8
BLACK
6
CONTINUOUS
10
154.1746489999999881
20
-81.7348190000000017
11
154.0794109999999932
21
-81.68719999999999
0
LINE
8
BLACK
6
CONTINUOUS
10
154.0794109999999932
20
-81.68719999999999
11
154.0317919999999958
21
-81.6395799999999952
0
LINE
8
BLACK
6
CONTINUOUS
10
130.073775999999981
20
-71.2325000000000017
11
130.5832240000000013
21
-71.2325000000000017
0
LINE
8
BLACK
6
CONTINUOUS
10
130.073775999999981
20
-72.2775000000000034
11
130.5832240000000013
21
-72.2775000000000034
0
LINE
8
BLACK
6
CONTINUOUS
10
130.1822329999999965
20
-77.8489999999999895
11
130.4747669999999857
21
-77.8489999999999895
0
LINE
8
BLACK
6
CONTINUOUS
10
130.1822329999999965
20
-78.8689999999999998
11
130.4747669999999857
21
-78.8689999999999998
0
LINE
8
BLACK
6
CONTINUOUS
10
142.6209999999999809
20
-88.8999999999999915
11
159.1310000000000002
21
-88.8999999999999915
0
LINE
8
BLACK
6
CONTINUOUS
10
159.1310000000000002
20
-88.8999999999999915
11
159.1310000000000002
21
-99.0600000000000023
0
LINE
8
BLACK
6
CONTINUOUS
10
159.1310000000000002
20
-99.0600000000000023
11
142.6209999999999809
21
-99.0600000000000023
0
LINE
8
BLACK
6
CONTINUOUS
10
142.6209999999999809
20
-99.0600000000000023
11
142.6209999999999809
21
-88.8999999999999915
0
LINE
8
BLACK
6
CONTINUOUS
10
130.1822329999999965
20
-75.8169999999999931
11
130.4747669999999857
21
-75.8169999999999931
0
LINE
8
BLACK
6
CONTINUOUS
10
130.1822329999999965
20
-76.8370000000000033
11
130.4747669999999857
21
-76.8370000000000033
0
LINE
8
BLACK
6
CONTINUOUS
10
130.073775999999981
20
-73.8995000000000033
11
130.5832240000000013
21
-73.8995000000000033
0
LINE
8
BLACK
6
CONTINUOUS
10
130.073775999999981
20
-74.9444999999999908
11
130.5832240000000013
21
-74.9444999999999908
0
LINE
8
BLACK
6
CONTINUOUS
10
125.8759999999999906
20
-82.3160000000000025
11
127.1359999999999957
21
-82.3160000000000025
0
LINE
8
BLACK
6
CONTINUOUS
10
125.8759999999999906
20
-86.0759999999999934
11
125.8759999999999906
21
-82.3160000000000025
0
LINE
8
BLACK
6
CONTINUOUS
10
132.695999999999998
20
-82.3160000000000025
11
131.436000000000007
21
-82.3160000000000025
0
LINE
8
BLACK
6
CONTINUOUS
10
132.695999999999998
20
-86.0759999999999934
11
132.695999999999998
21
-82.3160000000000025
0
LINE
8
BLACK
6
CONTINUOUS
10
125.6663239999999888
20
-87.0605669999999918
11
125.6689609999999959
21
-87.0605669999999918
0
LINE
8
BLACK
6
CONTINUOUS
10
125.6689609999999959
20
-87.0605669999999918
11
125.6712220000000002
21
-87.0628279999999961
0
LINE
8
BLACK
6
CONTINUOUS
10
125.6712220000000002
20
-87.0628279999999961
11
125.68128999999999
21
-87.0674759999999992
0
LINE
8
BLACK
6
CONTINUOUS
10
125.68128999999999
20
-87.0674759999999992
11
126.0112899999999883
21
-87.3074759999999941
0
LINE
8
BLACK
6
CONTINUOUS
10
126.0112899999999883
20
-87.3074759999999941
11
126.0271729999999906
21
-87.3246740000000017
0
LINE
8
BLACK
6
CONTINUOUS
10
126.0271729999999906
20
-87.3246740000000017
11
126.0286739999999952
21
-87.3341799999999893
0
LINE
8
BLACK
6
CONTINUOUS
10
126.0286739999999952
20
-87.3341799999999893
11
126.0343359999999961
21
-87.3419650000000019
0
LINE
8
BLACK
6
CONTINUOUS
10
126.0343359999999961
20
-87.3419650000000019
11
126.0321189999999945
21
-87.3559999999999945
0
LINE
8
BLACK
6
CONTINUOUS
10
126.0321189999999945
20
-87.3559999999999945
11
126.0343359999999961
21
-87.3700350000000014
0
LINE
8
BLACK
6
CONTINUOUS
10
126.0343359999999961
20
-87.3700350000000014
11
126.0286739999999952
21
-87.3778190000000023
0
LINE
8
BLACK
6
CONTINUOUS
10
126.0286739999999952
20
-87.3778190000000023
11
126.0271729999999906
21
-87.3873260000000016
0
LINE
8
BLACK
6
CONTINUOUS
10
126.0271729999999906
20
-87.3873260000000016
11
126.0112899999999883
21
-87.404523999999995
0
LINE
8
BLACK
6
CONTINUOUS
10
126.0112899999999883
20
-87.404523999999995
11
125.68128999999999
21
-87.6445239999999899
0
LINE
8
BLACK
6
CONTINUOUS
10
125.68128999999999
20
-87.6445239999999899
11
125.6712220000000002
21
-87.6491709999999955
0
LINE
8
BLACK
6
CONTINUOUS
10
125.6712220000000002
20
-87.6491709999999955
11
125.6689609999999959
21
-87.6514329999999973
0
LINE
8
BLACK
6
CONTINUOUS
10
125.6689609999999959
20
-87.6514329999999973
11
125.6663239999999888
21
-87.6514329999999973
0
LINE
8
BLACK
6
CONTINUOUS
10
125.6663239999999888
20
-87.6514329999999973
11
125.6600349999999935
21
-87.6543360000000007
0
LINE
8
BLACK
6
CONTINUOUS
10
125.6600349999999935
20
-87.6543360000000007
11
125.641649000000001
21
-87.6514329999999973
0
LINE
8
BLACK
6
CONTINUOUS
10
125.641649000000001
20
-87.6514329999999973
11
125.6230389999999915
21
-87.6514329999999973
0
LINE
8
BLACK
6
CONTINUOUS
10
125.6230389999999915
20
-87.6514329999999973
11
125.6195489999999921
21
-87.6479429999999979
0
LINE
8
BLACK
6
CONTINUOUS
10
125.6195489999999921
20
-87.6479429999999979
11
125.6146739999999937
21
-87.6471739999999926
0
LINE
8
BLACK
6
CONTINUOUS
10
125.6146739999999937
20
-87.6471739999999926
11
125.6037239999999997
21
-87.6321179999999913
0
LINE
8
BLACK
6
CONTINUOUS
10
125.6037239999999997
20
-87.6321179999999913
11
125.590566999999993
21
-87.6189609999999988
0
LINE
8
BLACK
6
CONTINUOUS
10
125.590566999999993
20
-87.6189609999999988
11
125.5892159999999933
21
-87.6121689999999944
0
LINE
8
BLACK
6
CONTINUOUS
10
125.5892159999999933
20
-87.6121689999999944
11
125.5876639999999895
21
-87.6100349999999963
0
LINE
8
BLACK
6
CONTINUOUS
10
125.5876639999999895
20
-87.6100349999999963
11
125.588161999999997
21
-87.6068739999999906
0
LINE
8
BLACK
6
CONTINUOUS
10
125.588161999999997
20
-87.6068739999999906
11
125.5859999999999985
21
-87.5959999999999894
0
LINE
8
BLACK
6
CONTINUOUS
10
125.5859999999999985
20
-87.5959999999999894
11
125.5859999999999985
21
-87.1159999999999997
0
LINE
8
BLACK
6
CONTINUOUS
10
125.5859999999999985
20
-87.1159999999999997
11
125.588161999999997
21
-87.105125000000001
0
LINE
8
BLACK
6
CONTINUOUS
10
125.588161999999997
20
-87.105125000000001
11
125.5876639999999895
21
-87.1019649999999928
0
LINE
8
BLACK
6
CONTINUOUS
10
125.5876639999999895
20
-87.1019649999999928
11
125.5892159999999933
21
-87.0998299999999972
0
LINE
8
BLACK
6
CONTINUOUS
10
125.5892159999999933
20
-87.0998299999999972
11
125.590566999999993
21
-87.0930389999999903
0
LINE
8
BLACK
6
CONTINUOUS
10
125.590566999999993
20
-87.0930389999999903
11
125.6037239999999997
21
-87.0798810000000003
0
LINE
8
BLACK
6
CONTINUOUS
10
125.6037239999999997
20
-87.0798810000000003
11
125.6146739999999937
21
-87.0648259999999965
0
LINE
8
BLACK
6
CONTINUOUS
10
125.6146739999999937
20
-87.0648259999999965
11
125.6195489999999921
21
-87.0640559999999937
0
LINE
8
BLACK
6
CONTINUOUS
10
125.6195489999999921
20
-87.0640559999999937
11
125.6230389999999915
21
-87.0605669999999918
0
LINE
8
BLACK
6
CONTINUOUS
10
125.6230389999999915
20
-87.0605669999999918
11
125.641649000000001
21
-87.0605669999999918
0
LINE
8
BLACK
6
CONTINUOUS
10
125.641649000000001
20
-87.0605669999999918
11
125.6600349999999935
21
-87.0576640000000026
0
LINE
8
BLACK
6
CONTINUOUS
10
125.6600349999999935
20
-87.0576640000000026
11
125.6663239999999888
21
-87.0605669999999918
0
LINE
8
BLACK
6
CONTINUOUS
10
138.0247760000000028
20
-88.8854999999999933
11
138.5342239999999947
21
-88.8854999999999933
0
LINE
8
BLACK
6
CONTINUOUS
10
138.0247760000000028
20
-89.930499999999995
11
138.5342239999999947
21
-89.930499999999995
0
LINE
8
BLACK
6
CONTINUOUS
10
127.7019999999999982
20
-95.6979999999999933
11
127.7019999999999982
21
-98.3579999999999899
0
LINE
8
BLACK
6
CONTINUOUS
10
137.921999999999997
20
-95.6979999999999933
11
127.7019999999999982
21
-95.6979999999999933
0
LINE
8
BLACK
6
CONTINUOUS
10
137.921999999999997
20
-95.6979999999999933
11
137.921999999999997
21
-98.3579999999999899
0
LINE
8
BLACK
6
CONTINUOUS
10
137.921999999999997
20
-98.3579999999999899
11
127.7019999999999982
21
-98.3579999999999899
0
LINE
8
BLACK
6
CONTINUOUS
10
139.1920000000000073
20
-95.6979999999999933
11
140.5219999999999914
21
-95.6979999999999933
0
LINE
8
BLACK
6
CONTINUOUS
10
140.5219999999999914
20
-95.6979999999999933
11
140.5219999999999914
21
-97.0279999999999916
0
LINE
8
BLACK
6
CONTINUOUS
10
138.5342239999999947
20
-91.4254999999999995
11
138.0247760000000028
21
-91.4254999999999995
0
LINE
8
BLACK
6
CONTINUOUS
10
138.5342239999999947
20
-92.4705000000000013
11
138.0247760000000028
21
-92.4705000000000013
0
LINE
8
BLACK
6
CONTINUOUS
10
134.25
20
-62.9249999999999972
11
150.4899999999999807
21
-62.9249999999999972
0
LINE
8
BLACK
6
CONTINUOUS
10
134.25
20
-70.5450000000000017
11
134.25
21
-62.9249999999999972
0
LINE
8
BLACK
6
CONTINUOUS
10
134.25
20
-87.164999999999992
11
134.25
21
-86.5450000000000017
0
LINE
8
BLACK
6
CONTINUOUS
10
136.3700000000000045
20
-87.164999999999992
11
134.25
21
-87.164999999999992
0
LINE
8
BLACK
6
CONTINUOUS
10
150.4899999999999807
20
-62.9249999999999972
11
150.4899999999999807
21
-70.5450000000000017
0
LINE
8
BLACK
6
CONTINUOUS
10
150.4899999999999807
20
-86.5450000000000017
11
150.4899999999999807
21
-87.164999999999992
0
LINE
8
BLACK
6
CONTINUOUS
10
150.4899999999999807
20
-87.164999999999992
11
148.3700000000000045
21
-87.164999999999992
0
LINE
8
BLACK
6
CONTINUOUS
10
134.0704000000000065
20
-70.1510679999999951
11
134.0735359999999901
21
-70.1505459999999914
0
LINE
8
BLACK
6
CONTINUOUS
10
134.0735359999999901
20
-70.1505459999999914
11
134.0757600000000025
21
-70.1521340000000038
0
LINE
8
BLACK
6
CONTINUOUS
10
134.0757600000000025
20
-70.1521340000000038
11
134.0829609999999832
21
-70.1535669999999953
0
LINE
8
BLACK
6
CONTINUOUS
10
134.0829609999999832
20
-70.1535669999999953
11
134.0959509999999852
21
-70.1665569999999974
0
LINE
8
BLACK
6
CONTINUOUS
10
134.0959509999999852
20
-70.1665569999999974
11
134.110904000000005
21
-70.1772380000000027
0
LINE
8
BLACK
6
CONTINUOUS
10
134.110904000000005
20
-70.1772380000000027
11
134.1117579999999805
21
-70.1823639999999926
0
LINE
8
BLACK
6
CONTINUOUS
10
134.1117579999999805
20
-70.1823639999999926
11
134.1154329999999959
21
-70.1860389999999938
0
LINE
8
BLACK
6
CONTINUOUS
10
134.1154329999999959
20
-70.1860389999999938
11
134.1154329999999959
21
-70.2044099999999958
0
LINE
8
BLACK
6
CONTINUOUS
10
134.1154329999999959
20
-70.2044099999999958
11
134.1184539999999856
21
-70.2225349999999935
0
LINE
8
BLACK
6
CONTINUOUS
10
134.1184539999999856
20
-70.2225349999999935
11
134.1154329999999959
21
-70.2292290000000037
0
LINE
8
BLACK
6
CONTINUOUS
10
134.1154329999999959
20
-70.2292290000000037
11
134.1154329999999959
21
-70.2319609999999983
0
LINE
8
BLACK
6
CONTINUOUS
10
134.1154329999999959
20
-70.2319609999999983
11
134.1131859999999847
21
-70.2342069999999978
0
LINE
8
BLACK
6
CONTINUOUS
10
134.1131859999999847
20
-70.2342069999999978
11
134.1088239999999985
21
-70.243873999999991
0
LINE
8
BLACK
6
CONTINUOUS
10
134.1088239999999985
20
-70.243873999999991
11
133.8688239999999894
21
-70.5798740000000038
0
LINE
8
BLACK
6
CONTINUOUS
10
133.8688239999999894
20
-70.5798740000000038
11
133.8517620000000079
21
-70.5959039999999902
0
LINE
8
BLACK
6
CONTINUOUS
10
133.8517620000000079
20
-70.5959039999999902
11
133.8417749999999842
21
-70.5975679999999954
0
LINE
8
BLACK
6
CONTINUOUS
10
133.8417749999999842
20
-70.5975679999999954
11
133.833535999999981
21
-70.6034539999999993
0
LINE
8
BLACK
6
CONTINUOUS
10
133.833535999999981
20
-70.6034539999999993
11
133.8199970000000008
21
-70.6011969999999991
0
LINE
8
BLACK
6
CONTINUOUS
10
133.8199970000000008
20
-70.6011969999999991
11
133.8064640000000054
21
-70.6034530000000018
0
LINE
8
BLACK
6
CONTINUOUS
10
133.8064640000000054
20
-70.6034530000000018
11
133.7982250000000022
21
-70.5975679999999954
0
LINE
8
BLACK
6
CONTINUOUS
10
133.7982250000000022
20
-70.5975679999999954
11
133.7882380000000069
21
-70.5959039999999902
0
LINE
8
BLACK
6
CONTINUOUS
10
133.7882380000000069
20
-70.5959039999999902
11
133.771175999999997
21
-70.5798750000000013
0
LINE
8
BLACK
6
CONTINUOUS
10
133.771175999999997
20
-70.5798750000000013
11
133.5311759999999879
21
-70.243873999999991
0
LINE
8
BLACK
6
CONTINUOUS
10
133.5311759999999879
20
-70.243873999999991
11
133.5268140000000017
21
-70.2342079999999953
0
LINE
8
BLACK
6
CONTINUOUS
10
133.5268140000000017
20
-70.2342079999999953
11
133.5245669999999905
21
-70.2319609999999983
0
LINE
8
BLACK
6
CONTINUOUS
10
133.5245669999999905
20
-70.2319609999999983
11
133.5245669999999905
21
-70.229227999999992
0
LINE
8
BLACK
6
CONTINUOUS
10
133.5245669999999905
20
-70.229227999999992
11
133.5215469999999982
21
-70.222535999999991
0
LINE
8
BLACK
6
CONTINUOUS
10
133.5215469999999982
20
-70.222535999999991
11
133.5245669999999905
21
-70.2044139999999999
0
LINE
8
BLACK
6
CONTINUOUS
10
133.5245669999999905
20
-70.2044139999999999
11
133.5245669999999905
21
-70.1860389999999938
0
LINE
8
BLACK
6
CONTINUOUS
10
133.5245669999999905
20
-70.1860389999999938
11
133.52824099999998
21
-70.1823639999999926
0
LINE
8
BLACK
6
CONTINUOUS
10
133.52824099999998
20
-70.1823639999999926
11
133.5290959999999814
21
-70.1772380000000027
0
LINE
8
BLACK
6
CONTINUOUS
10
133.5290959999999814
20
-70.1772380000000027
11
133.5440470000000062
21
-70.1665579999999949
0
LINE
8
BLACK
6
CONTINUOUS
10
133.5440470000000062
20
-70.1665579999999949
11
133.5570390000000032
21
-70.1535669999999953
0
LINE
8
BLACK
6
CONTINUOUS
10
133.5570390000000032
20
-70.1535669999999953
11
133.5642409999999813
21
-70.1521340000000038
0
LINE
8
BLACK
6
CONTINUOUS
10
133.5642409999999813
20
-70.1521340000000038
11
133.5664639999999963
21
-70.1505470000000031
0
LINE
8
BLACK
6
CONTINUOUS
10
133.5664639999999963
20
-70.1505470000000031
11
133.5695969999999875
21
-70.1510689999999926
0
LINE
8
BLACK
6
CONTINUOUS
10
133.5695969999999875
20
-70.1510689999999926
11
133.5799999999999841
21
-70.1490000000000009
0
LINE
8
BLACK
6
CONTINUOUS
10
133.5799999999999841
20
-70.1490000000000009
11
134.0600000000000023
21
-70.1490000000000009
0
LINE
8
BLACK
6
CONTINUOUS
10
134.0600000000000023
20
-70.1490000000000009
11
134.0704000000000065
21
-70.1510679999999951
0
LINE
8
BLACK
6
CONTINUOUS
10
156.1500000000000057
20
-85.0899999999999892
11
156.1500000000000057
21
-72.3299999999999983
0
LINE
8
BLACK
6
CONTINUOUS
10
156.1500000000000057
20
-87.6899999999999977
11
156.1500000000000057
21
-86.3599999999999994
0
LINE
8
BLACK
6
CONTINUOUS
10
157.4799999999999898
20
-87.6899999999999977
11
156.1500000000000057
21
-87.6899999999999977
0
LINE
8
BLACK
6
CONTINUOUS
10
158.8100000000000023
20
-72.3299999999999983
11
156.1500000000000057
21
-72.3299999999999983
0
LINE
8
BLACK
6
CONTINUOUS
10
158.8100000000000023
20
-85.0899999999999892
11
156.1500000000000057
21
-85.0899999999999892
0
LINE
8
BLACK
6
CONTINUOUS
10
158.8100000000000023
20
-85.0899999999999892
11
158.8100000000000023
21
-72.3299999999999983
  0
ENDSEC
  0
EOF
